<svg width="49" height="48" viewBox="0 0 49 48" fill="none" xmlns="http://www.w3.org/2000/svg">
<g id="f7:desktopcomputer">
<path id="Vector" d="M20.8129 41C20.4101 41 20.0072 40.9288 19.6043 40.7865C19.2014 40.6442 18.8417 40.4166 18.5252 40.1035C17.3453 39.0789 16.0791 37.8767 14.7266 36.497C13.3741 35.1172 12.1298 33.6373 10.9937 32.0571C9.85755 30.477 8.90791 28.8331 8.14475 27.1255C7.38158 25.4179 7 23.7102 7 22.0026C7 17.7335 8.38878 14.3325 11.1663 11.7995C13.9439 9.26649 17.1594 8 20.8129 8C22.6835 8 24.4532 8.34893 26.1223 9.04678C27.7914 9.74463 29.259 10.6907 30.5252 11.8849C31.7914 13.0791 32.7986 14.4879 33.5468 16.1113C34.295 17.7346 34.6691 19.4707 34.6691 21.3195C34.6691 22.0595 34.482 22.6429 34.1079 23.0699C33.7338 23.4968 33.259 23.8241 32.6835 24.0517C31.5899 24.4787 30.619 25.0695 29.7706 25.8243C28.9223 26.579 28.2098 27.4397 27.6331 28.4062C27.0576 29.4023 26.6547 30.4554 26.4245 31.5653C26.1942 32.6753 26.1511 33.8137 26.295 34.9806C26.3813 35.6067 26.3669 36.1617 26.2518 36.6455C26.1367 37.1294 25.8489 37.5847 25.3885 38.0116L24.2662 39.0362L23.1007 40.1035C22.7842 40.4166 22.4245 40.6442 22.0216 40.7865C21.6187 40.9288 21.2158 41 20.8129 41ZM20.8129 21.6611C21.7626 21.6611 22.5758 21.3269 23.2527 20.6587C23.9295 19.9904 24.2673 19.1861 24.2662 18.2458C24.265 17.3055 23.9272 16.5017 23.2527 15.8346C22.5781 15.1675 21.7649 14.8328 20.8129 14.8305C19.861 14.8283 19.0483 15.1629 18.375 15.8346C17.7016 16.5063 17.3632 17.31 17.3597 18.2458C17.3563 19.1816 17.6947 19.9859 18.375 20.6587C19.0553 21.3315 19.8679 21.6656 20.8129 21.6611ZM37.0863 35.3221H31.6043C31.1151 35.3221 30.7053 35.1582 30.375 34.8303C30.0446 34.5025 29.8788 34.0972 29.8777 33.6145C29.8765 33.1318 30.0423 32.7265 30.375 32.3987C30.7076 32.0708 31.1174 31.9069 31.6043 31.9069H37.0863L35.5324 30.37C35.2158 30.0569 35.0576 29.6659 35.0576 29.1968C35.0576 28.7278 35.2302 28.322 35.5755 27.9793C35.8921 27.6662 36.295 27.5097 36.7842 27.5097C37.2734 27.5097 37.6763 27.6662 37.9928 27.9793L42.482 32.4191C42.8273 32.7607 43 33.1591 43 33.6145C43 34.0699 42.8273 34.4683 42.482 34.8098L37.9928 39.2497C37.6763 39.5627 37.2809 39.7267 36.8066 39.7415C36.3324 39.7563 35.922 39.5923 35.5755 39.2497C35.259 38.9366 35.1007 38.5382 35.1007 38.0543C35.1007 37.5705 35.259 37.1721 35.5755 36.859L37.0863 35.3221ZM20.8129 30.1992C22.0216 30.1992 23.1658 29.9573 24.2455 29.4735C25.3252 28.9896 26.2817 28.3066 27.1151 27.4243C27.259 27.282 27.3597 27.1181 27.4173 26.9325C27.4748 26.747 27.5036 26.5551 27.5036 26.357C27.5036 26.044 27.4391 25.752 27.3102 25.481C27.1813 25.2101 26.9724 25.004 26.6835 24.8629C25.7914 24.3506 24.8486 23.9732 23.8553 23.7307C22.8619 23.4882 21.8478 23.3676 20.8129 23.3687C19.7781 23.3698 18.7635 23.4911 17.7689 23.7324C16.7744 23.9738 15.8322 24.3506 14.9424 24.8629C14.6835 25.0052 14.482 25.2044 14.3381 25.4605C14.1942 25.7167 14.1223 26.0013 14.1223 26.3144C14.1223 26.542 14.1511 26.7487 14.2086 26.9342C14.2662 27.1198 14.3669 27.2832 14.5108 27.4243C15.3453 28.3066 16.3024 28.9896 17.3822 29.4735C18.4619 29.9573 19.6055 30.1992 20.8129 30.1992Z" fill="#36363D"/>
</g>
</svg>
