<svg width="49" height="48" viewBox="0 0 49 48" fill="none" xmlns="http://www.w3.org/2000/svg">
<g id="f7:desktopcomputer">
<path id="Vector" fill-rule="evenodd" clip-rule="evenodd" d="M16.25 6C14.8576 6 13.5223 6.56893 12.5377 7.58162C11.5531 8.59432 11 9.96783 11 11.4V36.6C11 38.0322 11.5531 39.4057 12.5377 40.4184C13.5223 41.4311 14.8576 42 16.25 42H33.75C35.1424 42 36.4777 41.4311 37.4623 40.4184C38.4469 39.4057 39 38.0322 39 36.6V11.4C39 9.96783 38.4469 8.59432 37.4623 7.58162C36.4777 6.56893 35.1424 6 33.75 6H16.25ZM16.25 13.2C16.25 12.7226 16.4344 12.2648 16.7626 11.9272C17.0908 11.5896 17.5359 11.4 18 11.4H32C32.4641 11.4 32.9093 11.5896 33.2374 11.9272C33.5656 12.2648 33.75 12.7226 33.75 13.2V20.4C33.75 20.8774 33.5656 21.3352 33.2374 21.6728C32.9093 22.0104 32.4641 22.2 32 22.2H18C17.5359 22.2 17.0908 22.0104 16.7626 21.6728C16.4344 21.3352 16.25 20.8774 16.25 20.4V13.2ZM18 25.8C17.5359 25.8 17.0908 25.9896 16.7626 26.3272C16.4344 26.6648 16.25 27.1226 16.25 27.6C16.25 28.0774 16.4344 28.5352 16.7626 28.8728C17.0908 29.2104 17.5359 29.4 18 29.4H18.0175C18.4816 29.4 18.9267 29.2104 19.2549 28.8728C19.5831 28.5352 19.7675 28.0774 19.7675 27.6C19.7675 27.1226 19.5831 26.6648 19.2549 26.3272C18.9267 25.9896 18.4816 25.8 18.0175 25.8H18ZM23.25 27.6C23.25 27.1226 23.4344 26.6648 23.7626 26.3272C24.0908 25.9896 24.5359 25.8 25 25.8H25.0175C25.4816 25.8 25.9267 25.9896 26.2549 26.3272C26.5831 26.6648 26.7675 27.1226 26.7675 27.6C26.7675 28.0774 26.5831 28.5352 26.2549 28.8728C25.9267 29.2104 25.4816 29.4 25.0175 29.4H25C24.5359 29.4 24.0908 29.2104 23.7626 28.8728C23.4344 28.5352 23.25 28.0774 23.25 27.6ZM25 31.2C24.5359 31.2 24.0908 31.3896 23.7626 31.7272C23.4344 32.0648 23.25 32.5226 23.25 33C23.25 33.4774 23.4344 33.9352 23.7626 34.2728C24.0908 34.6104 24.5359 34.8 25 34.8H25.0175C25.4816 34.8 25.9267 34.6104 26.2549 34.2728C26.5831 33.9352 26.7675 33.4774 26.7675 33C26.7675 32.5226 26.5831 32.0648 26.2549 31.7272C25.9267 31.3896 25.4816 31.2 25.0175 31.2H25ZM16.25 33C16.25 32.5226 16.4344 32.0648 16.7626 31.7272C17.0908 31.3896 17.5359 31.2 18 31.2H18.0175C18.4816 31.2 18.9267 31.3896 19.2549 31.7272C19.5831 32.0648 19.7675 32.5226 19.7675 33C19.7675 33.4774 19.5831 33.9352 19.2549 34.2728C18.9267 34.6104 18.4816 34.8 18.0175 34.8H18C17.5359 34.8 17.0908 34.6104 16.7626 34.2728C16.4344 33.9352 16.25 33.4774 16.25 33ZM33.75 27.6C33.75 27.1226 33.5656 26.6648 33.2374 26.3272C32.9093 25.9896 32.4641 25.8 32 25.8C31.5359 25.8 31.0908 25.9896 30.7626 26.3272C30.4344 26.6648 30.25 27.1226 30.25 27.6V33C30.25 33.4774 30.4344 33.9352 30.7626 34.2728C31.0908 34.6104 31.5359 34.8 32 34.8C32.4641 34.8 32.9093 34.6104 33.2374 34.2728C33.5656 33.9352 33.75 33.4774 33.75 33V27.6Z" fill="#36363D"/>
</g>
</svg>
