<svg width="48" height="48" viewBox="0 0 48 48" fill="none" xmlns="http://www.w3.org/2000/svg">
<g id="healthicons:money-bag" clip-path="url(#clip0_592_41495)">
<g id="Group">
<path id="Vector" fill-rule="evenodd" clip-rule="evenodd" d="M24.0397 6C19.5227 6 15.4077 7.492 12.9727 8.711C12.7527 8.821 12.5474 8.92833 12.3567 9.033C11.9787 9.239 11.6567 9.431 11.4007 9.6L14.1707 13.678L15.4747 14.197C20.5707 16.768 27.4047 16.768 32.5017 14.197L33.9817 13.429L36.6007 9.6C36.0576 9.24711 35.4936 8.92752 34.9117 8.643C32.4887 7.437 28.4717 6 24.0407 6M17.5987 10.616C16.6181 10.4314 15.6493 10.1883 14.6977 9.888C16.9787 8.875 20.3777 7.8 24.0407 7.8C26.5777 7.8 28.9767 8.316 30.9607 8.97C28.6357 9.297 26.1547 9.852 23.7907 10.535C21.9307 11.073 19.7567 11.015 17.5987 10.616ZM33.5587 15.68L33.3127 15.804C27.7067 18.632 20.2707 18.632 14.6647 15.804L14.4317 15.686C6.00871 24.927 -0.421286 41.997 24.0397 41.997C48.5007 41.997 41.9147 24.61 33.5587 15.68ZM23.0007 24C22.4703 24 21.9616 24.2107 21.5865 24.5858C21.2114 24.9609 21.0007 25.4696 21.0007 26C21.0007 26.5304 21.2114 27.0391 21.5865 27.4142C21.9616 27.7893 22.4703 28 23.0007 28V24ZM25.0007 22V21H23.0007V22C21.9398 22 20.9224 22.4214 20.1723 23.1716C19.4221 23.9217 19.0007 24.9391 19.0007 26C19.0007 27.0609 19.4221 28.0783 20.1723 28.8284C20.9224 29.5786 21.9398 30 23.0007 30V34C22.1307 34 21.3897 33.445 21.1137 32.667C21.0728 32.5397 21.0067 32.4219 20.9194 32.3206C20.8322 32.2193 20.7255 32.1365 20.6057 32.0772C20.4859 32.0178 20.3554 31.9831 20.2219 31.9751C20.0884 31.967 19.9547 31.9858 19.8286 32.0304C19.7026 32.0749 19.5867 32.1443 19.4879 32.2344C19.3891 32.3245 19.3094 32.4335 19.2535 32.5549C19.1975 32.6764 19.1665 32.8078 19.1623 32.9415C19.158 33.0751 19.1806 33.2082 19.2287 33.333C19.5044 34.1131 20.0152 34.7884 20.6908 35.2661C21.3663 35.7437 22.1734 36.0001 23.0007 36V37H25.0007V36C26.0616 36 27.079 35.5786 27.8291 34.8284C28.5793 34.0783 29.0007 33.0609 29.0007 32C29.0007 30.9391 28.5793 29.9217 27.8291 29.1716C27.079 28.4214 26.0616 28 25.0007 28V24C25.8707 24 26.6117 24.555 26.8877 25.333C26.9287 25.4603 26.9947 25.5781 27.082 25.6794C27.1692 25.7807 27.2759 25.8635 27.3958 25.9228C27.5156 25.9822 27.6461 26.0169 27.7795 26.0249C27.913 26.033 28.0467 26.0142 28.1728 25.9696C28.2989 25.9251 28.4147 25.8557 28.5135 25.7656C28.6123 25.6755 28.692 25.5665 28.748 25.4451C28.8039 25.3236 28.8349 25.1922 28.8392 25.0585C28.8434 24.9249 28.8208 24.7918 28.7727 24.667C28.497 23.8869 27.9862 23.2116 27.3106 22.7339C26.6351 22.2563 25.8281 21.9999 25.0007 22ZM25.0007 30V34C25.5311 34 26.0399 33.7893 26.4149 33.4142C26.79 33.0391 27.0007 32.5304 27.0007 32C27.0007 31.4696 26.79 30.9609 26.4149 30.5858C26.0399 30.2107 25.5311 30 25.0007 30Z" fill="#36363D"/>
</g>
</g>
<defs>
<clipPath id="clip0_592_41495">
<rect width="48" height="48" fill="white"/>
</clipPath>
</defs>
</svg>
