<svg width="49" height="48" viewBox="0 0 49 48" fill="none" xmlns="http://www.w3.org/2000/svg">
<g id="f7:desktopcomputer">
<g id="Group 688">
<g id="Group 689">
<path id="Vector" d="M28.1347 21.4714L20.231 15.8281C19.1244 15.0378 17.6543 15.0378 16.5636 15.8281L8.65986 21.4714C7.82206 22.0721 7.33203 23.0206 7.33203 24.048V36.6466C7.33203 37.5161 8.04337 38.2274 8.91278 38.2274H15.2358V28.7429H21.5588V38.2274H27.8818C28.7512 38.2274 29.4626 37.5161 29.4626 36.6466V24.048C29.4626 23.0206 28.9725 22.0721 28.1347 21.4714Z" fill="#36363D"/>
<path id="Vector_2" d="M37.8849 9.77246H23.5633C21.8403 9.77246 20.4492 11.1635 20.4492 12.8865L20.5915 13.0288C20.7179 13.1078 20.8444 13.1711 20.9709 13.2501L28.8746 18.8934C30.076 19.747 30.9296 21.0116 31.309 22.4185H34.676V25.58H31.5145V28.7415H34.676V31.903H31.5145V38.226H37.8849C39.6079 38.226 40.999 36.8349 40.999 35.1119V12.8865C40.999 11.1635 39.6079 9.77246 37.8849 9.77246ZM34.676 19.257H31.5145V16.0955H34.676V19.257Z" fill="#36363D"/>
</g>
</g>
</g>
</svg>
