<svg width="48" height="48" viewBox="0 0 48 48" fill="none" xmlns="http://www.w3.org/2000/svg">
<g id="f7:desktopcomputer">
<path id="Vector" d="M24.5 30.7592C22.4156 30.7592 20.4672 31.087 18.6547 31.7428C17.2281 32.2588 15.8858 32.9394 14.6276 33.7843C13.9808 34.2187 13.625 34.9626 13.625 35.7418C13.625 37.1287 14.7493 38.2531 16.1363 38.2531H32.8637C34.2507 38.2531 35.375 37.1287 35.375 35.7418C35.375 34.9626 35.0192 34.2187 34.3724 33.7843C33.1142 32.9394 31.7719 32.2588 30.3453 31.7428C28.5328 31.087 26.5844 30.7592 24.5 30.7592ZM13.625 42C12.6281 42 11.775 41.6334 11.0657 40.9003C10.3565 40.1671 10.0012 39.2847 10 38.2531V9.74694C10 8.71653 10.3552 7.83475 11.0657 7.1016C11.7762 6.36845 12.6293 6.00125 13.625 6H35.375C36.3719 6 37.2256 6.3672 37.9361 7.1016C38.6466 7.836 39.0012 8.71778 39 9.74694V38.2531C39 39.2835 38.6453 40.1659 37.9361 40.9003C37.2268 41.6347 36.3731 42.0012 35.375 42H13.625ZM24.5 27.0122C26.2521 27.0122 27.7474 26.3721 28.9859 25.0919C30.2245 23.8117 30.8437 22.2661 30.8437 20.4551C30.8437 18.6441 30.2245 17.0985 28.9859 15.8183C27.7474 14.5381 26.2521 13.898 24.5 13.898C22.7479 13.898 21.2526 14.5381 20.0141 15.8183C18.7755 17.0985 18.1562 18.6441 18.1562 20.4551C18.1562 22.2661 18.7755 23.8117 20.0141 25.0919C21.2526 26.3721 22.7479 27.0122 24.5 27.0122Z" fill="#36363D"/>
</g>
</svg>
