<svg width="49" height="48" viewBox="0 0 49 48" fill="none" xmlns="http://www.w3.org/2000/svg">
<g id="f7:desktopcomputer">
<path id="Vector" d="M25 5C14.512 5 6 13.512 6 24C6 34.488 14.512 43 25 43C35.488 43 44 34.488 44 24C44 13.512 35.488 5 25 5ZM27.679 35.571V36.673C27.679 38.06 26.539 39.2 25.152 39.2H25.133C23.746 39.2 22.606 38.06 22.606 36.673V35.533C20.079 35.001 17.837 33.614 16.887 31.277C16.45 30.232 17.267 29.073 18.407 29.073H18.863C19.566 29.073 20.136 29.548 20.402 30.213C20.953 31.638 22.397 32.626 25.171 32.626C28.895 32.626 29.731 30.764 29.731 29.605C29.731 28.028 28.895 26.546 24.658 25.539C19.946 24.399 16.716 22.461 16.716 18.566C16.716 15.298 19.357 13.17 22.625 12.467V11.327C22.625 9.94 23.765 8.8 25.152 8.8H25.171C26.558 8.8 27.698 9.94 27.698 11.327V12.505C30.32 13.151 31.973 14.785 32.695 16.799C33.075 17.844 32.277 18.946 31.156 18.946H30.662C29.959 18.946 29.389 18.452 29.199 17.768C28.762 16.324 27.565 15.393 25.171 15.393C22.321 15.393 20.611 16.685 20.611 18.509C20.611 20.105 21.846 21.15 25.684 22.138C29.522 23.126 33.626 24.779 33.626 29.567C33.588 33.044 30.985 34.944 27.679 35.571Z" fill="#36363D"/>
</g>
</svg>
