<svg width="49" height="48" viewBox="0 0 49 48" fill="none" xmlns="http://www.w3.org/2000/svg">
<g id="f7:desktopcomputer">
<path id="Vector" d="M41 31.1111V36.4444C41.0003 37.3415 40.6615 38.2055 40.0516 38.8632C39.4416 39.5209 38.6056 39.9238 37.7111 39.9911L37.4444 40H26.7778V31.1111H41ZM23.2222 20.4444V40H12.5556C11.6585 40.0003 10.7945 39.6615 10.1368 39.0516C9.47906 38.4416 9.07617 37.6056 9.00889 36.7111L9 36.4444V20.4444H23.2222ZM37.4444 8C38.3415 7.99972 39.2055 8.3385 39.8632 8.94844C40.5209 9.55838 40.9238 10.3944 40.9911 11.2889L41 11.5556V27.5556H26.7778V8H37.4444ZM23.2222 8V16.8889H9V11.5556C8.99972 10.6585 9.3385 9.79455 9.94844 9.1368C10.5584 8.47906 11.3944 8.07617 12.2889 8.00889L12.5556 8H23.2222Z" fill="#36363D"/>
</g>
</svg>
