<svg width="48" height="48" viewBox="0 0 48 48" fill="none" xmlns="http://www.w3.org/2000/svg">
<g id="f7:desktopcomputer">
<path id="Vector" fill-rule="evenodd" clip-rule="evenodd" d="M14 8C12.6739 8 11.4021 8.5619 10.4645 9.5621C9.52678 10.5623 9 11.9188 9 13.3333V34.6667C9 36.0812 9.52678 37.4377 10.4645 38.4379C11.4021 39.4381 12.6739 40 14 40H34C35.3261 40 36.5979 39.4381 37.5355 38.4379C38.4732 37.4377 39 36.0812 39 34.6667V13.3333C39 11.9188 38.4732 10.5623 37.5355 9.5621C36.5979 8.5619 35.3261 8 34 8H14ZM20.6667 16.8889C20.6667 16.4174 20.8423 15.9652 21.1548 15.6318C21.4674 15.2984 21.8913 15.1111 22.3333 15.1111H32.3333C32.7754 15.1111 33.1993 15.2984 33.5118 15.6318C33.8244 15.9652 34 16.4174 34 16.8889C34 17.3604 33.8244 17.8126 33.5118 18.146C33.1993 18.4794 32.7754 18.6667 32.3333 18.6667H22.3333C21.8913 18.6667 21.4674 18.4794 21.1548 18.146C20.8423 17.8126 20.6667 17.3604 20.6667 16.8889ZM20.6667 24C20.6667 23.5285 20.8423 23.0763 21.1548 22.7429C21.4674 22.4095 21.8913 22.2222 22.3333 22.2222H32.3333C32.7754 22.2222 33.1993 22.4095 33.5118 22.7429C33.8244 23.0763 34 23.5285 34 24C34 24.4715 33.8244 24.9237 33.5118 25.2571C33.1993 25.5905 32.7754 25.7778 32.3333 25.7778H22.3333C21.8913 25.7778 21.4674 25.5905 21.1548 25.2571C20.8423 24.9237 20.6667 24.4715 20.6667 24ZM20.6667 31.1111C20.6667 30.6396 20.8423 30.1874 21.1548 29.854C21.4674 29.5206 21.8913 29.3333 22.3333 29.3333H32.3333C32.7754 29.3333 33.1993 29.5206 33.5118 29.854C33.8244 30.1874 34 30.6396 34 31.1111C34 31.5826 33.8244 32.0348 33.5118 32.3682C33.1993 32.7016 32.7754 32.8889 32.3333 32.8889H22.3333C21.8913 32.8889 21.4674 32.7016 21.1548 32.3682C20.8423 32.0348 20.6667 31.5826 20.6667 31.1111ZM15.6667 15.1111C15.2246 15.1111 14.8007 15.2984 14.4882 15.6318C14.1756 15.9652 14 16.4174 14 16.8889C14 17.3604 14.1756 17.8126 14.4882 18.146C14.8007 18.4794 15.2246 18.6667 15.6667 18.6667C16.1087 18.6667 16.5343 18.4794 16.8468 18.146C17.1594 17.8126 17.335 17.3604 17.335 16.8889C17.335 16.4174 17.1594 15.9652 16.8468 15.6318C16.5343 15.2984 16.1087 15.1111 15.6667 15.1111ZM14 24C14 23.5285 14.1756 23.0763 14.4882 22.7429C14.8007 22.4095 15.2246 22.2222 15.6667 22.2222C16.1087 22.2222 16.5343 22.4095 16.8468 22.7429C17.1594 23.0763 17.335 23.5285 17.335 24C17.335 24.4715 17.1594 24.9237 16.8468 25.2571C16.5343 25.5905 16.1104 25.7778 15.6683 25.7778C15.2263 25.7778 14.8007 25.5905 14.4882 25.2571C14.1756 24.9237 14 24.4715 14 24ZM15.6667 29.3333C15.2246 29.3333 14.8007 29.5206 14.4882 29.854C14.1756 30.1874 14 30.6396 14 31.1111C14 31.5826 14.1756 32.0348 14.4882 32.3682C14.8007 32.7016 15.2246 32.8889 15.6667 32.8889C16.1087 32.8889 16.5343 32.7016 16.8468 32.3682C17.1594 32.0348 17.335 31.5826 17.335 31.1111C17.335 30.6396 17.1594 30.1874 16.8468 29.854C16.5343 29.5206 16.1087 29.3333 15.6667 29.3333Z" fill="#36363D"/>
</g>
</svg>
