<svg width="49" height="48" viewBox="0 0 49 48" fill="none" xmlns="http://www.w3.org/2000/svg">
<g id="f7:desktopcomputer">
<path id="Vector" d="M33.7503 7.4788C36.5407 9.08988 38.8618 11.4018 40.4841 14.1856C42.1063 16.9694 42.9734 20.1287 42.9994 23.3506C43.0254 26.5725 42.2095 29.7453 40.6325 32.555C39.0554 35.3647 36.7719 37.7137 34.0079 39.3697C31.244 41.0256 28.0955 41.931 24.8741 41.9962C21.6527 42.0614 18.4702 41.2842 15.6415 39.7414C12.8128 38.1986 10.4361 35.9439 8.74667 33.2003C7.05722 30.4567 6.11361 27.3195 6.00925 24.0992L6 23.4998L6.00925 22.9004C6.11286 19.7054 7.04258 16.5918 8.70777 13.8631C10.373 11.1344 12.7168 8.88379 15.5108 7.33058C18.3047 5.77738 21.4535 4.97464 24.6501 5.00061C27.8467 5.02659 30.982 5.8804 33.7503 7.4788ZM24.5002 12.3998C24.0471 12.3999 23.6097 12.5662 23.2711 12.8673C22.9325 13.1684 22.7162 13.5833 22.6632 14.0333L22.6502 14.2498V23.4998L22.6669 23.7421C22.709 24.0631 22.8347 24.3674 23.0313 24.6246L23.1923 24.8096L28.7423 30.3596L28.9162 30.5113C29.2407 30.763 29.6397 30.8996 30.0503 30.8996C30.4609 30.8996 30.8599 30.763 31.1844 30.5113L31.3583 30.3577L31.5118 30.1838C31.7635 29.8594 31.9002 29.4604 31.9002 29.0498C31.9002 28.6392 31.7635 28.2402 31.5118 27.9157L31.3583 27.7418L26.9358 23.3178C26.5609 22.9427 26.3503 22.4341 26.3503 21.9038V14.2498L26.3373 14.0333C26.2843 13.5833 26.068 13.1684 25.7293 12.8673C25.3907 12.5662 24.9534 12.3999 24.5002 12.3998Z" fill="#36363D"/>
</g>
</svg>
