<svg width="32" height="27" viewBox="0 0 32 27" fill="none" xmlns="http://www.w3.org/2000/svg">
<g clip-path="url(#clip0_1222_675)">
<path d="M8.4298 16.0991L9.90933 18.6587C11.7883 21.883 15.9233 22.9886 19.1604 21.1192C22.3974 19.2498 23.5095 15.118 21.6561 11.8778L20.1766 9.31496L8.4298 16.0959V16.0991Z" fill="#FAE100"/>
<path d="M3.74196 18.828C2.11863 19.7643 1.56581 21.8382 2.5021 23.4616C3.43839 25.0849 5.51228 25.6377 7.13561 24.7014C8.75894 23.7651 9.31176 21.6912 8.37547 20.0679L6.67865 17.1312L3.74196 18.828Z" fill="#E0E0E0"/>
<path d="M24.8868 6.61793C26.5101 5.68164 28.584 6.23767 29.5203 7.8578C30.4566 9.48112 29.9005 11.555 28.2804 12.4913C26.6571 13.4276 24.5832 12.8716 23.6469 11.2514L21.9501 8.31476L24.8868 6.61793Z" fill="#E0E0E0"/>
<path d="M9.89654 5.0713C6.65309 6.94388 5.54104 11.0917 7.41362 14.3351L19.1604 7.55422C17.2878 4.31077 13.14 3.19872 9.89654 5.0713Z" fill="white"/>
<path d="M10.0022 11.5773C10.586 11.2402 10.756 10.4416 10.3819 9.79358C10.0077 9.14554 9.23114 8.89346 8.64729 9.23055C8.06344 9.56763 7.89345 10.3662 8.2676 11.0143C8.64174 11.6623 9.41835 11.9144 10.0022 11.5773Z" fill="#262626"/>
<path d="M9.42041 9.95407C9.57042 9.95407 9.69203 9.83246 9.69203 9.68245C9.69203 9.53244 9.57042 9.41083 9.42041 9.41083C9.2704 9.41083 9.14879 9.53244 9.14879 9.68245C9.14879 9.83246 9.2704 9.95407 9.42041 9.95407Z" fill="white"/>
<path d="M15.4916 8.40704C16.0754 8.06995 16.2454 7.27135 15.8713 6.62331C15.4971 5.97527 14.7205 5.72319 14.1367 6.06027C13.5528 6.39736 13.3828 7.19596 13.757 7.844C14.1311 8.49204 14.9077 8.74412 15.4916 8.40704Z" fill="#262626"/>
<path d="M14.1402 7.22828C14.2902 7.22828 14.4118 7.10667 14.4118 6.95666C14.4118 6.80665 14.2902 6.68504 14.1402 6.68504C13.9902 6.68504 13.8686 6.80665 13.8686 6.95666C13.8686 7.10667 13.9902 7.22828 14.1402 7.22828Z" fill="white"/>
<path d="M23.8578 4.84122L20.9211 6.53805C19.3361 3.79309 16.5017 2.23367 13.5522 2.141V0.949071C13.5522 0.425005 13.1272 0 12.6032 0C12.0791 0 11.6541 0.425005 11.6541 0.949071V2.288C10.7018 2.46695 9.76553 2.79928 8.88037 3.31057C7.9984 3.81865 7.24745 4.46415 6.61793 5.19273L5.46435 4.52487C5.01058 4.26283 4.429 4.41941 4.16697 4.87318C3.90493 5.32694 4.06151 5.90853 4.51528 6.17056L5.53785 6.76173C4.13501 9.36289 4.06471 12.6064 5.65289 15.3545L2.7162 17.0513C0.12143 18.55 -0.766927 21.867 0.731775 24.4618C2.23048 27.0565 5.54743 27.9449 8.1422 26.4462C9.6409 25.5802 10.5676 24.1039 10.7977 22.5125C13.0697 24.0655 15.9904 24.5001 18.6619 23.5702L20.4993 24.4074C20.9563 24.6151 21.4835 24.3116 21.5347 23.8099L21.736 21.7328C23.7492 19.8858 24.7589 17.2271 24.5544 14.5684C26.0467 15.166 27.7883 15.1021 29.287 14.2361C31.8818 12.7374 32.7701 9.42041 31.2714 6.82564C29.7727 4.23088 26.4558 3.34252 23.861 4.84122H23.8578ZM8.13261 19.6525L8.36269 20.0519C9.29898 21.6753 8.74296 23.7492 7.12283 24.6854C5.4995 25.6217 3.4256 25.0657 2.48931 23.4456C1.55303 21.8254 2.10905 19.7484 3.72918 18.8121L6.66587 17.1152L8.13261 19.6525ZM9.89654 5.0713C13.14 3.19872 17.2878 4.31077 19.1604 7.55422L7.41362 14.3351C5.54104 11.0917 6.65309 6.94388 9.89654 5.0713ZM19.1604 21.1192C16.687 22.5476 13.6896 22.2345 11.5742 20.5696L22.4773 14.2744C22.8608 16.9395 21.6337 19.6908 19.1604 21.1192ZM21.8606 12.2804L10.1554 19.0389C10.0659 18.9079 9.97643 18.7769 9.89654 18.6363L8.4298 16.0991L20.1766 9.31815L21.6433 11.8554C21.7232 11.996 21.7935 12.1398 21.8606 12.2804ZM28.2676 12.4753C26.6443 13.4116 24.5704 12.8556 23.6341 11.2355L23.404 10.836L21.9373 8.29559L24.874 6.59876C26.4973 5.66247 28.5712 6.21849 29.5075 7.83863C30.4438 9.46195 29.8878 11.5358 28.2676 12.4721V12.4753Z" fill="#262626"/>
</g>
<defs>
<clipPath id="clip0_1222_675">
<rect width="32" height="27.1748" fill="white"/>
</clipPath>
</defs>
</svg>
