<svg width="150" height="31" viewBox="0 0 150 31" fill="none" xmlns="http://www.w3.org/2000/svg">
<g id="Layer_1" clip-path="url(#clip0_592_42448)">
<g id="Group">
<path id="Vector" d="M9.46692 18.0788L11.1295 20.9554C13.2405 24.5795 17.8813 25.8175 21.5174 23.7183C25.1535 21.6192 26.4034 16.9785 24.3162 13.3424L22.6537 10.4658L9.46094 18.0788H9.46692Z" fill="#FAE100"/>
<path id="Vector_2" d="M4.19834 21.141C2.37432 22.1936 1.75236 24.5199 2.80491 26.3439C3.85746 28.168 6.18382 28.7899 8.00784 27.7374C9.83186 26.6848 10.4538 24.3585 9.40127 22.5344L7.49951 19.2393L4.20432 21.141H4.19834Z" fill="#E0E0E0"/>
<path id="Vector_3" d="M27.9456 7.43349C29.7696 6.38094 32.096 7.00888 33.1485 8.82691C34.2011 10.6509 33.5731 12.9773 31.7551 14.0298C29.9311 15.0824 27.6047 14.4544 26.5522 12.6364L24.6504 9.34123L27.9456 7.43947V7.43349Z" fill="#E0E0E0"/>
<path id="Vector_4" d="M11.1122 5.69335C7.47011 7.79844 6.22021 12.4512 8.32531 16.0992L21.518 8.48619C19.4129 4.84414 14.7602 3.59424 11.1122 5.69933V5.69335Z" fill="white"/>
<g id="Group_2">
<g id="Group_3">
<path id="Vector_5" d="M11.2364 13.0035C11.8914 12.6253 12.0811 11.7275 11.6599 10.9981C11.2388 10.2687 10.3664 9.98394 9.71142 10.3621C9.05639 10.7403 8.86677 11.6382 9.28789 12.3676C9.70901 13.097 10.5814 13.3817 11.2364 13.0035Z" fill="#262626"/>
<path id="Vector_6" d="M10.5784 11.1764C10.7469 11.1764 10.8834 11.0399 10.8834 10.8714C10.8834 10.703 10.7469 10.5664 10.5784 10.5664C10.41 10.5664 10.2734 10.703 10.2734 10.8714C10.2734 11.0399 10.41 11.1764 10.5784 11.1764Z" fill="white"/>
</g>
<g id="Group_4">
<path id="Vector_7" d="M17.3927 9.44978C18.0477 9.0716 18.2373 8.17374 17.8162 7.44434C17.3951 6.71495 16.5227 6.43023 15.8677 6.80841C15.2126 7.18659 15.023 8.08446 15.4441 8.81385C15.8653 9.54325 16.7376 9.82796 17.3927 9.44978Z" fill="#262626"/>
<path id="Vector_8" d="M15.8773 8.11488C16.0457 8.11488 16.1823 7.97833 16.1823 7.80988C16.1823 7.64144 16.0457 7.50488 15.8773 7.50488C15.7088 7.50488 15.5723 7.64144 15.5723 7.80988C15.5723 7.97833 15.7088 8.11488 15.8773 8.11488Z" fill="white"/>
</g>
</g>
<path id="Vector_9" d="M26.7926 5.43616L23.4974 7.33792C21.7213 4.25803 18.5337 2.50578 15.2206 2.40411V1.06451C15.2206 0.47843 14.7421 0 14.1561 0C13.57 0 13.0916 0.47843 13.0916 1.06451V2.56558C12.0211 2.76891 10.9685 3.1397 9.97578 3.71381C8.98901 4.28793 8.1398 5.00557 7.43411 5.82489L6.13637 5.07734C5.62804 4.7843 4.97617 4.95773 4.67716 5.46606C4.38412 5.9744 4.55755 6.62626 5.06588 6.92527L6.21411 7.5891C4.64127 10.5135 4.56353 14.1555 6.34568 17.2414L3.05049 19.1432C0.138043 20.8237 -0.860682 24.5494 0.819806 27.4679C2.50029 30.3803 6.22607 31.379 9.1445 29.6985C10.831 28.7237 11.8656 27.0672 12.1227 25.285C14.6764 27.0313 17.9536 27.5157 20.9558 26.4751L23.019 27.414C23.5333 27.6473 24.1254 27.3064 24.1792 26.7442L24.4064 24.4119C26.667 22.3367 27.7973 19.3525 27.5701 16.3683C29.2446 17.0381 31.2002 16.9663 32.8866 15.9975C35.7991 14.317 36.7978 10.5912 35.1173 7.67282C33.4368 4.76038 29.711 3.76166 26.7926 5.44214V5.43616ZM9.13254 22.0676L9.3897 22.5161C10.4422 24.3401 9.81431 26.6665 7.99627 27.719C6.17225 28.7716 3.84588 28.1436 2.79333 26.3256C1.74079 24.5016 2.36873 22.1752 4.18676 21.1227L7.48196 19.2209L9.12656 22.0736L9.13254 22.0676ZM11.112 5.69332C14.7541 3.58823 19.4128 4.83812 21.5179 8.48017L8.32519 16.0932C6.22009 12.4511 7.46999 7.79243 11.112 5.68734V5.69332ZM21.5179 23.7122C18.737 25.3149 15.3761 24.9681 12.9959 23.0962L25.2377 16.0274C25.6683 19.0176 24.2928 22.1094 21.5119 23.7122H21.5179ZM24.55 13.7907L11.4051 21.3798C11.3034 21.2303 11.2018 21.0868 11.112 20.9253L9.46744 18.0727L22.6602 10.4597L24.3048 13.3123C24.3945 13.4678 24.4722 13.6293 24.55 13.7907ZM31.7444 14.012C29.9204 15.0646 27.594 14.4366 26.5414 12.6186L26.2843 12.1701L24.6397 9.31742L27.9349 7.41567C29.7589 6.36312 32.0853 6.99106 33.1378 8.80909C34.1904 10.6331 33.5624 12.9595 31.7444 14.012Z" fill="#262626"/>
</g>
<g id="Group_5">
<path id="Vector_10" d="M46.8735 7.76299C46.8735 7.33839 47.023 7.02741 47.3161 6.83006C47.6091 6.6327 47.95 6.53702 48.3268 6.53702C48.7035 6.53702 49.0444 6.63868 49.3374 6.83006C49.6305 7.02741 49.78 7.33839 49.78 7.76299V11.0103C49.78 11.9194 49.8817 12.7028 50.073 13.3487C50.2704 14.0005 50.6113 14.6225 51.0957 15.2145C51.4425 15.6571 51.7954 16.0697 52.1542 16.4644C52.513 16.8591 52.818 17.2 53.0752 17.4871C53.3323 17.7622 53.434 18.0791 53.3802 18.4439C53.3264 18.8088 53.1768 19.0958 52.9376 19.3051C52.6805 19.5324 52.3755 19.652 52.0286 19.658C51.6818 19.6639 51.3768 19.5384 51.1196 19.2812C50.9402 19.0838 50.701 18.8267 50.4139 18.5097C50.1269 18.1928 49.8458 17.8639 49.5707 17.5349C49.3434 17.2598 49.1521 17.0206 49.0025 16.8053C48.853 16.596 48.7274 16.4046 48.6377 16.2491C48.548 16.0877 48.4763 15.9501 48.4344 15.8305C48.3866 15.7109 48.3567 15.5913 48.3447 15.4657H48.3208C48.2729 15.7229 48.1713 16.0099 48.0158 16.3269C47.8543 16.6439 47.5433 17.0864 47.0709 17.6426C46.7958 17.9775 46.5087 18.3184 46.1977 18.6652C45.8868 19.0121 45.5638 19.3649 45.2289 19.7118C44.9718 19.9689 44.6608 20.0886 44.296 20.0646C43.9312 20.0407 43.6381 19.9151 43.4109 19.6879C43.1537 19.4307 43.0042 19.1257 42.9564 18.7669C42.9085 18.4081 43.0162 18.0911 43.2733 17.7981C43.68 17.3615 44.0747 16.9249 44.4574 16.5003C44.8342 16.0757 45.199 15.6451 45.5459 15.2026C46.0303 14.6105 46.3712 13.9886 46.5685 13.3367C46.7659 12.6848 46.8616 11.9074 46.8616 10.9984V7.75103L46.8735 7.76299ZM54.3729 6.69849C54.3729 6.30378 54.5105 6.01672 54.7796 5.83731C55.0547 5.6579 55.3597 5.56222 55.7125 5.56222C56.0654 5.56222 56.3465 5.65192 56.6215 5.83731C56.8966 6.01672 57.0282 6.30976 57.0282 6.69849V23.1086C57.0282 23.5033 56.8907 23.7904 56.6215 23.9698C56.3465 24.1492 56.0474 24.2449 55.7125 24.2449C55.3776 24.2449 55.0547 24.1552 54.7796 23.9698C54.5045 23.7904 54.3729 23.4974 54.3729 23.1086V13.7673H52.6924C52.3456 13.7673 52.0884 13.6477 51.921 13.4025C51.7535 13.1633 51.6698 12.8643 51.6698 12.5174C51.6698 12.1705 51.7535 11.8715 51.921 11.6323C52.0884 11.3931 52.3456 11.2675 52.6924 11.2675H54.3729V6.69849ZM58.5054 6.47123C58.5054 6.07653 58.6429 5.78947 58.912 5.61006C59.1871 5.43065 59.4921 5.33496 59.845 5.33496C60.1978 5.33496 60.5028 5.42467 60.7779 5.61006C61.053 5.78947 61.1846 6.08251 61.1846 6.47123V24.0595C61.1846 24.4542 61.047 24.7413 60.7779 24.9207C60.5028 25.1001 60.1978 25.1958 59.845 25.1958C59.4921 25.1958 59.1871 25.1061 58.912 24.9207C58.6369 24.7413 58.5054 24.4482 58.5054 24.0595V6.47123Z" fill="white"/>
<path id="Vector_11" d="M64.5988 19.6277C64.252 19.6277 63.9948 19.5081 63.8274 19.2629C63.6599 19.0237 63.5762 18.7307 63.5762 18.4018C63.5762 18.0728 63.6599 17.7798 63.8274 17.5406C63.9948 17.3014 64.252 17.1758 64.5988 17.1758H81.7805C82.1273 17.1758 82.3845 17.2954 82.5519 17.5406C82.7194 17.7858 82.8031 18.0728 82.8031 18.4018C82.8031 18.7307 82.7194 19.0237 82.5519 19.2629C82.3845 19.5081 82.1273 19.6277 81.7805 19.6277H74.6459V25.5603C74.6459 25.9849 74.4964 26.2959 74.2033 26.4932C73.9103 26.6906 73.5694 26.7863 73.1926 26.7863C72.8159 26.7863 72.475 26.6846 72.1819 26.4932C71.8889 26.2959 71.7394 25.9849 71.7394 25.5603V19.6277H64.6048H64.5988ZM67.9837 15.0587C67.2541 15.0587 66.7518 14.9212 66.4707 14.6521C66.1896 14.377 66.0521 13.8866 66.0521 13.1749V8.1514C66.0521 7.43973 66.1896 6.94934 66.4707 6.67424C66.7518 6.39915 67.2541 6.26758 67.9837 6.26758H78.3896C79.1192 6.26758 79.6215 6.40513 79.9026 6.67424C80.1837 6.94934 80.3212 7.43973 80.3212 8.1514V13.1749C80.3212 13.8866 80.1837 14.377 79.9026 14.6521C79.6215 14.9272 79.1192 15.0587 78.3896 15.0587H67.9837ZM76.8706 12.6068C77.2174 12.6068 77.3909 12.4333 77.3909 12.0865V9.24581C77.3909 8.89894 77.2174 8.72551 76.8706 8.72551H69.5087C69.1619 8.72551 68.9884 8.89894 68.9884 9.24581V12.0865C68.9884 12.4333 69.1619 12.6068 69.5087 12.6068H76.8706Z" fill="white"/>
<path id="Vector_12" d="M91.7319 10.7891C91.7319 11.2436 91.7618 11.6622 91.8216 12.039C91.8814 12.4157 91.9831 12.7805 92.1147 13.1274C92.2522 13.4743 92.4316 13.8151 92.6469 14.1381C92.8682 14.461 93.1373 14.8019 93.4543 15.1488C93.861 15.5853 94.2796 16.0219 94.6922 16.4465C95.1108 16.8711 95.4936 17.2359 95.8405 17.5349C96.1275 17.7921 96.2411 18.0971 96.1813 18.4559C96.1215 18.8147 95.978 19.1138 95.7508 19.353C95.6431 19.4606 95.5175 19.5503 95.362 19.6281C95.2125 19.7058 95.057 19.7536 94.8956 19.7776C94.7341 19.8015 94.5786 19.7895 94.4171 19.7417C94.2557 19.6938 94.1121 19.6161 93.9746 19.4905C93.6696 19.2154 93.3407 18.9044 92.9878 18.5456C92.629 18.1928 92.2702 17.816 91.9054 17.4213C91.3013 16.7874 90.8887 16.309 90.6674 15.992C90.4462 15.675 90.3146 15.3999 90.2667 15.1727H90.2428C90.2129 15.3102 90.1651 15.4478 90.1053 15.5793C90.0455 15.7109 89.9498 15.8724 89.8242 16.0578C89.6986 16.2372 89.5312 16.4465 89.3338 16.6738C89.1364 16.901 88.8853 17.1761 88.5863 17.4931C88.2215 17.8878 87.8447 18.2705 87.4619 18.6533C87.0732 19.03 86.6546 19.4307 86.2001 19.8553C85.913 20.1125 85.5901 20.1902 85.2313 20.0945C84.8724 19.9988 84.5914 19.8314 84.382 19.6041C84.1548 19.347 84.0352 19.042 84.0172 18.6951C83.9993 18.3483 84.1309 18.0433 84.406 17.7861C85.3449 16.9249 86.224 16.0458 87.0433 15.1488C87.3603 14.8019 87.6294 14.461 87.8507 14.1381C88.0719 13.8151 88.2513 13.4743 88.3829 13.1274C88.5205 12.7805 88.6162 12.4157 88.676 12.039C88.7358 11.6622 88.7657 11.2436 88.7657 10.7891V7.65535C88.7657 7.21878 88.9152 6.89584 89.2082 6.69849C89.5012 6.50113 89.8481 6.40545 90.2428 6.40545C90.6375 6.40545 90.9784 6.50711 91.2774 6.69849C91.5705 6.89584 91.72 7.2128 91.72 7.65535V10.7891H91.7319ZM102.592 12.039C102.957 12.039 103.22 12.1586 103.388 12.4038C103.555 12.649 103.639 12.942 103.639 13.2889C103.639 13.6357 103.555 13.9347 103.388 14.1859C103.22 14.4371 102.957 14.5627 102.592 14.5627H100.457V23.9698C100.457 24.3944 100.308 24.7054 100.015 24.9028C99.7217 25.1001 99.3808 25.1958 99.0041 25.1958C98.6273 25.1958 98.2864 25.0941 97.9934 24.9028C97.7004 24.7054 97.5508 24.3944 97.5508 23.9698V6.56094C97.5508 6.13633 97.7004 5.82535 97.9934 5.628C98.2864 5.43065 98.6273 5.33496 99.0041 5.33496C99.3808 5.33496 99.7217 5.43663 100.015 5.628C100.308 5.82535 100.457 6.13633 100.457 6.56094V12.039H102.592Z" fill="white"/>
<path id="Vector_13" d="M117.64 10.7891C117.64 11.2436 117.67 11.6622 117.73 12.039C117.79 12.4157 117.891 12.7805 118.023 13.1274C118.16 13.4743 118.34 13.8151 118.555 14.1381C118.776 14.461 119.045 14.8019 119.362 15.1488C119.769 15.5853 120.182 16.0219 120.6 16.4465C121.019 16.8711 121.402 17.2359 121.749 17.5349C122.036 17.7921 122.149 18.0971 122.089 18.4559C122.03 18.8147 121.886 19.1138 121.659 19.353C121.551 19.4606 121.426 19.5503 121.27 19.6281C121.115 19.7058 120.965 19.7536 120.804 19.7776C120.642 19.8015 120.487 19.7895 120.325 19.7417C120.164 19.6938 120.02 19.6161 119.883 19.4905C119.578 19.2154 119.249 18.9044 118.896 18.5456C118.537 18.1928 118.178 17.816 117.819 17.4213C117.215 16.7874 116.803 16.309 116.581 15.992C116.36 15.675 116.229 15.3999 116.181 15.1727H116.157C116.127 15.3102 116.079 15.4478 116.019 15.5793C115.96 15.7109 115.864 15.8724 115.738 16.0578C115.607 16.2372 115.445 16.4465 115.248 16.6738C115.051 16.901 114.799 17.1761 114.5 17.4931C114.136 17.8878 113.759 18.2705 113.376 18.6533C112.993 19.036 112.569 19.4307 112.114 19.8553C111.827 20.1125 111.504 20.1902 111.151 20.0945C110.792 19.9988 110.511 19.8314 110.296 19.6041C110.069 19.347 109.949 19.042 109.931 18.6951C109.913 18.3483 110.045 18.0433 110.32 17.7861C111.259 16.9249 112.138 16.0458 112.957 15.1488C113.274 14.8019 113.543 14.461 113.765 14.1381C113.986 13.8151 114.165 13.4743 114.297 13.1274C114.435 12.7805 114.53 12.4157 114.59 12.039C114.65 11.6622 114.68 11.2436 114.68 10.7891V7.65535C114.68 7.21878 114.829 6.89584 115.122 6.69849C115.415 6.50113 115.762 6.40545 116.157 6.40545C116.552 6.40545 116.892 6.50711 117.191 6.69849C117.485 6.89584 117.634 7.2128 117.634 7.65535V10.7891H117.64ZM128.5 12.039C128.865 12.039 129.128 12.1586 129.296 12.4038C129.463 12.649 129.547 12.942 129.547 13.2889C129.547 13.6357 129.463 13.9347 129.296 14.1859C129.128 14.4371 128.865 14.5627 128.5 14.5627H126.365V23.9698C126.365 24.3944 126.216 24.7054 125.923 24.9028C125.63 25.1001 125.289 25.1958 124.912 25.1958C124.535 25.1958 124.195 25.0941 123.901 24.9028C123.608 24.7054 123.459 24.3944 123.459 23.9698V6.56094C123.459 6.13633 123.608 5.82535 123.901 5.628C124.195 5.43065 124.535 5.33496 124.912 5.33496C125.289 5.33496 125.63 5.43663 125.923 5.628C126.216 5.81937 126.365 6.13633 126.365 6.56094V12.039H128.5Z" fill="white"/>
<path id="Vector_14" d="M138.792 6.35761C139.522 6.35761 140.024 6.49515 140.305 6.76427C140.586 7.03937 140.724 7.52976 140.724 8.24142V11.1718C140.724 11.8835 140.586 12.3739 140.305 12.649C140.024 12.9241 139.522 13.0556 138.792 13.0556H134.474C134.128 13.0556 133.954 13.2291 133.954 13.5759V14.5746C133.954 14.9215 134.128 15.0949 134.474 15.0949C135.808 15.0949 137.064 15.0591 138.236 14.9933C139.408 14.9275 140.551 14.8139 141.657 14.6643C142.004 14.6165 142.279 14.7002 142.488 14.9155C142.692 15.1248 142.811 15.388 142.841 15.687C142.871 16.0219 142.823 16.3209 142.704 16.584C142.584 16.8472 142.357 17.0027 142.022 17.0505C141.549 17.1103 141.035 17.1701 140.467 17.2239C139.899 17.2778 139.253 17.3256 138.523 17.3735C137.8 17.4213 136.98 17.4512 136.083 17.4751C135.18 17.499 134.169 17.511 133.051 17.511C132.322 17.511 131.819 17.3735 131.538 17.1043C131.257 16.8352 131.12 16.3389 131.12 15.6272V12.6729C131.12 11.9612 131.257 11.4708 131.538 11.1957C131.819 10.9206 132.322 10.7891 133.051 10.7891H137.369C137.716 10.7891 137.889 10.6156 137.889 10.2688V9.29397C137.889 8.94711 137.716 8.77368 137.369 8.77368H132.076C131.73 8.77368 131.478 8.65407 131.329 8.40887C131.179 8.16966 131.102 7.88858 131.102 7.56564C131.102 7.2427 131.179 6.9676 131.329 6.72241C131.478 6.48319 131.73 6.35761 132.076 6.35761H138.804H138.792ZM133.476 22.7618C133.476 21.3683 134.068 20.3457 135.258 19.6938C136.448 19.042 138.087 18.719 140.18 18.719C142.273 18.719 143.912 19.048 145.102 19.7058C146.292 20.3636 146.884 21.3863 146.884 22.7618C146.884 24.1373 146.292 25.1778 145.102 25.8297C143.912 26.4816 142.273 26.8045 140.18 26.8045C138.087 26.8045 136.448 26.4816 135.258 25.8297C134.068 25.1778 133.476 24.1552 133.476 22.7618ZM144.001 22.7618C144.001 22.2295 143.714 21.8049 143.14 21.488C142.566 21.171 141.579 21.0095 140.186 21.0095C138.792 21.0095 137.806 21.171 137.231 21.488C136.657 21.8049 136.37 22.2295 136.37 22.7618C136.37 23.294 136.657 23.7186 137.231 24.0356C137.806 24.3526 138.792 24.514 140.186 24.514C141.579 24.514 142.566 24.3526 143.14 24.0356C143.714 23.7186 144.001 23.294 144.001 22.7618ZM148.953 10.5618C149.318 10.5618 149.581 10.6814 149.748 10.9266C149.916 11.1718 150 11.4648 150 11.8117C150 12.1586 149.916 12.4576 149.748 12.7088C149.581 12.9599 149.318 13.0855 148.953 13.0855H146.818V17.3137C146.818 17.7383 146.668 18.0492 146.375 18.2466C146.082 18.4439 145.742 18.5396 145.365 18.5396C144.988 18.5396 144.647 18.4439 144.354 18.2466C144.061 18.0492 143.912 17.7383 143.912 17.3137V6.56094C143.912 6.13633 144.061 5.82535 144.354 5.628C144.647 5.43065 144.988 5.33496 145.365 5.33496C145.742 5.33496 146.082 5.43663 146.375 5.628C146.668 5.82535 146.818 6.13633 146.818 6.56094V10.5618H148.953Z" fill="white"/>
</g>
</g>
<defs>
<clipPath id="clip0_592_42448">
<rect width="150" height="30.5119" fill="white"/>
</clipPath>
</defs>
</svg>
