<svg width="150" height="31" viewBox="0 0 150 31" fill="none" xmlns="http://www.w3.org/2000/svg">
<path d="M20.0002 14.499H22.0002C22.0002 9.369 18.1272 5.5 12.9902 5.5V7.5C17.0522 7.5 20.0002 10.443 20.0002 14.499Z" fill="#36363D"/>
<path d="M13.0003 11.5022C15.1033 11.5022 16.0003 12.3992 16.0003 14.5022H18.0003C18.0003 11.2772 16.2253 9.50219 13.0003 9.50219V11.5022ZM16.4223 16.9452C16.2301 16.7705 15.9776 16.6774 15.7181 16.6854C15.4585 16.6934 15.2123 16.802 15.0313 16.9882L12.6383 19.4492C12.0623 19.3392 10.9043 18.9782 9.71228 17.7892C8.52028 16.5962 8.15928 15.4352 8.05228 14.8632L10.5113 12.4692C10.6977 12.2883 10.8064 12.042 10.8144 11.7824C10.8225 11.5228 10.7292 11.2702 10.5543 11.0782L6.85928 7.01519C6.68432 6.82255 6.44116 6.7057 6.18143 6.68945C5.92171 6.67321 5.66588 6.75885 5.46828 6.92819L3.29828 8.78919C3.12539 8.96271 3.0222 9.19364 3.00828 9.43819C2.99328 9.68819 2.70728 15.6102 7.29928 20.2042C11.3053 24.2092 16.3233 24.5022 17.7053 24.5022C17.9073 24.5022 18.0313 24.4962 18.0643 24.4942C18.3088 24.4805 18.5396 24.3769 18.7123 24.2032L20.5723 22.0322C20.7417 21.8347 20.8276 21.579 20.8115 21.3192C20.7954 21.0595 20.6788 20.8163 20.4863 20.6412L16.4223 16.9452Z" fill="#36363D"/>
<path d="M38.2969 7.03125V24H35.2266V10.0078H35.1328L31.1719 12.5391V9.75L35.3672 7.03125H38.2969ZM47.9653 24.2344C44.5669 24.2344 42.0825 22.2188 41.9888 19.4062H44.9653C45.0591 20.7891 46.3481 21.7734 47.9653 21.7734C49.8638 21.7734 51.2231 20.3906 51.2231 18.5156C51.2231 16.5703 49.8169 15.1875 47.8716 15.1875C46.5591 15.1641 45.5981 15.6328 45.0591 16.6406H42.2231L43.2544 7.03125H53.2856V9.58594H45.7622L45.2466 14.0859H45.4106C46.0669 13.3359 47.3091 12.7969 48.6919 12.7969C51.8559 12.7969 54.1763 15.1641 54.1763 18.4219C54.1763 21.8203 51.6216 24.2344 47.9653 24.2344ZM62.4384 24.2344C58.8056 24.2344 56.2275 22.2656 56.1572 19.4062H59.2275C59.3213 20.7656 60.6806 21.6562 62.4384 21.6562C64.3134 21.6562 65.6494 20.625 65.6494 19.125C65.6494 17.6016 64.3369 16.5 62.1338 16.5H60.6103V14.1562H62.1338C63.9384 14.1562 65.2041 13.1484 65.1806 11.6719C65.2041 10.2422 64.1259 9.28125 62.4619 9.28125C60.8681 9.28125 59.4853 10.1719 59.4384 11.6016H56.5088C56.5791 8.74219 59.1572 6.79688 62.4853 6.79688C65.9306 6.79688 68.1572 8.90625 68.1338 11.5078C68.1572 13.4062 66.8916 14.7891 65.04 15.1641V15.3047C67.4306 15.6328 68.79 17.1562 68.7666 19.2891C68.79 22.1484 66.1181 24.2344 62.4384 24.2344ZM77.1225 24.2344C73.4897 24.2344 70.9116 22.2656 70.8413 19.4062H73.9116C74.0053 20.7656 75.3647 21.6562 77.1225 21.6562C78.9975 21.6562 80.3334 20.625 80.3334 19.125C80.3334 17.6016 79.0209 16.5 76.8178 16.5H75.2944V14.1562H76.8178C78.6225 14.1562 79.8881 13.1484 79.8647 11.6719C79.8881 10.2422 78.81 9.28125 77.1459 9.28125C75.5522 9.28125 74.1694 10.1719 74.1225 11.6016H71.1928C71.2631 8.74219 73.8413 6.79688 77.1694 6.79688C80.6147 6.79688 82.8413 8.90625 82.8178 11.5078C82.8413 13.4062 81.5756 14.7891 79.7241 15.1641V15.3047C82.1147 15.6328 83.4741 17.1562 83.4506 19.2891C83.4741 22.1484 80.8022 24.2344 77.1225 24.2344ZM93.3769 14.2969V16.7578H85.7363V14.2969H93.3769ZM102.155 24.2344C98.85 24.2109 95.5219 22.2422 95.5453 15.9844C95.5453 10.1719 98.1937 6.79688 102.342 6.79688C105.623 6.79688 107.873 8.85938 108.248 11.6016H105.225C104.92 10.3125 103.889 9.44531 102.342 9.44531C99.8812 9.44531 98.4984 11.625 98.4984 15.1875H98.6625C99.5297 13.7344 101.17 12.8672 103.022 12.8672C106.069 12.8672 108.412 15.1641 108.412 18.375C108.412 21.75 105.905 24.2578 102.155 24.2344ZM102.155 21.7734C104.053 21.7734 105.459 20.2969 105.459 18.4453C105.459 16.6406 104.077 15.1875 102.202 15.1875C100.303 15.1875 98.85 16.6875 98.8266 18.4688C98.85 20.25 100.233 21.7734 102.155 21.7734ZM116.768 24.2344C112.69 24.2344 110.253 21.0703 110.253 15.5156C110.253 9.98438 112.69 6.79688 116.768 6.79688C120.823 6.79688 123.284 9.98438 123.284 15.5156C123.284 21.0703 120.847 24.2344 116.768 24.2344ZM116.768 21.6797C118.901 21.6797 120.214 19.5938 120.214 15.5156C120.214 11.4609 118.878 9.32812 116.768 9.32812C114.659 9.32812 113.323 11.4609 113.323 15.5156C113.323 19.5938 114.636 21.6797 116.768 21.6797ZM131.382 6.79688C134.71 6.82031 137.992 8.78906 138.015 15C138.015 20.8594 135.367 24.2344 131.195 24.2344C127.913 24.2344 125.663 22.1953 125.288 19.3828H128.312C128.617 20.7188 129.648 21.5859 131.195 21.5859C133.656 21.5859 135.038 19.4062 135.062 15.7734H134.874C134.007 17.25 132.39 18.1172 130.515 18.1172C127.492 18.1172 125.148 15.8203 125.124 12.6094C125.124 9.28125 127.609 6.77344 131.382 6.79688ZM131.406 9.25781C129.507 9.25781 128.077 10.7344 128.101 12.5391C128.101 14.3672 129.46 15.7969 131.359 15.7969C133.234 15.7969 134.71 14.2734 134.687 12.5156C134.687 10.7812 133.304 9.25781 131.406 9.25781ZM146.957 7.03125V24H143.887V10.0078H143.793L139.832 12.5391V9.75L144.027 7.03125H146.957Z" fill="#36363D"/>
</svg>
