<svg width="180" height="37" viewBox="0 0 180 37" fill="none" xmlns="http://www.w3.org/2000/svg">
<g id="Layer_1" clip-path="url(#clip0_592_42567)">
<g id="Group">
<path id="Vector" d="M11.3607 21.6942L13.3557 25.1461C15.889 29.495 21.458 30.9806 25.8213 28.4616C30.1845 25.9427 31.6844 20.3738 29.1798 16.0105L27.1848 12.5586L11.3535 21.6942H11.3607Z" fill="#FAE100"/>
<path id="Vector_2" d="M5.03644 25.368C2.84762 26.6311 2.10127 29.4227 3.36433 31.6116C4.62738 33.8004 7.41903 34.5467 9.60785 33.2837C11.7967 32.0206 12.543 29.229 11.28 27.0402L8.99785 23.0859L5.04362 25.368H5.03644Z" fill="#E0E0E0"/>
<path id="Vector_3" d="M33.5343 8.9194C35.7231 7.65635 38.5148 8.40987 39.7778 10.5915C41.0409 12.7803 40.2874 15.572 38.1057 16.835C35.9169 18.0981 33.1252 17.3446 31.8622 15.1629L29.5801 11.2087L33.5343 8.92658V8.9194Z" fill="#E0E0E0"/>
<path id="Vector_4" d="M13.333 6.83124C8.96257 9.35735 7.46269 14.9406 9.98881 19.3183L25.8201 10.1826C23.294 5.81218 17.7107 4.3123 13.333 6.83842V6.83124Z" fill="white"/>
<g id="Group_2">
<g id="Group_3">
<path id="Vector_5" d="M13.4837 15.6058C14.2697 15.1519 14.4973 14.0745 13.9919 13.1992C13.4866 12.324 12.4397 11.9823 11.6537 12.4361C10.8677 12.8899 10.6401 13.9674 11.1455 14.8426C11.6508 15.7179 12.6977 16.0596 13.4837 15.6058Z" fill="#262626"/>
<path id="Vector_6" d="M12.6941 13.4136C12.8963 13.4136 13.0601 13.2498 13.0601 13.0476C13.0601 12.8455 12.8963 12.6816 12.6941 12.6816C12.492 12.6816 12.3281 12.8455 12.3281 13.0476C12.3281 13.2498 12.492 13.4136 12.6941 13.4136Z" fill="white"/>
</g>
<g id="Group_4">
<path id="Vector_7" d="M20.8724 11.3401C21.6584 10.8863 21.8859 9.80888 21.3806 8.9336C20.8753 8.05833 19.8284 7.71667 19.0424 8.17048C18.2563 8.6243 18.0288 9.70174 18.5341 10.577C19.0395 11.4523 20.0863 11.7939 20.8724 11.3401Z" fill="#262626"/>
<path id="Vector_8" d="M19.0535 9.73786C19.2556 9.73786 19.4195 9.57399 19.4195 9.37186C19.4195 9.16972 19.2556 9.00586 19.0535 9.00586C18.8514 9.00586 18.6875 9.16972 18.6875 9.37186C18.6875 9.57399 18.8514 9.73786 19.0535 9.73786Z" fill="white"/>
</g>
</g>
<path id="Vector_9" d="M32.1504 6.5234L28.1961 8.80551C26.0647 5.10963 22.2397 3.00693 18.2639 2.88493V1.27741C18.2639 0.574116 17.6898 0 16.9865 0C16.2832 0 15.7091 0.574116 15.7091 1.27741V3.0787C14.4245 3.3227 13.1614 3.76764 11.9701 4.45658C10.786 5.14552 9.76697 6.00669 8.92015 6.98986L7.36286 6.09281C6.75286 5.74116 5.97063 5.94928 5.6118 6.55928C5.26016 7.16928 5.46827 7.95151 6.07827 8.31033L7.45615 9.10692C5.56874 12.6162 5.47545 16.9867 7.61404 20.6897L3.65981 22.9718C0.16487 24.9884 -1.0336 29.4593 0.982986 32.9614C2.99957 36.4564 7.47051 37.6548 10.9726 35.6383C12.9964 34.4685 14.2379 32.4806 14.5465 30.342C17.6108 32.4376 21.5435 33.0189 25.1461 31.7702L27.622 32.8969C28.2392 33.1767 28.9497 32.7677 29.0142 32.0931L29.2869 29.2943C31.9997 26.804 33.356 23.223 33.0833 19.642C35.0927 20.4457 37.4394 20.3596 39.4632 19.197C42.9581 17.1804 44.1566 12.7095 42.14 9.20739C40.1234 5.71246 35.6525 4.51399 32.1504 6.53057V6.5234ZM10.9583 26.4811L11.2669 27.0193C12.5299 29.2082 11.7764 31.9998 9.59474 33.2629C7.40592 34.5259 4.61428 33.7724 3.35122 31.5907C2.08816 29.4019 2.84169 26.6103 5.02333 25.3472L8.97756 23.0651L10.9511 26.4883L10.9583 26.4811ZM13.3337 6.83198C17.7041 4.30587 23.2946 5.80575 25.8207 10.1762L9.98944 19.3118C7.46333 14.9414 8.96321 9.35092 13.3337 6.82481V6.83198ZM25.8207 28.4546C22.4837 30.3779 18.4505 29.9617 15.5943 27.7155L30.2845 19.2329C30.8012 22.8211 29.1506 26.5313 25.8135 28.4546H25.8207ZM29.4592 16.5489L13.6853 25.6558C13.5633 25.4764 13.4413 25.3042 13.3337 25.1104L11.3601 21.6872L27.1914 12.5516L29.1649 15.9748C29.2726 16.1614 29.3659 16.3551 29.4592 16.5489ZM38.0925 16.8144C35.9036 18.0775 33.112 17.324 31.8489 15.1423L31.5404 14.6041L29.5668 11.1809L33.5211 8.8988C35.7099 7.63575 38.5015 8.38927 39.7646 10.5709C41.0276 12.7597 40.2741 15.5514 38.0925 16.8144Z" fill="#262626"/>
</g>
<g id="Group_5">
<path id="Vector_10" d="M56.249 9.31598C56.249 8.80645 56.4284 8.43328 56.7801 8.19646C57.1317 7.95963 57.5408 7.84481 57.9929 7.84481C58.445 7.84481 58.8541 7.96681 59.2057 8.19646C59.5574 8.43328 59.7368 8.80645 59.7368 9.31598V13.2128C59.7368 14.3036 59.8588 15.2437 60.0884 16.0188C60.3252 16.801 60.7343 17.5474 61.3156 18.2578C61.7318 18.7889 62.1552 19.2841 62.5858 19.7577C63.0164 20.2314 63.3824 20.6404 63.691 20.9849C63.9996 21.315 64.1216 21.6954 64.057 22.1331C63.9924 22.5709 63.813 22.9154 63.5259 23.1665C63.2174 23.4392 62.8514 23.5828 62.4351 23.5899C62.0189 23.5971 61.6529 23.4464 61.3443 23.1378C61.129 22.901 60.8419 22.5924 60.4975 22.2121C60.153 21.8317 59.8157 21.437 59.4856 21.0423C59.2129 20.7122 58.9832 20.4251 58.8038 20.1668C58.6244 19.9156 58.4737 19.686 58.3661 19.4994C58.2584 19.3056 58.1723 19.1405 58.1221 18.997C58.0647 18.8535 58.0288 18.71 58.0144 18.5593H57.9857C57.9283 18.8678 57.8063 19.2123 57.6197 19.5927C57.426 19.973 57.0528 20.5041 56.4858 21.1715C56.1557 21.5734 55.8112 21.9824 55.4381 22.3987C55.0649 22.8149 54.6774 23.2383 54.2755 23.6545C53.9669 23.9631 53.5937 24.1066 53.156 24.0779C52.7182 24.0492 52.3665 23.8985 52.0938 23.6258C51.7853 23.3172 51.6058 22.9512 51.5484 22.5207C51.491 22.0901 51.6202 21.7097 51.9288 21.3581C52.4168 20.8342 52.8904 20.3103 53.3497 19.8008C53.8018 19.2913 54.2396 18.7745 54.6558 18.2435C55.2371 17.533 55.6462 16.7867 55.883 16.0044C56.1198 15.2222 56.2347 14.2893 56.2347 13.1984V9.30163L56.249 9.31598ZM65.2483 8.03857C65.2483 7.56493 65.4133 7.22046 65.7363 7.00517C66.0664 6.78987 66.4324 6.67505 66.8558 6.67505C67.2792 6.67505 67.6165 6.7827 67.9466 7.00517C68.2768 7.22046 68.4346 7.57211 68.4346 8.03857V27.7308C68.4346 28.2044 68.2696 28.5489 67.9466 28.7642C67.6165 28.9795 67.2577 29.0943 66.8558 29.0943C66.4539 29.0943 66.0664 28.9866 65.7363 28.7642C65.4062 28.5489 65.2483 28.1972 65.2483 27.7308V16.5211H63.2317C62.8155 16.5211 62.5069 16.3776 62.3059 16.0834C62.105 15.7963 62.0045 15.4375 62.0045 15.0213C62.0045 14.605 62.105 14.2462 62.3059 13.9591C62.5069 13.6721 62.8155 13.5214 63.2317 13.5214H65.2483V8.03857ZM70.2072 7.76587C70.2072 7.29222 70.3723 6.94775 70.6952 6.73246C71.0253 6.51717 71.3913 6.40234 71.8148 6.40234C72.2382 6.40234 72.6042 6.50999 72.9343 6.73246C73.2644 6.94775 73.4223 7.2994 73.4223 7.76587V28.8718C73.4223 29.3455 73.2572 29.6899 72.9343 29.9052C72.6042 30.1205 72.2382 30.2353 71.8148 30.2353C71.3913 30.2353 71.0253 30.1277 70.6952 29.9052C70.3651 29.6899 70.2072 29.3383 70.2072 28.8718V7.76587Z" fill="#262626"/>
<path id="Vector_11" d="M77.5201 23.5537C77.1039 23.5537 76.7953 23.4102 76.5944 23.1159C76.3934 22.8289 76.293 22.4772 76.293 22.0825C76.293 21.6878 76.3934 21.3362 76.5944 21.0491C76.7953 20.762 77.1039 20.6113 77.5201 20.6113H98.1381C98.5544 20.6113 98.8629 20.7549 99.0639 21.0491C99.2648 21.3433 99.3653 21.6878 99.3653 22.0825C99.3653 22.4772 99.2648 22.8289 99.0639 23.1159C98.8629 23.4102 98.5544 23.5537 98.1381 23.5537H89.5766V30.6727C89.5766 31.1823 89.3972 31.5554 89.0455 31.7923C88.6939 32.0291 88.2848 32.1439 87.8327 32.1439C87.3806 32.1439 86.9715 32.0219 86.6199 31.7923C86.2683 31.5554 86.0888 31.1823 86.0888 30.6727V23.5537H77.5273H77.5201ZM81.582 18.0709C80.7065 18.0709 80.1037 17.9058 79.7664 17.5829C79.4291 17.2528 79.264 16.6643 79.264 15.8103V9.78207C79.264 8.92807 79.4291 8.3396 79.7664 8.00948C80.1037 7.67937 80.7065 7.52148 81.582 7.52148H94.0691C94.9446 7.52148 95.5474 7.68654 95.8847 8.00948C96.222 8.3396 96.3871 8.92807 96.3871 9.78207V15.8103C96.3871 16.6643 96.222 17.2528 95.8847 17.5829C95.5474 17.913 94.9446 18.0709 94.0691 18.0709H81.582ZM92.2462 15.1285C92.6625 15.1285 92.8706 14.9204 92.8706 14.5042V11.0954C92.8706 10.6791 92.6625 10.471 92.2462 10.471H83.412C82.9958 10.471 82.7877 10.6791 82.7877 11.0954V14.5042C82.7877 14.9204 82.9958 15.1285 83.412 15.1285H92.2462Z" fill="#262626"/>
<path id="Vector_12" d="M110.08 12.9473C110.08 13.4927 110.116 13.995 110.188 14.4471C110.259 14.8993 110.381 15.337 110.539 15.7533C110.704 16.1695 110.92 16.5786 111.178 16.9661C111.443 17.3536 111.766 17.7627 112.147 18.1789C112.635 18.7028 113.137 19.2267 113.632 19.7362C114.135 20.2457 114.594 20.6835 115.01 21.0423C115.355 21.3509 115.491 21.7169 115.419 22.1475C115.347 22.5781 115.175 22.9369 114.902 23.2239C114.773 23.3531 114.623 23.4608 114.436 23.5541C114.257 23.6474 114.07 23.7048 113.876 23.7335C113.682 23.7622 113.496 23.7478 113.302 23.6904C113.108 23.633 112.936 23.5397 112.771 23.389C112.405 23.0589 112.01 22.6857 111.587 22.2551C111.156 21.8317 110.726 21.3796 110.288 20.906C109.563 20.1452 109.068 19.5711 108.802 19.1908C108.537 18.8104 108.379 18.4803 108.322 18.2076H108.293C108.257 18.3727 108.2 18.5377 108.128 18.6956C108.056 18.8535 107.941 19.0473 107.791 19.2697C107.64 19.485 107.439 19.7362 107.202 20.0089C106.965 20.2816 106.664 20.6117 106.305 20.9921C105.867 21.4657 105.415 21.925 104.956 22.3843C104.489 22.8364 103.987 23.3172 103.442 23.8268C103.097 24.1354 102.71 24.2286 102.279 24.1138C101.848 23.999 101.511 23.7981 101.26 23.5254C100.987 23.2168 100.844 22.8508 100.822 22.4345C100.801 22.0183 100.959 21.6523 101.289 21.3437C102.415 20.3103 103.47 19.2554 104.454 18.1789C104.834 17.7627 105.157 17.3536 105.422 16.9661C105.688 16.5786 105.903 16.1695 106.061 15.7533C106.226 15.337 106.341 14.8993 106.413 14.4471C106.484 13.995 106.52 13.4927 106.52 12.9473V9.18681C106.52 8.66293 106.7 8.2754 107.051 8.03857C107.403 7.80175 107.819 7.68693 108.293 7.68693C108.767 7.68693 109.176 7.80893 109.534 8.03857C109.886 8.2754 110.066 8.65575 110.066 9.18681V12.9473H110.08ZM123.112 14.4471C123.55 14.4471 123.866 14.5907 124.067 14.8849C124.268 15.1791 124.368 15.5308 124.368 15.947C124.368 16.3633 124.268 16.7221 124.067 17.0235C123.866 17.3249 123.55 17.4756 123.112 17.4756H120.55V28.7642C120.55 29.2737 120.371 29.6469 120.019 29.8837C119.668 30.1205 119.259 30.2353 118.806 30.2353C118.354 30.2353 117.945 30.1133 117.594 29.8837C117.242 29.6469 117.063 29.2737 117.063 28.7642V7.87352C117.063 7.36399 117.242 6.99081 117.594 6.75399C117.945 6.51717 118.354 6.40234 118.806 6.40234C119.259 6.40234 119.668 6.52434 120.019 6.75399C120.371 6.99081 120.55 7.36399 120.55 7.87352V14.4471H123.112Z" fill="#262626"/>
<path id="Vector_13" d="M141.168 12.9473C141.168 13.4927 141.204 13.995 141.276 14.4471C141.348 14.8993 141.47 15.337 141.628 15.7533C141.793 16.1695 142.008 16.5786 142.266 16.9661C142.532 17.3536 142.855 17.7627 143.235 18.1789C143.723 18.7028 144.218 19.2267 144.721 19.7362C145.223 20.2457 145.682 20.6835 146.099 21.0423C146.443 21.3509 146.579 21.7169 146.508 22.1475C146.436 22.5781 146.264 22.9369 145.991 23.2239C145.862 23.3531 145.711 23.4608 145.525 23.5541C145.338 23.6474 145.159 23.7048 144.965 23.7335C144.771 23.7622 144.584 23.7478 144.391 23.6904C144.197 23.633 144.025 23.5397 143.86 23.389C143.494 23.0589 143.099 22.6857 142.675 22.2551C142.245 21.8317 141.814 21.3796 141.384 20.906C140.659 20.1452 140.164 19.5711 139.898 19.1908C139.633 18.8104 139.475 18.4803 139.417 18.2076H139.389C139.353 18.3727 139.295 18.5377 139.224 18.6956C139.152 18.8535 139.037 19.0473 138.886 19.2697C138.728 19.485 138.535 19.7362 138.298 20.0089C138.061 20.2816 137.76 20.6117 137.401 20.9921C136.963 21.4657 136.511 21.925 136.052 22.3843C135.592 22.8436 135.083 23.3172 134.537 23.8268C134.193 24.1354 133.805 24.2286 133.382 24.1138C132.951 23.999 132.614 23.7981 132.356 23.5254C132.083 23.2168 131.939 22.8508 131.918 22.4345C131.896 22.0183 132.054 21.6523 132.384 21.3437C133.511 20.3103 134.566 19.2554 135.549 18.1789C135.93 17.7627 136.253 17.3536 136.518 16.9661C136.784 16.5786 136.999 16.1695 137.157 15.7533C137.322 15.337 137.437 14.8993 137.508 14.4471C137.58 13.995 137.616 13.4927 137.616 12.9473V9.18681C137.616 8.66293 137.795 8.2754 138.147 8.03857C138.499 7.80175 138.915 7.68693 139.389 7.68693C139.862 7.68693 140.271 7.80893 140.63 8.03857C140.982 8.2754 141.161 8.65575 141.161 9.18681V12.9473H141.168ZM154.201 14.4471C154.639 14.4471 154.954 14.5907 155.155 14.8849C155.356 15.1791 155.457 15.5308 155.457 15.947C155.457 16.3633 155.356 16.7221 155.155 17.0235C154.954 17.3249 154.639 17.4756 154.201 17.4756H151.639V28.7642C151.639 29.2737 151.459 29.6469 151.108 29.8837C150.756 30.1205 150.347 30.2353 149.895 30.2353C149.443 30.2353 149.034 30.1133 148.682 29.8837C148.331 29.6469 148.151 29.2737 148.151 28.7642V7.87352C148.151 7.36399 148.331 6.99081 148.682 6.75399C149.034 6.51717 149.443 6.40234 149.895 6.40234C150.347 6.40234 150.756 6.52434 151.108 6.75399C151.459 6.98364 151.639 7.36399 151.639 7.87352V14.4471H154.201Z" fill="#262626"/>
<path id="Vector_14" d="M166.551 7.62952C167.427 7.62952 168.03 7.79458 168.367 8.11752C168.704 8.44763 168.869 9.0361 168.869 9.8901V13.4066C168.869 14.2606 168.704 14.849 168.367 15.1791C168.03 15.5093 167.427 15.6671 166.551 15.6671H161.37C160.954 15.6671 160.745 15.8753 160.745 16.2915V17.49C160.745 17.9062 160.954 18.1143 161.37 18.1143C162.97 18.1143 164.477 18.0713 165.884 17.9923C167.29 17.9134 168.661 17.777 169.989 17.5976C170.405 17.5402 170.735 17.6407 170.986 17.899C171.23 18.1502 171.374 18.466 171.41 18.8248C171.446 19.2267 171.388 19.5855 171.245 19.9013C171.101 20.217 170.828 20.4036 170.426 20.461C169.86 20.5328 169.242 20.6045 168.561 20.6691C167.879 20.7337 167.104 20.7911 166.228 20.8485C165.36 20.906 164.377 20.9418 163.3 20.9705C162.217 20.9992 161.004 21.0136 159.662 21.0136C158.786 21.0136 158.183 20.8485 157.846 20.5256C157.509 20.2027 157.344 19.607 157.344 18.753V15.2079C157.344 14.3539 157.509 13.7654 157.846 13.4353C158.183 13.1052 158.786 12.9473 159.662 12.9473H164.843C165.259 12.9473 165.468 12.7392 165.468 12.3229V11.1532C165.468 10.7369 165.259 10.5288 164.843 10.5288H158.492C158.076 10.5288 157.774 10.3853 157.595 10.091C157.416 9.80398 157.322 9.46669 157.322 9.07916C157.322 8.69163 157.416 8.36152 157.595 8.06728C157.774 7.78022 158.076 7.62952 158.492 7.62952H166.566H166.551ZM160.171 27.3145C160.171 25.6424 160.882 24.4152 162.31 23.633C163.738 22.8508 165.704 22.4632 168.216 22.4632C170.728 22.4632 172.694 22.858 174.122 23.6474C175.55 24.4368 176.261 25.6639 176.261 27.3145C176.261 28.9651 175.55 30.2138 174.122 30.996C172.694 31.7783 170.728 32.1658 168.216 32.1658C165.704 32.1658 163.738 31.7783 162.31 30.996C160.882 30.2138 160.171 28.9866 160.171 27.3145ZM172.802 27.3145C172.802 26.6758 172.457 26.1663 171.768 25.7859C171.08 25.4056 169.895 25.2118 168.223 25.2118C166.551 25.2118 165.367 25.4056 164.678 25.7859C163.989 26.1663 163.645 26.6758 163.645 27.3145C163.645 27.9532 163.989 28.4628 164.678 28.8431C165.367 29.2235 166.551 29.4172 168.223 29.4172C169.895 29.4172 171.08 29.2235 171.768 28.8431C172.457 28.4628 172.802 27.9532 172.802 27.3145ZM178.744 12.6746C179.182 12.6746 179.498 12.8181 179.698 13.1123C179.899 13.4066 180 13.7582 180 14.1744C180 14.5907 179.899 14.9495 179.698 15.2509C179.498 15.5523 179.182 15.703 178.744 15.703H176.182V20.7768C176.182 21.2863 176.003 21.6595 175.651 21.8963C175.299 22.1331 174.89 22.248 174.438 22.248C173.986 22.248 173.577 22.1331 173.225 21.8963C172.874 21.6595 172.694 21.2863 172.694 20.7768V7.87352C172.694 7.36399 172.874 6.99081 173.225 6.75399C173.577 6.51717 173.986 6.40234 174.438 6.40234C174.89 6.40234 175.299 6.52434 175.651 6.75399C176.003 6.99081 176.182 7.36399 176.182 7.87352V12.6746H178.744Z" fill="#262626"/>
</g>
</g>
<defs>
<clipPath id="clip0_592_42567">
<rect width="180" height="36.6143" fill="white"/>
</clipPath>
</defs>
</svg>
