<svg width="40" height="40" viewBox="0 0 40 40" fill="none" xmlns="http://www.w3.org/2000/svg">
<path d="M40 20C40 31.0457 31.0457 40 20 40C8.95433 40 2.14622e-05 31.0457 2.14622e-05 20C2.14622e-05 8.9543 8.95433 0 20 0C31.0457 0 40 8.9543 40 20Z" fill="black" fill-opacity="0.7"/>
<path fill-rule="evenodd" clip-rule="evenodd" d="M26.9527 14.911C27.0952 14.7689 27.2883 14.6891 27.4897 14.6891C27.691 14.6891 27.8842 14.7689 28.0266 14.911L28.0287 14.913L28.0317 14.9151L28.0388 14.9221L28.0591 14.9424L28.1219 15.0122C28.1725 15.0699 28.2435 15.1518 28.3255 15.256C29.2616 16.471 29.7692 17.961 29.7692 19.4941C29.7692 21.0271 29.2616 22.5171 28.3255 23.7321C28.2407 23.8403 28.1514 23.9449 28.058 24.0458L28.0378 24.066L28.0317 24.0731L28.0287 24.0751L28.0277 24.0761L27.511 23.5622L28.0277 24.0781C27.8851 24.2205 27.6918 24.3004 27.4902 24.3004C27.2886 24.3004 27.0953 24.2205 26.9527 24.0781C26.8102 23.9358 26.7301 23.7427 26.7301 23.5414C26.7301 23.3401 26.8102 23.1471 26.9527 23.0047L26.9517 23.0057L26.9497 23.0067L26.9547 23.0017L26.9882 22.9653C27.0206 22.9302 27.0675 22.8739 27.129 22.7963C27.7699 21.9608 28.154 20.9573 28.2346 19.9079C28.3152 18.8584 28.0888 17.8082 27.5829 16.8849C27.4508 16.6419 27.299 16.4101 27.129 16.1918C27.074 16.1208 27.0158 16.0523 26.9547 15.9865L26.9497 15.9814C26.8084 15.8388 26.7294 15.6462 26.73 15.4456C26.7306 15.245 26.8106 15.0528 26.9527 14.911ZM20.9418 11.2952C22.1201 10.5192 23.6904 11.3639 23.6904 12.7733V27.2266C23.6904 28.6369 22.1201 29.4807 20.9418 28.7047L14.863 24.7034C14.8219 24.676 14.7736 24.6612 14.7242 24.6609H11.7861C11.0472 24.6609 10.3385 24.3678 9.81603 23.846C9.29354 23.3242 9 22.6166 9 21.8787V18.1212C9 17.3833 9.29354 16.6756 9.81603 16.1539C10.3385 15.6321 11.0472 15.339 11.7861 15.339H14.7242C14.7739 15.3391 14.8225 15.3247 14.864 15.2975L20.9418 11.2952Z" fill="white"/>
</svg>
