<svg width="40" height="40" viewBox="0 0 40 40" fill="none" xmlns="http://www.w3.org/2000/svg">
<path d="M40 20C40 31.0457 31.0457 40 20 40C8.95433 40 2.14622e-05 31.0457 2.14622e-05 20C2.14622e-05 8.9543 8.95433 0 20 0C31.0457 0 40 8.9543 40 20Z" fill="black" fill-opacity="0.7"/>
<path fill-rule="evenodd" clip-rule="evenodd" d="M25.6039 17.4403C25.7479 17.2982 25.943 17.2184 26.1465 17.2184C26.3499 17.2184 26.5451 17.2982 26.689 17.4403L28.1938 18.9275L29.6986 17.4403C29.8442 17.3063 30.0367 17.2333 30.2356 17.2368C30.4345 17.2402 30.6242 17.3199 30.7649 17.4589C30.9056 17.5979 30.9861 17.7855 30.9896 17.982C30.9932 18.1786 30.9193 18.3689 30.7837 18.5127L29.2799 19.9999L30.7847 21.4871C30.9245 21.6303 31.0018 21.822 31 22.021C30.9981 22.2199 30.9173 22.4102 30.7749 22.5508C30.6325 22.6914 30.4399 22.7711 30.2386 22.7728C30.0372 22.7744 29.8433 22.6978 29.6986 22.5596L28.1938 21.0723L26.689 22.5596C26.5435 22.6936 26.351 22.7666 26.1521 22.7631C25.9532 22.7596 25.7634 22.68 25.6227 22.541C25.4821 22.4019 25.4015 22.2144 25.398 22.0178C25.3945 21.8212 25.4683 21.631 25.6039 21.4871L27.1087 19.9999L25.6039 18.5127C25.4602 18.3704 25.3794 18.1776 25.3794 17.9765C25.3794 17.7754 25.4602 17.5826 25.6039 17.4403ZM21.066 11.2952C22.2565 10.5192 23.8432 11.3639 23.8432 12.7733V27.2266C23.8432 28.6369 22.2565 29.4807 21.066 28.7047L14.924 24.7034C14.8824 24.676 14.8337 24.6612 14.7837 24.6609H11.8151C11.0685 24.6609 10.3525 24.3678 9.82452 23.846C9.29659 23.3242 9 22.6166 9 21.8787V18.1212C9 17.3833 9.29659 16.6756 9.82452 16.1539C10.3525 15.6321 11.0685 15.339 11.8151 15.339H14.7837C14.8339 15.3391 14.883 15.3247 14.925 15.2975L21.066 11.2952Z" fill="white"/>
</svg>
