<svg width="42" height="42" viewBox="0 0 42 42" fill="none" xmlns="http://www.w3.org/2000/svg">
<mask id="mask0_916_51085" style="mask-type:luminance" maskUnits="userSpaceOnUse" x="0" y="0" width="42" height="42">
<path d="M21 41C32.046 41 41 32.046 41 21C41 9.954 32.046 1 21 1C9.954 1 1 9.954 1 21C1 32.046 9.954 41 21 41Z" fill="white" stroke="white" stroke-width="1.33333" stroke-linejoin="round"/>
<path d="M17 21V15.3042C17 14.5188 17.864 14.04 18.53 14.4562L23 17.25L27.6432 20.152C28.2699 20.5437 28.2699 21.4563 27.6432 21.848L23 24.75L18.53 27.5438C17.864 27.96 17 27.4812 17 26.6958V21Z" fill="black" stroke="black" stroke-width="1.33333" stroke-linejoin="round"/>
</mask>
<g mask="url(#mask0_916_51085)">
<path d="M-3 -3H45V45H-3V-3Z" fill="white"/>
</g>
</svg>
