<svg width="88" height="78" viewBox="0 0 88 78" fill="none" xmlns="http://www.w3.org/2000/svg">
<g id="Group 704">
<path id="Union" fill-rule="evenodd" clip-rule="evenodd" d="M48.7202 74.7707L51.0735 71.2805C52.8971 68.5715 53.8089 67.2188 55.2765 66.472C56.7402 65.7234 58.5797 65.6949 62.2512 65.638L62.2799 65.6376C67.7332 65.5538 71.1503 65.2642 74.0159 64.2202C76.6506 63.2632 79.0447 61.8601 81.0614 60.091C83.0781 58.3219 84.6778 56.2215 85.7693 53.9098C87.4192 50.412 87.4192 45.9732 87.4192 37.0955V37.0954V33.2852V33.2851C87.4192 20.8182 87.4192 14.5771 84.2193 9.99339C82.4297 7.43127 79.9749 5.27699 77.0552 3.70656C71.832 0.898438 64.7243 0.898438 50.5134 0.898438H37.4879C23.2813 0.898438 16.1693 0.898438 10.9461 3.70656C8.02592 5.27807 5.57101 7.43369 3.78198 9.9972C0.582031 14.5771 0.582031 20.8144 0.582031 33.2852V37.0954C0.582031 45.9731 0.582031 50.412 2.23628 53.9098C3.32728 56.2212 4.92638 58.3214 6.94229 60.0905C8.9582 61.8595 11.3514 63.2628 13.9854 64.2202C16.851 65.2642 20.268 65.5576 25.7214 65.6376L25.7501 65.638C29.4216 65.6949 31.2611 65.7234 32.7248 66.472C34.1885 67.2169 35.0993 68.5681 36.9132 71.259L36.9277 71.2805L39.281 74.7707C41.3825 77.8798 46.6231 77.8798 48.7202 74.7707Z" fill="#36363D"/>
<path id="Vector" d="M53.1354 36.5344C53.1348 36.5338 53.1339 36.5334 53.133 36.5334C51.726 36.5332 50.3507 36.1281 49.1808 35.3693C48.0106 34.6103 47.0985 33.5315 46.5599 32.2693C46.0213 31.0071 45.8803 29.6183 46.1549 28.2784C46.4295 26.9384 47.1073 25.7076 48.1025 24.7416C49.0977 23.7756 50.3657 23.1177 51.7461 22.8512C53.1265 22.5846 54.5574 22.7214 55.8577 23.2442C57.158 23.767 58.2694 24.6524 59.0514 25.7883C59.8333 26.9243 60.2507 28.2598 60.2507 29.6259L60.2832 30.6127C60.2832 34.2767 58.7837 37.7906 56.1146 40.3814C53.9131 42.5184 51.0645 43.883 48.0159 44.2955C46.9372 44.4414 46.0507 43.5453 46.0507 42.4567C46.0507 41.3662 46.944 40.5018 48.0155 40.2986C48.6743 40.1737 49.3202 39.985 49.9434 39.7346C51.1775 39.2386 52.298 38.5102 53.2402 37.5913C53.3756 37.46 53.5072 37.3252 53.6348 37.1868C53.8721 36.9294 53.6447 36.5261 53.2947 36.5337C53.2425 36.5348 53.1903 36.5354 53.1379 36.5354C53.137 36.5354 53.1361 36.5351 53.1354 36.5344ZM34.8355 36.5334C33.428 36.5334 32.0522 36.1283 30.8819 35.3693C29.7117 34.6103 28.7996 33.5315 28.2609 32.2693C27.7223 31.0071 27.5814 29.6183 27.856 28.2783C28.1306 26.9384 28.8083 25.7076 29.8036 24.7416C30.7988 23.7756 32.0668 23.1177 33.4472 22.8512C34.8276 22.5846 36.2584 22.7214 37.5588 23.2442C38.8591 23.767 39.9705 24.6524 40.7524 25.7883C41.5344 26.9243 41.9517 28.2598 41.9517 29.6259L41.9843 30.6127C41.9843 34.2767 40.4848 37.7906 37.8157 40.3814C35.6141 42.5184 32.7656 43.883 29.717 44.2955C28.6382 44.4414 27.7518 43.5453 27.7518 42.4567C27.7518 41.3662 28.6451 40.5018 29.7166 40.2986C30.3753 40.1737 31.0213 39.985 31.6445 39.7346C32.8785 39.2386 33.999 38.5102 34.9412 37.5913C35.0383 37.4972 35.1334 37.4013 35.2264 37.3036C35.508 37.0078 35.244 36.5334 34.8355 36.5334Z" fill="#FAE100"/>
</g>
</svg>
