<svg width="516" height="410" viewBox="0 0 516 410" fill="none" xmlns="http://www.w3.org/2000/svg">
<rect width="98" height="38" rx="19" fill="#73777A" fill-opacity="0.1"/>
<path d="M35.8337 16.0293C35.82 18.2031 37.0779 20.418 38.9099 21.3066L38.1032 22.3457C36.7702 21.6553 35.738 20.2812 35.2048 18.6406C34.6511 20.3906 33.5779 21.8535 32.1833 22.5781L31.3767 21.5254C33.2634 20.623 34.5349 18.2715 34.5349 16.0293V13.9375H35.8337V16.0293ZM41.1247 12.9121V17.793H43.0935V18.9004H41.1247V25.1621H39.8259V12.9121H41.1247ZM54.5713 18.8867V19.9395H43.4014V18.8867H46.0811V17.2324C45.1377 16.8496 44.6045 16.2344 44.6045 15.4277C44.6045 13.9785 46.2861 13.1309 48.9795 13.1309C51.6592 13.1309 53.3545 13.9785 53.3545 15.4277C53.3545 16.2344 52.8145 16.8564 51.8643 17.2324V18.8867H54.5713ZM48.9795 20.7734C51.6182 20.7734 53.2041 21.5527 53.2041 22.9473C53.2041 24.3691 51.6182 25.1348 48.9795 25.1348C46.3135 25.1348 44.7275 24.3691 44.7275 22.9473C44.7275 21.5527 46.3135 20.7734 48.9795 20.7734ZM48.9795 21.7715C47.1064 21.7715 46.04 22.1953 46.04 22.9473C46.04 23.7129 47.1064 24.1504 48.9795 24.1367C50.8252 24.1504 51.9053 23.7129 51.9053 22.9473C51.9053 22.1953 50.8252 21.7715 48.9795 21.7715ZM48.9795 14.1289C47.0791 14.1289 45.9307 14.6074 45.9443 15.4277C45.9307 16.248 47.0791 16.7129 48.9795 16.7129C50.8799 16.7129 52.0146 16.248 52.0146 15.4277C52.0146 14.6074 50.8799 14.1289 48.9795 14.1289ZM47.3936 18.8867H50.5791V17.5742C50.1006 17.6562 49.5605 17.6973 48.9795 17.6973C48.4053 17.6973 47.8721 17.6562 47.3936 17.5879V18.8867ZM59.4866 16.5215C59.4866 18.4629 60.7581 20.623 62.6175 21.498L61.8792 22.5098C60.5052 21.8467 59.4182 20.4658 58.8714 18.8594C58.304 20.6162 57.1555 22.127 55.7542 22.8242L54.9886 21.7988C56.8479 20.9102 58.2014 18.5996 58.2014 16.5215V15.2227H55.4397V14.1426H62.1526V15.2227H59.4866V16.5215ZM64.7639 12.9121V17.7656H66.7327V18.8594H64.7639V25.1621H63.4651V12.9121H64.7639Z" fill="#5E6066"/>
<circle cx="49" cy="93.5" r="25" fill="#FEF6B3"/>
<circle cx="48.879" cy="93.379" r="20" fill="#FAE100"/>
<path d="M58.3203 96.6828L53.3961 94.3339L51.3139 93.3406C52.2233 92.7676 52.9619 91.8834 53.4452 90.8184C53.8483 89.9305 54.0568 88.9667 54.0568 87.9916C54.0568 87.4171 53.9656 86.8715 53.8386 86.3452C53.2191 83.7944 51.2271 81.9153 48.8358 81.9153C46.4897 81.9153 44.5279 83.7274 43.8701 86.2055C43.7182 86.7741 43.6138 87.3652 43.6138 87.9916C43.6138 89.0792 43.8679 90.0933 44.2996 90.9753C44.7987 91.9985 45.5385 92.8422 46.4391 93.3846L44.4449 94.3131L39.361 96.6809C38.9195 96.8878 38.6293 97.3859 38.6293 97.9421V103.528C38.6293 104.277 39.151 104.884 39.7949 104.884H47.3456V100.607C47.3467 100.563 47.3596 100.52 47.3831 100.482L47.3799 100.48L48.6166 98.3383L48.6198 98.3402C48.6638 98.2647 48.7421 98.2113 48.8358 98.2113C48.9295 98.2113 49.0078 98.2644 49.0518 98.3402L49.0531 98.3392L49.0644 98.3591C49.066 98.3622 49.0682 98.3647 49.0694 98.3679L50.2898 100.481L50.2882 100.482C50.3117 100.52 50.3246 100.563 50.3256 100.607V104.884H57.8763C58.5203 104.884 59.0423 104.277 59.0423 103.528V97.9421C59.0432 97.3877 58.7577 96.8944 58.3203 96.6828ZM50.2891 95.2505L50.2923 95.2524L49.0553 97.3943L49.0521 97.3925C49.0307 97.431 48.9994 97.4633 48.9614 97.4858C48.9235 97.5084 48.8802 97.5206 48.8361 97.5211C48.7919 97.5206 48.7487 97.5084 48.7108 97.4858C48.6728 97.4633 48.6415 97.431 48.6201 97.3925L48.6185 97.3934L48.6059 97.3717C48.605 97.3695 48.6031 97.3676 48.6022 97.3654L47.3818 95.2514L47.3831 95.2505C47.3596 95.213 47.3467 95.1699 47.3456 95.1256C47.3456 94.9857 47.4592 94.8722 47.5991 94.8722H50.0725C50.2124 94.8722 50.3259 94.9857 50.3259 95.1256C50.3254 95.1698 50.3127 95.2131 50.2891 95.2505Z" fill="#4A4A52"/>
<path d="M32.508 129.242V140.528H31.5559V134.612H29.8928V139.944H28.9787V129.496H29.8928V133.787H31.5559V129.242H32.508ZM27.5061 130.626V131.451H24.2688V136.885C25.8239 136.878 26.903 136.821 28.1535 136.567L28.2424 137.405C26.884 137.685 25.7287 137.735 24.0022 137.735H23.2785V130.626H27.5061ZM44.1689 138.319V139.145H33.8349V138.319H36.7168V135.628H34.7744V134.803H36.539V131.121H34.749V130.296H43.1787V131.121H41.3887V134.803H43.1533V135.628H41.2109V138.319H44.1689ZM37.5293 134.803H40.4111V131.121H37.5293V134.803ZM37.7197 138.319H40.2207V135.628H37.7197V138.319ZM46.6638 138.649L45.6736 142.103H44.7341L45.4324 138.649H46.6638ZM57.7092 133.203C57.4426 131.934 56.3508 131.248 55.1448 131.248C53.4817 131.248 52.1868 132.53 52.1868 134.904C52.1868 137.278 53.4817 138.561 55.1448 138.561C56.3508 138.561 57.4299 137.875 57.7092 136.618H58.8518C58.5217 138.497 57.011 139.627 55.1448 139.627C52.7835 139.627 51.0823 137.812 51.0823 134.904C51.0823 131.997 52.7835 130.182 55.1448 130.182C56.9983 130.182 58.509 131.299 58.8518 133.203H57.7092ZM60.1914 139.5V130.309H65.7266V131.324H61.334V134.396H65.3076V135.399H61.334V139.5H60.1914ZM74.9373 134.904C74.9373 137.812 73.2234 139.627 70.8748 139.627C68.5135 139.627 66.8123 137.812 66.8123 134.904C66.8123 131.997 68.5135 130.182 70.8748 130.182C73.2234 130.182 74.9373 131.997 74.9373 134.904ZM73.8328 134.904C73.8328 132.53 72.5379 131.248 70.8748 131.248C69.2117 131.248 67.9168 132.53 67.9168 134.904C67.9168 137.278 69.2117 138.561 70.8748 138.561C72.5379 138.561 73.8328 137.278 73.8328 134.904Z" fill="#36363D"/>
<circle cx="49" cy="185.5" r="25" fill="#FEF6B3"/>
<circle cx="48.8769" cy="185.378" r="20" fill="#FAE100"/>
<path d="M48.8545 173.914C47.5016 173.932 46.2103 174.483 45.2608 175.447C44.3113 176.411 43.7802 177.71 43.7827 179.063C43.7055 181.175 43.5381 183.53 42.534 184.972C45.9839 187.07 48.9317 186.787 48.9317 186.787C48.9317 186.787 51.8796 187.07 55.3294 184.972C54.2353 183.208 54.0036 181.046 54.0808 179.063C54.0808 176.219 51.7766 173.914 48.9317 173.914H48.8545ZM44.8897 187.199C41.2082 187.984 38.6336 189.812 38.6336 191.936V197.085H48.9317L45.0699 191.936H41.8518M48.9317 197.085L51.2231 187.83C51.2231 187.83 50.219 188.074 48.9317 188.074C47.6445 188.074 46.6404 187.83 46.6404 187.83M48.9317 197.085H59.2298V191.936C59.2298 189.812 56.6553 187.984 52.9737 187.199L56.0117 191.936H52.7935L48.9317 197.085Z" fill="#4A4A52"/>
<path d="M23.5865 221.661C25.275 221.674 26.5064 222.689 26.5064 224.162C26.5064 225.635 25.275 226.65 23.5865 226.65C21.8727 226.65 20.6539 225.635 20.6539 224.162C20.6539 222.689 21.8727 221.674 23.5865 221.661ZM23.5865 222.499C22.4566 222.499 21.6187 223.185 21.6314 224.162C21.6187 225.152 22.4566 225.838 23.5865 225.838C24.7037 225.838 25.5416 225.152 25.5416 224.162C25.5416 223.185 24.7037 222.499 23.5865 222.499ZM29.7057 221.242V227.044H28.7154V221.242H29.7057ZM29.7057 227.59V230.307H23.3707V231.576H30.1119V232.376H22.3932V229.558H28.7154V228.39H22.3678V227.59H29.7057ZM40.1859 221.255V224.67H41.8871V225.508H40.1859V229.545H39.1957V221.255H40.1859ZM40.7064 231.449V232.287H33.1273V228.732H34.1048V231.449H40.7064ZM32.8226 222.067V223.972H36.1107V222.067H37.1009V227.641H31.8451V222.067H32.8226ZM32.8226 226.828H36.1107V224.759H32.8226V226.828ZM49.1239 224.276C49.1239 226.27 50.4442 228.313 52.0438 229.101L51.4345 229.9C50.1903 229.247 49.1493 227.914 48.6542 226.346C48.1464 228.015 47.08 229.437 45.8104 230.116L45.1757 229.316C46.8261 228.504 48.1337 226.333 48.1464 224.276V222.22H49.1239V224.276ZM54.0751 221.242V225.825H55.9667V226.688H54.0751V232.528H53.0848V221.242H54.0751ZM66.5993 226.828V227.653H56.3161V226.828H58.8678V225.241C57.9664 224.892 57.4586 224.314 57.4586 223.553C57.4586 222.22 58.9821 221.458 61.4577 221.458C63.9079 221.458 65.444 222.22 65.444 223.553C65.444 224.308 64.9425 224.886 64.0475 225.229V226.828H66.5993ZM61.4577 228.517C63.8825 228.517 65.3297 229.215 65.3424 230.51C65.3297 231.792 63.8825 232.503 61.4577 232.503C59.0075 232.503 57.5602 231.792 57.5602 230.51C57.5602 229.215 59.0075 228.517 61.4577 228.517ZM61.4577 229.278C59.6422 229.291 58.5631 229.735 58.5758 230.51C58.5631 231.271 59.6422 231.729 61.4577 231.729C63.2477 231.729 64.3395 231.271 64.3395 230.51C64.3395 229.735 63.2477 229.291 61.4577 229.278ZM61.4577 222.245C59.6168 222.245 58.4743 222.74 58.487 223.553C58.4743 224.378 59.6168 224.86 61.4577 224.86C63.2858 224.86 64.4284 224.378 64.4284 223.553C64.4284 222.74 63.2858 222.245 61.4577 222.245ZM59.858 226.828H63.0573V225.508C62.5812 225.59 62.048 225.635 61.4577 225.635C60.8673 225.635 60.3341 225.59 59.858 225.508V226.828ZM71.1127 224.708C71.1 226.523 72.4076 228.517 74.0453 229.291L73.474 230.078C72.2045 229.462 71.1317 228.117 70.6303 226.587C70.1098 228.25 68.9735 229.71 67.7104 230.357L67.101 229.57C68.726 228.783 70.1225 226.638 70.1352 224.708V223.235H67.5072V222.41H73.6518V223.235H71.1127V224.708ZM76.0258 221.242V225.812H77.9174V226.663H76.0258V232.528H75.0355V221.242H76.0258Z" fill="#36363D"/>
<circle cx="49" cy="311.5" r="25" fill="#FEF6B3"/>
<circle cx="48.879" cy="311.379" r="20" fill="#FAE100"/>
<path d="M58.3203 314.683L53.3961 312.334L51.3139 311.341C52.2233 310.768 52.9619 309.883 53.4452 308.818C53.8483 307.931 54.0568 306.967 54.0568 305.992C54.0568 305.417 53.9656 304.872 53.8386 304.345C53.2191 301.794 51.2271 299.915 48.8358 299.915C46.4897 299.915 44.5279 301.727 43.8701 304.206C43.7182 304.774 43.6138 305.365 43.6138 305.992C43.6138 307.079 43.8679 308.093 44.2996 308.975C44.7987 309.999 45.5385 310.842 46.4391 311.385L44.4449 312.313L39.361 314.681C38.9195 314.888 38.6293 315.386 38.6293 315.942V321.528C38.6293 322.277 39.151 322.884 39.7949 322.884H47.3456V318.607C47.3467 318.563 47.3596 318.52 47.3831 318.482L47.3799 318.48L48.6166 316.338L48.6198 316.34C48.6638 316.265 48.7421 316.211 48.8358 316.211C48.9295 316.211 49.0078 316.264 49.0518 316.34L49.0531 316.339L49.0644 316.359C49.066 316.362 49.0682 316.365 49.0694 316.368L50.2898 318.481L50.2882 318.482C50.3117 318.52 50.3246 318.563 50.3256 318.607V322.884H57.8763C58.5203 322.884 59.0423 322.277 59.0423 321.528V315.942C59.0432 315.388 58.7577 314.894 58.3203 314.683ZM50.2891 313.25L50.2923 313.252L49.0553 315.394L49.0521 315.392C49.0307 315.431 48.9994 315.463 48.9614 315.486C48.9235 315.508 48.8802 315.521 48.8361 315.521C48.7919 315.521 48.7487 315.508 48.7108 315.486C48.6728 315.463 48.6415 315.431 48.6201 315.392L48.6185 315.393L48.6059 315.372C48.605 315.369 48.6031 315.368 48.6022 315.365L47.3818 313.251L47.3831 313.25C47.3596 313.213 47.3467 313.17 47.3456 313.126C47.3456 312.986 47.4592 312.872 47.5991 312.872H50.0725C50.2124 312.872 50.3259 312.986 50.3259 313.126C50.3254 313.17 50.3127 313.213 50.2891 313.25Z" fill="#4A4A52"/>
<path d="M13.6232 347.242V358.528H12.633V347.242H13.6232ZM4.43184 355.52C5.39668 355.513 6.50117 355.507 7.64375 355.469V354.237C6.2917 354.091 5.40937 353.323 5.42207 352.193C5.40937 350.924 6.50117 350.099 8.12617 350.099C9.75117 350.099 10.8557 350.924 10.8557 352.193C10.8557 353.311 9.97969 354.079 8.64668 354.225V355.431C9.73848 355.386 10.843 355.304 11.884 355.164L11.9602 355.926C9.44648 356.332 6.67891 356.37 4.58418 356.37L4.43184 355.52ZM11.592 348.639V349.451H4.67305V348.639H7.64375V347.255H8.64668V348.639H11.592ZM8.12617 350.873C7.08516 350.873 6.34883 351.406 6.34883 352.193C6.34883 352.98 7.08516 353.488 8.12617 353.476C9.17988 353.488 9.90351 352.98 9.90351 352.193C9.90351 351.406 9.17988 350.873 8.12617 350.873ZM25.0048 347.242V358.528H24.0527V347.242H25.0048ZM22.7197 347.547V357.957H21.7675V354.047H19.6728V353.222H21.7675V351.216H19.8632C19.311 353.126 18.0732 354.815 15.9404 356.091L15.331 355.367C17.7876 353.914 19.019 351.876 19.2158 349.515H15.8388V348.689H20.206C20.206 349.267 20.1552 349.838 20.0537 350.391H21.7675V347.547H22.7197ZM33.0161 347.877L30.0454 358.884H29.0552L32.0132 347.877H33.0161ZM45.7246 347.255V355.507H44.7344V347.255H45.7246ZM46.0801 357.449V358.287H38.4375V354.669H39.4277V357.449H46.0801ZM39.6309 348.042C41.3193 348.042 42.5889 349.185 42.5889 350.81C42.5889 352.46 41.3193 353.59 39.6309 353.59C37.9424 353.59 36.6729 352.46 36.6729 350.81C36.6729 349.185 37.9424 348.042 39.6309 348.042ZM39.6309 348.918C38.4883 348.918 37.6377 349.705 37.6504 350.81C37.6377 351.939 38.4883 352.714 39.6309 352.714C40.748 352.714 41.6113 351.939 41.6113 350.81C41.6113 349.705 40.748 348.918 39.6309 348.918ZM51.1648 350.276C51.1648 352.27 52.4851 354.313 54.0847 355.101L53.4753 355.9C52.2312 355.247 51.1902 353.914 50.6951 352.346C50.1873 354.015 49.1209 355.437 47.8513 356.116L47.2166 355.316C48.867 354.504 50.1746 352.333 50.1873 350.276V348.22H51.1648V350.276ZM56.116 347.242V351.825H58.0076V352.688H56.116V358.528H55.1257V347.242H56.116ZM70.1829 347.242V350.01H71.8841V350.848H70.1829V353.653H69.1927V347.242H70.1829ZM66.8948 348.017V348.829H62.8831V352.155C65.1492 352.168 66.4378 352.085 67.9485 351.787L68.0755 352.6C66.4886 352.917 65.1428 352.98 62.7688 352.98H61.8928V348.017H66.8948ZM70.1829 354.237V358.376H63.0608V354.237H70.1829ZM64.0384 355.05V357.563H69.1927V355.05H64.0384ZM81.1709 347.242V350.188H82.8594V351.025H81.1709V353.983H80.168V347.242H81.1709ZM77.5401 354.199C79.8379 354.199 81.2598 354.999 81.2598 356.345C81.2598 357.716 79.8379 358.503 77.5401 358.503C75.2295 358.503 73.795 357.716 73.795 356.345C73.795 354.999 75.2295 354.199 77.5401 354.199ZM77.5401 355.024C75.8389 355.012 74.7725 355.52 74.7725 356.345C74.7725 357.183 75.8389 357.703 77.5401 357.703C79.2286 357.703 80.295 357.183 80.295 356.345C80.295 355.52 79.2286 355.012 77.5401 355.024ZM77.8702 348.105V348.931H73.8331V352.244C76.1182 352.231 77.4385 352.162 78.9493 351.851L79.0508 352.676C77.4766 352.993 76.1182 353.057 73.7315 353.057H72.8555V348.105H77.8702ZM87.1316 350.708C87.1189 352.523 88.4266 354.517 90.0643 355.291L89.493 356.078C88.2234 355.462 87.1507 354.117 86.6492 352.587C86.1287 354.25 84.9925 355.71 83.7293 356.357L83.1199 355.57C84.7449 354.783 86.1414 352.638 86.1541 350.708V349.235H83.5262V348.41H89.6707V349.235H87.1316V350.708ZM92.0447 347.242V351.812H93.9363V352.663H92.0447V358.528H91.0545V347.242H92.0447Z" fill="#36363D"/>
<circle cx="98" cy="94" r="7" fill="#888B8F" fill-opacity="0.2"/>
<circle cx="98" cy="94" r="3" fill="#9E9FA3"/>
<circle cx="98" cy="186" r="7" fill="#888B8F" fill-opacity="0.2"/>
<circle cx="98" cy="186" r="3" fill="#9E9FA3"/>
<rect x="118" width="178" height="38" rx="19" fill="#73777A" fill-opacity="0.1"/>
<path d="M167.764 13.4727C169.377 13.459 170.622 14.3955 170.895 15.7695H173.288V12.9121H174.586V19.4883H173.288V16.8359H170.909C170.642 18.2441 169.391 19.1875 167.764 19.1875C165.891 19.1875 164.551 18.0117 164.551 16.3164C164.551 14.6484 165.891 13.459 167.764 13.4727ZM167.764 14.5527C166.602 14.5527 165.795 15.2637 165.795 16.3164C165.795 17.3691 166.602 18.0938 167.764 18.0938C168.899 18.0938 169.706 17.3691 169.706 16.3164C169.706 15.2637 168.899 14.5527 167.764 14.5527ZM167.887 20.0762V21.498H173.288V20.0762H174.586V25.0117H166.602V20.0762H167.887ZM167.887 23.9453H173.288V22.5234H167.887V23.9453ZM187.39 19.9395V20.9922H182.387V25.1484H181.115V20.9922H176.179V19.9395H187.39ZM185.982 13.5684V18.3809H177.588V13.5684H185.982ZM178.859 14.6074V17.3691H184.683V14.6074H178.859ZM194.835 13.8418V14.5254C194.821 15.3457 194.821 16.5625 194.521 18.1484L193.235 18.0254C193.502 16.665 193.543 15.6807 193.564 14.9082H188.655V13.8418H194.835ZM191.704 16.5898V19.1191C193.017 19.0781 194.37 18.9824 195.601 18.8047L195.683 19.748C193.126 20.1992 190.2 20.2402 188.04 20.2539L187.917 19.2012C188.669 19.1943 189.524 19.1875 190.419 19.1602V16.5898H191.704ZM197.706 12.9121V16.8086H199.388V17.9023H197.706V22.1133H196.38V12.9121H197.706ZM198.103 23.8496V24.9023H189.776V21.2793H191.075V23.8496H198.103ZM210.004 12.9121V25.1895H208.705V12.9121H210.004ZM206.258 14.0195V18.4902H201.856V21.1699C203.838 21.1631 205.575 21.0742 207.625 20.7324L207.748 21.7988C205.575 22.168 203.729 22.25 201.569 22.25H200.53V17.4512H204.932V15.0723H200.516V14.0195H206.258ZM221.011 16.6309V18.1484H225.96V19.1875H214.79V18.1484H219.726V16.6309H221.011ZM221.024 13.4043C221.024 14.8945 222.911 16.0566 225.331 16.3164L224.88 17.3145C222.877 17.041 221.141 16.248 220.354 14.9766C219.568 16.248 217.832 17.041 215.843 17.3145L215.378 16.3164C217.811 16.0566 219.698 14.8945 219.712 13.4043V13.0078H221.024V13.4043ZM224.552 20.0762V22.9883H217.415V24.041H224.893V25.0391H216.143V22.0449H223.267V21.0742H216.13V20.0762H224.552ZM236.481 13.3633V16.6992H229.262V18.1074H236.74V19.1602H227.963V15.7012H235.154V14.416H227.922V13.3633H236.481ZM237.807 20.3223V21.3613H232.83V25.1895H231.531V21.3613H226.596V20.3223H237.807ZM242.749 15.127C242.749 16.8906 243.857 18.5723 245.675 19.2832L244.964 20.2949C243.624 19.7549 242.64 18.6816 242.121 17.3418C241.594 18.7773 240.548 19.9121 239.126 20.4863L238.429 19.4473C240.316 18.75 241.451 17 241.464 15.127V13.6094H242.749V15.127ZM248.642 12.9258V22.0449H247.343V18.1895H244.964V17.1367H247.343V15.7148H244.964V14.6621H247.343V12.9258H248.642ZM248.916 23.8496V24.9023H240.644V21.1289H241.957V23.8496H248.916Z" fill="#5E6066"/>
<rect x="118" y="55" width="178" height="78" rx="19" stroke="#F0F0F0" stroke-width="2"/>
<path d="M171.371 97.1589C171.187 99.2869 169.604 100.783 167.158 100.783C165.24 100.783 163.841 100.201 163.281 99.8144C162.931 99.5687 162.79 99.3231 162.79 98.8281V89.3873C162.79 88.4298 163.372 87.8482 164.242 87.8482C165.113 87.8482 165.695 88.4298 165.695 89.3873V91.2335C166.154 91.024 166.891 90.8831 167.516 90.8831C169.608 90.8831 171.19 92.3789 171.375 94.5069C171.436 95.2115 171.436 96.4399 171.375 97.1625L171.371 97.1589ZM167.01 98.0043C167.978 98.0043 168.444 97.4082 168.506 96.5808C168.542 96.1219 168.549 95.6486 168.506 95.085C168.444 94.2576 167.978 93.6615 167.01 93.6615C166.537 93.6615 165.991 93.7843 165.691 93.9939V97.6683C165.991 97.8779 166.537 98.0007 167.01 98.0007V98.0043Z" fill="#262626"/>
<path d="M175.801 88.7696C175.801 89.6837 175.125 90.3702 174.237 90.3702C173.348 90.3702 172.672 89.6837 172.672 88.7696C172.672 87.8556 173.348 87.2052 174.237 87.2052C175.125 87.2052 175.801 87.8808 175.801 88.7696ZM172.795 92.5091C172.795 91.5517 173.377 90.97 174.247 90.97C175.118 90.97 175.7 91.5517 175.7 92.5091V99.157C175.7 100.114 175.118 100.696 174.247 100.696C173.377 100.696 172.795 100.114 172.795 99.157V92.5091Z" fill="#262626"/>
<path d="M184.928 99.2627C184.928 100.072 184.418 100.607 183.468 100.607H178.164C177.286 100.607 176.82 100.115 176.82 99.3856C176.82 98.8147 177.048 98.4606 177.402 98.0415L180.99 93.7312L178.511 93.7384C177.561 93.7384 177.052 93.1929 177.052 92.3944C177.052 91.5959 177.561 91.0576 178.511 91.0576H183.504C184.303 91.0576 184.885 91.4008 184.885 92.2463C184.885 92.8894 184.628 93.3013 184.252 93.7493L180.78 97.9187H183.472C184.422 97.9187 184.931 98.4534 184.931 99.2627H184.928Z" fill="#262626"/>
<path d="M194.716 97.1589C194.532 99.2869 192.949 100.783 190.503 100.783C188.585 100.783 187.187 100.201 186.626 99.8144C186.276 99.5687 186.135 99.3231 186.135 98.8281V89.3873C186.135 88.4298 186.717 87.8482 187.588 87.8482C188.458 87.8482 189.04 88.4298 189.04 89.3873V91.2335C189.499 91.024 190.236 90.8831 190.861 90.8831C192.953 90.8831 194.535 92.3789 194.72 94.5069C194.781 95.2115 194.781 96.4399 194.72 97.1625L194.716 97.1589ZM190.355 98.0043C191.323 98.0043 191.789 97.4082 191.851 96.5808C191.887 96.1219 191.894 95.6486 191.851 95.085C191.789 94.2576 191.323 93.6615 190.355 93.6615C189.882 93.6615 189.336 93.7843 189.036 93.9939V97.6683C189.336 97.8779 189.882 98.0007 190.355 98.0007V98.0043Z" fill="#262626"/>
<path d="M195.905 97.1149C195.85 96.4537 195.843 95.3229 195.897 94.7303C196.1 92.5047 197.718 90.8789 200.294 90.8789C202.87 90.8789 204.366 92.4722 204.366 94.958V95.3626C204.366 96.5332 204.102 96.6994 203.073 96.6994H198.578V96.8331C198.571 97.6785 199.315 98.2494 200.461 98.2494C201.183 98.2494 201.656 98.0904 201.927 97.9929C202.289 97.87 202.542 97.7219 202.878 97.7219C203.564 97.7219 204.074 98.1627 204.074 98.9106C204.074 99.6585 203.553 100.02 203.116 100.211C202.545 100.468 201.479 100.782 200.374 100.782C197.805 100.782 196.074 99.243 195.908 97.1149H195.905ZM201.761 94.8387C201.841 93.8632 201.18 93.2201 200.168 93.2201C199.156 93.2201 198.654 93.8704 198.585 94.8387H201.761Z" fill="#262626"/>
<path d="M205.413 97.1149C205.359 96.4537 205.352 95.3229 205.406 94.7303C205.608 92.5047 207.227 90.8789 209.803 90.8789C212.379 90.8789 213.875 92.4722 213.875 94.958V95.3626C213.875 96.5332 213.611 96.6994 212.581 96.6994H208.087V96.8331C208.079 97.6785 208.824 98.2494 209.969 98.2494C210.692 98.2494 211.165 98.0904 211.436 97.9929C211.797 97.87 212.05 97.7219 212.386 97.7219C213.073 97.7219 213.582 98.1627 213.582 98.9106C213.582 99.6585 213.062 100.02 212.625 100.211C212.054 100.468 210.988 100.782 209.882 100.782C207.313 100.782 205.583 99.243 205.417 97.1149H205.413ZM211.27 94.8387C211.349 93.8632 210.688 93.2201 209.676 93.2201C208.665 93.2201 208.162 93.8704 208.094 94.8387H211.27Z" fill="#262626"/>
<path d="M218.5 95.7365C218.42 94.8224 218.42 93.9264 218.5 93.0123C218.745 90.1905 221.076 87.9649 224.136 87.9649C226.087 87.9649 227.962 88.8971 228.724 90.4977C228.891 90.8481 228.952 91.1841 228.952 91.4659C228.952 92.2825 228.356 92.8208 227.547 92.8208C226.914 92.8208 226.51 92.4956 226.184 91.9934C225.787 91.3792 225.166 90.7903 224.049 90.7903C222.608 90.7903 221.578 91.8814 221.491 93.4206C221.455 94.0276 221.455 94.7321 221.491 95.3391C221.589 96.8782 222.608 97.9693 224.049 97.9693C225.166 97.9693 225.791 97.3804 226.184 96.7662C226.51 96.264 226.914 95.9388 227.547 95.9388C228.356 95.9388 228.952 96.4736 228.952 97.2937C228.952 97.5755 228.891 97.9079 228.724 98.262C227.958 99.8626 226.087 100.795 224.136 100.795C221.076 100.795 218.745 98.5691 218.5 95.7473V95.7365Z" fill="#262626"/>
<path d="M233.346 93.6504H237.357C238.235 93.6504 238.798 94.1779 238.798 94.9764C238.798 95.7748 238.235 96.3023 237.357 96.3023H233.346V99.0988C233.346 100.092 232.757 100.689 231.861 100.689C230.965 100.689 230.376 100.092 230.376 99.0988V90.1602C230.376 88.8415 231.07 88.1369 232.389 88.1369H237.779C238.686 88.1369 239.246 88.6825 239.246 89.5099C239.246 90.3373 238.683 90.8828 237.779 90.8828H233.346V93.654V93.6504Z" fill="#262626"/>
<path d="M239.982 95.7365C239.914 94.8296 239.921 93.9264 239.99 93.0123C240.21 90.1002 242.53 87.9649 245.572 87.9649C248.614 87.9649 250.962 90.1002 251.165 93.0123C251.226 93.9192 251.226 94.8224 251.157 95.7365C250.937 98.6486 248.607 100.784 245.575 100.784C242.544 100.784 240.21 98.6486 239.982 95.7365ZM242.945 95.3933C243.043 97.0191 244.087 98.0416 245.575 98.0416C247.064 98.0416 248.097 97.0227 248.206 95.3933C248.249 94.7321 248.231 94.0312 248.188 93.3519C248.083 91.7152 247.046 90.7036 245.575 90.7036C244.105 90.7036 243.025 91.7225 242.938 93.3519C242.902 94.0131 242.902 94.714 242.945 95.3933Z" fill="#262626"/>
<rect x="118" y="147" width="178" height="78" rx="19" stroke="#F0F0F0" stroke-width="2"/>
<path d="M159.802 189.318C159.614 191.488 158 193.014 155.505 193.014C153.549 193.014 152.122 192.421 151.551 192.026C151.194 191.776 151.05 191.525 151.05 191.02V181.387C151.05 180.411 151.643 179.817 152.531 179.817C153.42 179.817 154.013 180.411 154.013 181.387V183.27C154.481 183.057 155.233 182.913 155.87 182.913C158.004 182.913 159.618 184.439 159.806 186.609C159.869 187.328 159.869 188.581 159.806 189.318H159.802ZM155.354 190.176C156.342 190.176 156.817 189.568 156.88 188.724C156.917 188.256 156.924 187.774 156.88 187.199C156.817 186.355 156.342 185.747 155.354 185.747C154.871 185.747 154.315 185.872 154.009 186.089V189.837C154.315 190.051 154.871 190.176 155.354 190.176Z" fill="#262626"/>
<path d="M164.319 180.762C164.319 181.694 163.63 182.395 162.724 182.395C161.817 182.395 161.128 181.694 161.128 180.762C161.128 179.83 161.817 179.166 162.724 179.166C163.63 179.166 164.319 179.856 164.319 180.762ZM161.253 184.573C161.253 183.596 161.847 183.003 162.735 183.003C163.623 183.003 164.216 183.596 164.216 184.573V191.353C164.216 192.33 163.623 192.923 162.735 192.923C161.847 192.923 161.253 192.33 161.253 191.353V184.573Z" fill="#262626"/>
<path d="M173.629 191.461C173.629 192.286 173.109 192.832 172.14 192.832H166.73C165.835 192.832 165.36 192.33 165.36 191.586C165.36 191.004 165.592 190.643 165.953 190.215L169.612 185.819L167.084 185.826C166.115 185.826 165.595 185.27 165.595 184.455C165.595 183.641 166.115 183.092 167.084 183.092H172.177C172.992 183.092 173.585 183.442 173.585 184.304C173.585 184.96 173.323 185.38 172.94 185.837L169.399 190.09H172.144C173.113 190.09 173.633 190.635 173.633 191.461H173.629Z" fill="#262626"/>
<path d="M183.611 189.318C183.423 191.488 181.809 193.014 179.314 193.014C177.357 193.014 175.931 192.421 175.36 192.026C175.002 191.776 174.859 191.525 174.859 191.02V181.387C174.859 180.411 175.452 179.817 176.34 179.817C177.228 179.817 177.822 180.411 177.822 181.387V183.27C178.29 183.057 179.041 182.913 179.679 182.913C181.813 182.913 183.427 184.439 183.615 186.609C183.677 187.328 183.677 188.581 183.615 189.318H183.611ZM179.163 190.176C180.151 190.176 180.626 189.568 180.689 188.724C180.725 188.256 180.733 187.774 180.689 187.199C180.626 186.355 180.151 185.747 179.163 185.747C178.68 185.747 178.124 185.872 177.818 186.089V189.837C178.124 190.051 178.68 190.176 179.163 190.176Z" fill="#262626"/>
<path d="M184.829 189.271C184.773 188.597 184.766 187.444 184.821 186.839C185.028 184.569 186.678 182.911 189.306 182.911C191.933 182.911 193.459 184.536 193.459 187.071V187.484C193.459 188.678 193.19 188.848 192.14 188.848H187.556V188.984C187.548 189.846 188.307 190.429 189.475 190.429C190.213 190.429 190.695 190.266 190.972 190.167C191.34 190.042 191.598 189.891 191.941 189.891C192.641 189.891 193.161 190.34 193.161 191.103C193.161 191.866 192.63 192.234 192.184 192.43C191.602 192.691 190.515 193.012 189.387 193.012C186.767 193.012 185.002 191.442 184.832 189.271H184.829ZM190.802 186.95C190.883 185.955 190.209 185.299 189.177 185.299C188.145 185.299 187.633 185.962 187.563 186.95H190.802Z" fill="#262626"/>
<path d="M194.526 189.271C194.47 188.597 194.463 187.444 194.518 186.839C194.725 184.569 196.376 182.911 199.003 182.911C201.631 182.911 203.156 184.536 203.156 187.071V187.484C203.156 188.678 202.887 188.848 201.837 188.848H197.253V188.984C197.245 189.846 198.004 190.429 199.173 190.429C199.91 190.429 200.392 190.266 200.669 190.167C201.037 190.042 201.295 189.891 201.638 189.891C202.338 189.891 202.858 190.34 202.858 191.103C202.858 191.866 202.327 192.234 201.881 192.43C201.299 192.691 200.212 193.012 199.084 193.012C196.464 193.012 194.699 191.442 194.529 189.271H194.526ZM200.499 186.95C200.58 185.955 199.906 185.299 198.874 185.299C197.842 185.299 197.33 185.962 197.26 186.95H200.499Z" fill="#262626"/>
<path d="M208.261 190.771V182.178C208.261 180.833 208.979 180.114 210.324 180.114H215.83C216.755 180.114 217.326 180.671 217.326 181.514C217.326 182.358 216.751 182.915 215.83 182.915H211.301V185.203H215.336C216.187 185.203 216.725 185.723 216.725 186.504C216.725 187.285 216.187 187.805 215.336 187.805H211.301V190.038H215.848C216.773 190.038 217.345 190.595 217.345 191.438C217.345 192.282 216.77 192.839 215.848 192.839H210.324C208.979 192.839 208.261 192.131 208.261 190.775V190.771Z" fill="#262626"/>
<path d="M229.202 191.597C229.202 192.43 228.583 192.968 227.794 192.968C227.12 192.968 226.693 192.555 226.298 192.061L223.859 189.028C223.615 188.723 223.597 188.715 223.151 188.715H221.994V191.298C221.994 192.312 221.393 192.92 220.479 192.92C219.565 192.92 218.965 192.312 218.965 191.298V182.178C218.965 180.833 219.672 180.114 221.017 180.114H224.496C227.43 180.114 228.955 182.008 228.955 184.474C228.955 185.955 228.192 187.3 226.704 187.963L228.524 190.127C228.963 190.657 229.206 191.122 229.206 191.597H229.202ZM224.209 185.962C225.436 185.962 225.897 185.369 225.897 184.481C225.897 183.53 225.44 182.911 224.209 182.911H221.994V185.959H224.209V185.962Z" fill="#262626"/>
<path d="M240.698 184.599C240.698 187.289 238.878 189.039 235.963 189.039H233.693V191.298C233.693 192.312 233.092 192.92 232.178 192.92C231.264 192.92 230.664 192.312 230.664 191.298V182.178C230.664 180.833 231.371 180.114 232.716 180.114H236.125C238.771 180.114 240.698 181.71 240.698 184.599ZM235.863 186.242C237.127 186.242 237.647 185.561 237.647 184.617C237.647 183.597 237.109 182.915 235.897 182.915H233.689V186.242H235.86H235.863Z" fill="#262626"/>
<path d="M261.347 178.986H244.871C243.986 178.986 243.271 179.701 243.271 180.585V189.408C243.271 190.292 243.986 191.007 244.871 191.007H247.336V192.831L250.328 191.007H261.351C262.235 191.007 262.95 190.292 262.95 189.408V180.585C262.95 179.701 262.235 178.986 261.351 178.986H261.347Z" fill="#36BFFA"/>
<path d="M249.911 187.379C249.911 187.784 249.635 188.05 249.192 188.05H246.561C245.935 188.05 245.614 187.692 245.717 187.062L246.458 182.614C246.535 182.146 246.801 181.885 247.21 181.885C247.645 181.885 247.921 182.143 247.921 182.585C247.921 182.64 247.914 182.743 247.903 182.81L247.254 186.712H249.192C249.635 186.712 249.911 186.977 249.911 187.383V187.379Z" fill="white"/>
<path d="M250.452 187.221L250.975 184.023C251.049 183.566 251.311 183.337 251.705 183.337C252.125 183.337 252.398 183.562 252.398 183.989C252.398 184.045 252.39 184.144 252.379 184.211L251.856 187.409C251.782 187.866 251.521 188.095 251.126 188.095C250.706 188.095 250.437 187.87 250.437 187.442C250.437 187.387 250.441 187.288 250.452 187.221ZM252.748 182.224C252.748 182.637 252.412 183.046 251.955 183.046C251.524 183.046 251.215 182.718 251.215 182.298C251.215 181.878 251.572 181.498 252.037 181.498C252.446 181.498 252.748 181.815 252.748 182.224Z" fill="white"/>
<path d="M255.706 184.648H254.719L254.446 186.299C254.428 186.395 254.42 186.476 254.42 186.538C254.42 186.712 254.534 186.826 254.774 186.826C254.907 186.826 255.006 186.807 255.098 186.782C255.224 186.752 255.33 186.712 255.489 186.712C255.813 186.712 256.071 186.951 256.071 187.294C256.071 187.607 255.909 187.836 255.511 187.983C255.305 188.06 254.903 188.134 254.619 188.134C253.639 188.134 252.968 187.648 252.968 186.723C252.968 186.605 252.976 186.483 252.998 186.354L253.554 183.015C253.632 182.559 253.89 182.33 254.284 182.33C254.704 182.33 254.973 182.555 254.973 182.982C254.973 183.038 254.969 183.137 254.958 183.203L254.936 183.377H255.706C256.163 183.377 256.406 183.627 256.406 184.014C256.406 184.401 256.16 184.648 255.706 184.648Z" fill="white"/>
<path d="M260.061 186.215H257.986L257.971 186.274C257.964 186.318 257.957 186.355 257.957 186.388C257.957 186.724 258.207 186.926 258.686 186.926C259.073 186.926 259.298 186.819 259.412 186.764C259.53 186.709 259.663 186.62 259.869 186.62C260.149 186.62 260.426 186.823 260.426 187.17C260.426 187.498 260.146 187.726 259.869 187.87C259.567 188.028 259.106 188.135 258.705 188.135C257.459 188.135 256.645 187.516 256.645 186.333C256.645 185.869 256.74 185.467 256.818 185.091C257.072 183.853 258.078 183.293 259.025 183.293C260.028 183.293 260.868 183.86 260.868 185.032C260.868 185.157 260.868 185.305 260.783 185.692C260.676 186.171 260.588 186.211 260.061 186.211V186.215ZM259.453 185.301C259.512 185.301 259.537 185.275 259.556 185.198C259.574 185.121 259.582 185.054 259.582 184.992C259.582 184.682 259.372 184.424 258.981 184.424C258.59 184.424 258.288 184.664 258.163 185.15C258.156 185.198 258.141 185.25 258.133 185.301H259.453Z" fill="white"/>
<rect x="118" y="239" width="178" height="78" rx="19" stroke="#F0F0F0" stroke-width="2"/>
<path d="M173.724 268.479C173.551 270.481 172.062 271.888 169.76 271.888C167.955 271.888 166.643 271.341 166.112 270.977C165.783 270.746 165.65 270.515 165.65 270.049V261.163C165.65 260.262 166.197 259.714 167.017 259.714C167.836 259.714 168.383 260.262 168.383 261.163V262.9C168.815 262.703 169.508 262.57 170.097 262.57C172.065 262.57 173.554 263.977 173.727 265.98C173.785 266.643 173.785 267.799 173.727 268.479H173.724ZM169.621 269.274C170.532 269.274 170.97 268.713 171.028 267.935C171.062 267.503 171.069 267.057 171.028 266.527C170.97 265.749 170.532 265.188 169.621 265.188C169.175 265.188 168.662 265.303 168.38 265.5V268.958C168.662 269.155 169.175 269.271 169.621 269.271V269.274Z" fill="#262626"/>
<path d="M177.892 260.584C177.892 261.444 177.256 262.09 176.42 262.09C175.583 262.09 174.948 261.444 174.948 260.584C174.948 259.724 175.583 259.112 176.42 259.112C177.256 259.112 177.892 259.748 177.892 260.584ZM175.06 264.099C175.06 263.198 175.607 262.651 176.427 262.651C177.246 262.651 177.793 263.198 177.793 264.099V270.354C177.793 271.255 177.246 271.802 176.427 271.802C175.607 271.802 175.06 271.255 175.06 270.354V264.099Z" fill="#262626"/>
<path d="M186.487 270.456C186.487 271.217 186.008 271.721 185.114 271.721H180.127C179.301 271.721 178.862 271.258 178.862 270.572C178.862 270.034 179.076 269.701 179.409 269.307L182.785 265.251L180.453 265.258C179.559 265.258 179.08 264.745 179.08 263.993C179.08 263.242 179.559 262.736 180.453 262.736H185.151C185.903 262.736 186.45 263.059 186.45 263.854C186.45 264.459 186.208 264.847 185.855 265.268L182.588 269.191H185.121C186.015 269.191 186.494 269.694 186.494 270.456H186.487Z" fill="#262626"/>
<path d="M195.686 268.479C195.513 270.481 194.024 271.888 191.722 271.888C189.917 271.888 188.605 271.341 188.075 270.977C187.745 270.746 187.612 270.515 187.612 270.049V261.163C187.612 260.262 188.16 259.714 188.979 259.714C189.798 259.714 190.345 260.262 190.345 261.163V262.9C190.777 262.703 191.471 262.57 192.059 262.57C194.027 262.57 195.516 263.977 195.69 265.98C195.747 266.643 195.747 267.799 195.69 268.479H195.686ZM191.583 269.274C192.494 269.274 192.933 268.713 192.99 267.935C193.024 267.503 193.031 267.057 192.99 266.527C192.933 265.749 192.494 265.188 191.583 265.188C191.138 265.188 190.624 265.303 190.342 265.5V268.958C190.624 269.155 191.138 269.271 191.583 269.271V269.274Z" fill="#262626"/>
<path d="M196.815 268.433C196.764 267.811 196.757 266.747 196.808 266.19C196.999 264.096 198.522 262.566 200.945 262.566C203.369 262.566 204.777 264.065 204.777 266.404V266.785C204.777 267.886 204.529 268.043 203.56 268.043H199.331V268.168C199.324 268.964 200.024 269.501 201.102 269.501C201.782 269.501 202.227 269.351 202.482 269.26C202.822 269.144 203.06 269.005 203.376 269.005C204.022 269.005 204.501 269.419 204.501 270.123C204.501 270.827 204.012 271.167 203.6 271.347C203.063 271.588 202.06 271.884 201.02 271.884C198.603 271.884 196.975 270.436 196.818 268.433H196.815ZM202.326 266.288C202.4 265.37 201.778 264.765 200.826 264.765C199.875 264.765 199.402 265.377 199.337 266.288H202.326Z" fill="#262626"/>
<path d="M205.758 268.433C205.707 267.811 205.7 266.747 205.751 266.19C205.941 264.096 207.464 262.566 209.888 262.566C212.312 262.566 213.72 264.065 213.72 266.404V266.785C213.72 267.886 213.471 268.043 212.503 268.043H208.274V268.168C208.267 268.964 208.967 269.501 210.045 269.501C210.725 269.501 211.17 269.351 211.425 269.26C211.765 269.144 212.003 269.005 212.319 269.005C212.965 269.005 213.444 269.419 213.444 270.123C213.444 270.827 212.955 271.167 212.543 271.347C212.006 271.588 211.003 271.884 209.963 271.884C207.546 271.884 205.918 270.436 205.761 268.433H205.758ZM211.269 266.288C211.343 265.37 210.721 264.765 209.769 264.765C208.817 264.765 208.345 265.377 208.28 266.288H211.269Z" fill="#262626"/>
<path d="M218.43 269.818V261.89C218.43 260.649 219.093 259.986 220.334 259.986H225.413C226.266 259.986 226.793 260.5 226.793 261.278C226.793 262.057 226.263 262.57 225.413 262.57H221.235V264.681H224.957C225.743 264.681 226.239 265.161 226.239 265.881C226.239 266.602 225.743 267.081 224.957 267.081H221.235V269.141H225.43C226.283 269.141 226.81 269.655 226.81 270.433C226.81 271.212 226.28 271.725 225.43 271.725H220.334C219.093 271.725 218.43 271.072 218.43 269.821V269.818Z" fill="#262626"/>
<path d="M237.745 270.58C237.745 271.348 237.173 271.844 236.446 271.844C235.824 271.844 235.429 271.463 235.066 271.008L232.815 268.21C232.591 267.928 232.574 267.921 232.163 267.921H231.095V270.304C231.095 271.239 230.541 271.8 229.698 271.8C228.855 271.8 228.301 271.239 228.301 270.304V261.89C228.301 260.649 228.953 259.986 230.194 259.986H233.403C236.109 259.986 237.517 261.734 237.517 264.008C237.517 265.375 236.813 266.616 235.44 267.228L237.119 269.223C237.524 269.713 237.748 270.141 237.748 270.58H237.745ZM233.138 265.385C234.27 265.385 234.695 264.838 234.695 264.018C234.695 263.141 234.274 262.57 233.138 262.57H231.095V265.382H233.138V265.385Z" fill="#262626"/>
<path d="M248.35 264.127C248.35 266.608 246.671 268.223 243.982 268.223H241.887V270.307C241.887 271.242 241.333 271.803 240.49 271.803C239.647 271.803 239.093 271.242 239.093 270.307V261.893C239.093 260.652 239.746 259.989 240.987 259.989H244.131C246.572 259.989 248.35 261.461 248.35 264.127ZM243.89 265.639C245.056 265.639 245.535 265.011 245.535 264.14C245.535 263.199 245.039 262.57 243.92 262.57H241.884V265.639H243.886H243.89Z" fill="#262626"/>
<path d="M142.212 282.63V293.916H141.222V282.63H142.212ZM133.021 290.908C133.985 290.901 135.09 290.895 136.232 290.857V289.625C134.88 289.479 133.998 288.711 134.011 287.581C133.998 286.312 135.09 285.487 136.715 285.487C138.34 285.487 139.444 286.312 139.444 287.581C139.444 288.699 138.568 289.467 137.235 289.613V290.819C138.327 290.774 139.432 290.692 140.473 290.552L140.549 291.314C138.035 291.72 135.268 291.758 133.173 291.758L133.021 290.908ZM140.181 284.027V284.839H133.262V284.027H136.232V282.643H137.235V284.027H140.181ZM136.715 286.261C135.674 286.261 134.938 286.794 134.938 287.581C134.938 288.369 135.674 288.876 136.715 288.864C137.769 288.876 138.492 288.369 138.492 287.581C138.492 286.794 137.769 286.261 136.715 286.261ZM153.594 282.63V293.916H152.641V282.63H153.594ZM151.308 282.935V293.345H150.356V289.435H148.261V288.61H150.356V286.604H148.452C147.9 288.515 146.662 290.203 144.529 291.479L143.92 290.755C146.376 289.302 147.608 287.264 147.804 284.903H144.427V284.078H148.795C148.795 284.655 148.744 285.227 148.642 285.779H150.356V282.935H151.308ZM160.075 289.118C159.63 289.118 159.25 288.749 159.262 288.292C159.25 287.848 159.63 287.48 160.075 287.48C160.519 287.48 160.887 287.848 160.887 288.292C160.887 288.749 160.519 289.118 160.075 289.118ZM169.235 285.842C169.235 287.632 170.111 289.575 171.609 290.463L171.037 291.238C169.952 290.578 169.171 289.372 168.778 288C168.359 289.498 167.521 290.787 166.391 291.479L165.756 290.73C167.318 289.816 168.27 287.81 168.27 285.88V283.697H169.235V285.842ZM175.557 282.63V293.916H174.592V282.63H175.557ZM173.221 282.872V293.345H172.282V287.531H170.365V286.68H172.282V282.872H173.221ZM187.18 289.194V290.019H182.47V293.916H181.492V290.019H176.846V289.194H187.18ZM185.834 283.265V287.658H178.179V283.265H185.834ZM179.156 284.078V286.871H184.844V284.078H179.156ZM194.531 283.265L191.56 294.272H190.57L193.528 283.265H194.531ZM207.239 282.643V290.895H206.249V282.643H207.239ZM207.595 292.837V293.675H199.952V290.057H200.942V292.837H207.595ZM201.146 283.43C202.834 283.43 204.104 284.573 204.104 286.198C204.104 287.848 202.834 288.978 201.146 288.978C199.457 288.978 198.188 287.848 198.188 286.198C198.188 284.573 199.457 283.43 201.146 283.43ZM201.146 284.306C200.003 284.306 199.152 285.093 199.165 286.198C199.152 287.328 200.003 288.102 201.146 288.102C202.263 288.102 203.126 287.328 203.126 286.198C203.126 285.093 202.263 284.306 201.146 284.306ZM212.68 285.664C212.68 287.658 214 289.702 215.599 290.489L214.99 291.289C213.746 290.635 212.705 289.302 212.21 287.734C211.702 289.403 210.636 290.825 209.366 291.504L208.731 290.705C210.382 289.892 211.689 287.721 211.702 285.664V283.608H212.68V285.664ZM217.631 282.63V287.213H219.522V288.077H217.631V293.916H216.64V282.63H217.631ZM232.015 287.772V288.61H228.511V291.619H233.208V292.444H222.874V291.619H227.521V288.61H224.144V283.595H225.16V287.772H232.015ZM244.171 289.194V290.019H239.461V293.916H238.484V290.019H233.837V289.194H244.171ZM242.825 283.265V287.658H235.17V283.265H242.825ZM236.148 284.078V286.871H241.835V284.078H236.148ZM253.452 286.083V287.569H258.111V288.381H247.828V287.569H252.474V286.083H253.452ZM253.464 283.151C253.464 284.611 255.47 285.69 257.527 285.918L257.172 286.68C255.394 286.439 253.674 285.671 252.969 284.433C252.246 285.671 250.519 286.439 248.755 286.68L248.399 285.918C250.456 285.69 252.462 284.611 252.462 283.151V282.719H253.464V283.151ZM256.791 289.321V291.885H250.088V293.002H257.133V293.789H249.097V291.136H255.813V290.095H249.072V289.321H256.791ZM267.868 283.087V286.02H261.063V287.48H268.109V288.305H260.06V285.233H266.852V283.9H260.035V283.087H267.868ZM269.124 289.498V290.298H264.427V293.942H263.437V290.298H258.79V289.498H269.124ZM273.638 284.725C273.638 286.375 274.768 287.937 276.405 288.584L275.847 289.359C274.603 288.845 273.638 287.816 273.168 286.528C272.679 287.918 271.664 289.022 270.35 289.562L269.804 288.762C271.48 288.115 272.648 286.49 272.66 284.725V283.278H273.638V284.725ZM279.135 282.643V291.073H278.132V287.455H275.809V286.642H278.132V285.144H275.809V284.319H278.132V282.643H279.135ZM279.389 292.837V293.675H271.835V290.197H272.838V292.837H279.389Z" fill="#9E9FA3"/>
<rect x="118" y="331" width="178" height="78" rx="19" stroke="#F0F0F0" stroke-width="2"/>
<path d="M177.316 360.4C177.148 362.349 175.698 363.72 173.457 363.72C171.699 363.72 170.418 363.187 169.905 362.833C169.584 362.608 169.455 362.382 169.455 361.929V353.276C169.455 352.399 169.988 351.866 170.786 351.866C171.583 351.866 172.116 352.399 172.116 353.276V354.968C172.537 354.776 173.212 354.647 173.785 354.647C175.701 354.647 177.151 356.017 177.32 357.967C177.376 358.612 177.376 359.738 177.32 360.4H177.316ZM173.321 361.171C174.208 361.171 174.635 360.621 174.692 359.867C174.725 359.446 174.731 359.013 174.692 358.496C174.635 357.738 174.208 357.192 173.321 357.192C172.888 357.192 172.388 357.305 172.113 357.497V360.863C172.388 361.055 172.888 361.168 173.321 361.168V361.171Z" fill="#262626"/>
<path d="M181.375 352.714C181.375 353.551 180.756 354.18 179.941 354.18C179.127 354.18 178.508 353.551 178.508 352.714C178.508 351.876 179.127 351.28 179.941 351.28C180.756 351.28 181.375 351.899 181.375 352.714ZM178.617 356.136C178.617 355.259 179.15 354.726 179.948 354.726C180.746 354.726 181.279 355.259 181.279 356.136V362.227C181.279 363.104 180.746 363.637 179.948 363.637C179.15 363.637 178.617 363.104 178.617 362.227V356.136Z" fill="#262626"/>
<path d="M189.73 362.323C189.73 363.065 189.263 363.555 188.392 363.555H183.533C182.729 363.555 182.302 363.104 182.302 362.436C182.302 361.913 182.51 361.588 182.835 361.204L186.122 357.256L183.851 357.262C182.98 357.262 182.514 356.762 182.514 356.031C182.514 355.299 182.98 354.806 183.851 354.806H188.426C189.157 354.806 189.69 355.121 189.69 355.895C189.69 356.484 189.455 356.862 189.111 357.272L185.93 361.092H188.396C189.266 361.092 189.733 361.582 189.733 362.323H189.73Z" fill="#262626"/>
<path d="M198.701 360.4C198.532 362.349 197.083 363.72 194.842 363.72C193.084 363.72 191.803 363.187 191.29 362.833C190.969 362.608 190.84 362.382 190.84 361.929V353.276C190.84 352.399 191.373 351.866 192.17 351.866C192.968 351.866 193.501 352.399 193.501 353.276V354.968C193.922 354.776 194.597 354.647 195.169 354.647C197.086 354.647 198.536 356.017 198.705 357.967C198.761 358.612 198.761 359.738 198.705 360.4H198.701ZM194.706 361.171C195.593 361.171 196.02 360.621 196.076 359.867C196.109 359.446 196.116 359.013 196.076 358.496C196.02 357.738 195.593 357.192 194.706 357.192C194.272 357.192 193.773 357.305 193.498 357.497V360.863C193.773 361.055 194.272 361.168 194.706 361.168V361.171Z" fill="#262626"/>
<path d="M199.79 360.356C199.74 359.75 199.734 358.714 199.784 358.171C199.969 356.132 201.452 354.642 203.812 354.642C206.172 354.642 207.542 356.102 207.542 358.379V358.75C207.542 359.823 207.301 359.975 206.357 359.975H202.24V360.097C202.233 360.872 202.915 361.395 203.964 361.395C204.626 361.395 205.06 361.249 205.308 361.16C205.639 361.047 205.871 360.912 206.179 360.912C206.808 360.912 207.274 361.315 207.274 362.001C207.274 362.686 206.798 363.017 206.397 363.192C205.874 363.427 204.898 363.715 203.885 363.715C201.531 363.715 199.946 362.305 199.793 360.356H199.79ZM205.156 358.27C205.229 357.376 204.623 356.787 203.696 356.787C202.769 356.787 202.309 357.383 202.246 358.27H205.156Z" fill="#262626"/>
<path d="M208.506 360.356C208.457 359.75 208.45 358.714 208.5 358.171C208.685 356.132 210.168 354.642 212.528 354.642C214.888 354.642 216.259 356.102 216.259 358.379V358.75C216.259 359.823 216.017 359.975 215.074 359.975H210.956V360.097C210.949 360.872 211.631 361.395 212.68 361.395C213.342 361.395 213.776 361.249 214.024 361.16C214.355 361.047 214.587 360.912 214.895 360.912C215.524 360.912 215.99 361.315 215.99 362.001C215.99 362.686 215.514 363.017 215.113 363.192C214.59 363.427 213.614 363.715 212.601 363.715C210.247 363.715 208.662 362.305 208.51 360.356H208.506ZM213.872 358.27C213.945 357.376 213.339 356.787 212.412 356.787C211.485 356.787 211.025 357.383 210.962 358.27H213.872Z" fill="#262626"/>
<path d="M229.094 353.373C229.094 354.147 228.577 354.647 227.75 354.647H225.565V362.181C225.565 363.091 225.026 363.641 224.205 363.641C223.384 363.641 222.844 363.091 222.844 362.181V354.647H220.676C219.845 354.647 219.332 354.147 219.332 353.373C219.332 352.598 219.849 352.131 220.676 352.131H227.75C228.581 352.131 229.094 352.631 229.094 353.373Z" fill="#262626"/>
<path d="M227.926 360.849C227.926 359.535 228.959 358.254 231.23 358.254C231.836 358.254 232.415 358.333 232.944 358.462V357.913C232.944 357.34 232.613 356.979 231.471 356.979C231.094 356.979 230.723 357.035 230.409 357.141C230.061 357.254 229.773 357.366 229.482 357.366C228.876 357.366 228.403 356.923 228.403 356.277C228.403 355.771 228.661 355.318 229.33 355.069C229.942 354.834 230.69 354.642 231.64 354.642C234.136 354.642 235.473 355.698 235.473 358.048V361.931C235.473 362.375 235.351 362.616 235.023 362.825C234.451 363.186 233.163 363.712 231.455 363.712C229.078 363.712 227.926 362.351 227.926 360.845V360.849ZM231.617 361.67C232.117 361.67 232.6 361.557 232.948 361.395V360.12C232.521 359.991 232.071 359.929 231.604 359.929C230.856 359.929 230.429 360.332 230.429 360.839C230.429 361.345 230.962 361.67 231.62 361.67H231.617Z" fill="#262626"/>
<path d="M242.162 363.057L240.454 361.091L238.762 363.057C238.415 363.461 238.087 363.636 237.65 363.636C236.948 363.636 236.376 363.13 236.376 362.372C236.376 361.995 236.594 361.654 236.869 361.339L238.762 359.141L236.925 357.023C236.651 356.708 236.435 356.371 236.435 355.99C236.435 355.232 237.008 354.726 237.706 354.726C238.14 354.726 238.471 354.904 238.819 355.305L240.477 357.215L242.119 355.305C242.466 354.901 242.794 354.726 243.231 354.726C243.933 354.726 244.512 355.232 244.512 355.99C244.512 356.367 244.287 356.708 244.012 357.023L242.168 359.164L244.055 361.339C244.33 361.654 244.545 361.991 244.545 362.372C244.545 363.13 243.972 363.636 243.257 363.636C242.837 363.636 242.509 363.458 242.162 363.057Z" fill="#262626"/>
<path d="M170.309 377.674C170.309 379.464 171.185 381.406 172.683 382.295L172.111 383.069C171.026 382.409 170.245 381.203 169.852 379.832C169.433 381.33 168.595 382.619 167.465 383.311L166.83 382.562C168.392 381.647 169.344 379.642 169.344 377.712V375.528H170.309V377.674ZM176.631 374.462V385.748H175.666V374.462H176.631ZM174.295 374.703V385.177H173.355V379.362H171.438V378.512H173.355V374.703H174.295ZM188.254 381.025V381.851H183.544V385.748H182.566V381.851H177.92V381.025H188.254ZM186.908 375.097V379.489H179.253V375.097H186.908ZM180.23 375.909V378.702H185.918V375.909H180.23ZM199.242 383.463V384.301H188.908V383.463H193.567V380.721H194.57V383.463H199.242ZM194.57 376.607C194.57 378.41 196.804 379.959 198.747 380.276L198.34 381.063C196.614 380.727 194.792 379.629 194.075 378.055C193.345 379.635 191.529 380.759 189.834 381.114L189.416 380.314C191.32 379.984 193.542 378.41 193.542 376.607V376.328H189.758V375.49H198.353V376.328H194.57V376.607ZM209.24 374.462V381.19H208.237V378.232H205.964V377.407H208.237V374.462H209.24ZM205.494 381.546C207.843 381.546 209.278 382.308 209.278 383.641C209.278 384.974 207.843 385.735 205.494 385.748C203.146 385.735 201.711 384.974 201.711 383.641C201.711 382.308 203.146 381.546 205.494 381.546ZM205.494 382.32C203.768 382.32 202.689 382.815 202.701 383.641C202.689 384.453 203.768 384.948 205.494 384.948C207.221 384.948 208.287 384.453 208.287 383.641C208.287 382.815 207.221 382.32 205.494 382.32ZM203.806 376.531C203.806 378.004 204.936 379.4 206.586 379.972L206.066 380.771C204.796 380.314 203.812 379.369 203.336 378.194C202.841 379.521 201.794 380.581 200.454 381.089L199.934 380.289C201.61 379.68 202.803 378.156 202.803 376.544V376.125H200.251V375.287H206.332V376.125H203.806V376.531ZM219.485 377.915V379.4H224.144V380.213H213.861V379.4H218.508V377.915H219.485ZM219.498 374.982C219.498 376.442 221.504 377.521 223.56 377.75L223.205 378.512C221.428 378.271 219.707 377.502 219.003 376.265C218.279 377.502 216.553 378.271 214.788 378.512L214.432 377.75C216.489 377.521 218.495 376.442 218.495 374.982V374.551H219.498V374.982ZM222.824 381.152V383.717H216.121V384.834H223.167V385.621H215.131V382.968H221.846V381.927H215.105V381.152H222.824ZM233.901 374.919V377.852H227.096V379.312H234.142V380.137H226.093V377.064H232.885V375.731H226.068V374.919H233.901ZM235.158 381.33V382.13H230.461V385.773H229.47V382.13H224.824V381.33H235.158ZM239.671 376.557C239.671 378.207 240.801 379.769 242.439 380.416L241.88 381.19C240.636 380.676 239.671 379.648 239.201 378.359C238.713 379.75 237.697 380.854 236.383 381.394L235.837 380.594C237.513 379.946 238.681 378.321 238.694 376.557V375.109H239.671V376.557ZM245.168 374.475V382.904H244.165V379.286H241.842V378.474H244.165V376.976H241.842V376.15H244.165V374.475H245.168ZM245.422 384.669V385.507H237.868V382.028H238.871V384.669H245.422Z" fill="#9E9FA3"/>
<path d="M207 131L207 148" stroke="#9E9FA3" stroke-linecap="round"/>
<path d="M206.222 128.962C206.623 128.467 207.377 128.467 207.778 128.962L210.88 132.8C211.408 133.454 210.943 134.429 210.102 134.429H203.898C203.057 134.429 202.592 133.454 203.12 132.8L206.222 128.962Z" fill="#9E9FA3"/>
<path d="M207.778 151.038C207.377 151.533 206.623 151.533 206.222 151.038L203.12 147.2C202.592 146.546 203.057 145.571 203.898 145.571L210.102 145.571C210.943 145.571 211.408 146.546 210.88 147.2L207.778 151.038Z" fill="#9E9FA3"/>
<path d="M207 223L207 240" stroke="#9E9FA3" stroke-linecap="round"/>
<path d="M206.222 220.962C206.623 220.467 207.377 220.467 207.778 220.962L210.88 224.8C211.408 225.454 210.943 226.429 210.102 226.429H203.898C203.057 226.429 202.592 225.454 203.12 224.8L206.222 220.962Z" fill="#9E9FA3"/>
<path d="M207.778 243.038C207.377 243.533 206.623 243.533 206.222 243.038L203.12 239.2C202.592 238.546 203.057 237.571 203.898 237.571L210.102 237.571C210.943 237.571 211.408 238.546 210.88 239.2L207.778 243.038Z" fill="#9E9FA3"/>
<path d="M207 315L207 332" stroke="#9E9FA3" stroke-linecap="round"/>
<path d="M206.222 312.962C206.623 312.467 207.377 312.467 207.778 312.962L210.88 316.8C211.408 317.454 210.943 318.429 210.102 318.429H203.898C203.057 318.429 202.592 317.454 203.12 316.8L206.222 312.962Z" fill="#9E9FA3"/>
<path d="M207.778 335.038C207.377 335.533 206.623 335.533 206.222 335.038L203.12 331.2C202.592 330.546 203.057 329.571 203.898 329.571L210.102 329.571C210.943 329.571 211.408 330.546 210.88 331.2L207.778 335.038Z" fill="#9E9FA3"/>
<circle cx="98" cy="325" r="7" fill="#4A7AFF" fill-opacity="0.2"/>
<circle cx="98" cy="325" r="3" fill="#4A7AFF"/>
<rect x="316" width="200" height="38" rx="19" fill="#4A7AFF" fill-opacity="0.12"/>
<path d="M367.802 14.1562C367.788 17.7656 366.613 20.9785 362.265 23.1934L361.54 22.209C363.687 21.1084 365.013 19.7891 365.751 18.2305L361.786 18.6133L361.581 17.4922L366.161 17.2051C366.346 16.5762 366.462 15.9062 366.517 15.209H362.21V14.1562H367.802ZM371.753 12.9121V25.1621H370.468V18.832H367.775V17.7656H370.468V12.9121H371.753ZM384.571 19.9121V20.9785H381.823V25.2305H380.524V20.9785H377.448V25.2305H376.149V20.9785H373.36V19.9121H384.571ZM383.163 13.5547V18.3809H374.768V13.5547H383.163ZM376.04 14.5938V17.3418H381.864V14.5938H376.04ZM395.365 12.9121V25.1621H394.066V12.9121H395.365ZM387.23 14.1016V20.9238C389.014 20.9102 390.894 20.7666 392.863 20.3633L393.041 21.457C390.867 21.8945 388.898 22.0449 386.971 22.0449H385.945V14.1016H387.23ZM402.427 14.334C402.427 15.4961 402.311 16.624 401.989 17.6836H403.726V13.2266H404.956V24.5605H403.726V18.7363H401.593C400.909 20.2334 399.727 21.5664 397.792 22.6465L397.054 21.7441C398.831 20.7529 399.904 19.5566 400.513 18.1895L397.232 18.5312L397.054 17.4102L400.882 17.1777C401.032 16.6104 401.121 16.0156 401.169 15.4004H397.655V14.334H402.427ZM407.54 12.9121V25.1621H406.31V12.9121H407.54ZM418.977 12.9121V25.1895H417.678V12.9121H418.977ZM412.428 13.8281C414.246 13.8281 415.586 15.4961 415.586 18.1211C415.586 20.7598 414.246 22.4277 412.428 22.4277C410.582 22.4277 409.256 20.7598 409.256 18.1211C409.256 15.4961 410.582 13.8281 412.428 13.8281ZM412.428 14.9902C411.293 14.9902 410.514 16.1934 410.514 18.1211C410.514 20.0625 411.293 21.2656 412.428 21.2656C413.549 21.2656 414.328 20.0625 414.328 18.1211C414.328 16.1934 413.549 14.9902 412.428 14.9902ZM424.972 15.127C424.972 16.8906 426.08 18.5723 427.898 19.2832L427.187 20.2949C425.847 19.7549 424.863 18.6816 424.343 17.3418C423.817 18.7773 422.771 19.9121 421.349 20.4863L420.652 19.4473C422.539 18.75 423.673 17 423.687 15.127V13.6094H424.972V15.127ZM430.865 12.9258V22.0449H429.566V18.1895H427.187V17.1367H429.566V15.7148H427.187V14.6621H429.566V12.9258H430.865ZM431.138 23.8496V24.9023H422.867V21.1289H424.179V23.8496H431.138ZM441.83 16.6309V18.1484H446.779V19.1875H435.61V18.1484H440.545V16.6309H441.83ZM441.844 13.4043C441.844 14.8945 443.731 16.0566 446.151 16.3164L445.699 17.3145C443.696 17.041 441.96 16.248 441.174 14.9766C440.388 16.248 438.652 17.041 436.662 17.3145L436.197 16.3164C438.631 16.0566 440.518 14.8945 440.531 13.4043V13.0078H441.844V13.4043ZM445.371 20.0762V22.9883H438.235V24.041H445.713V25.0391H436.963V22.0449H444.086V21.0742H436.949V20.0762H445.371ZM457.3 13.3633V16.6992H450.082V18.1074H457.56V19.1602H448.783V15.7012H455.974V14.416H448.742V13.3633H457.3ZM458.626 20.3223V21.3613H453.65V25.1895H452.351V21.3613H447.416V20.3223H458.626ZM463.569 15.127C463.569 16.8906 464.677 18.5723 466.495 19.2832L465.784 20.2949C464.444 19.7549 463.46 18.6816 462.94 17.3418C462.414 18.7773 461.368 19.9121 459.946 20.4863L459.249 19.4473C461.136 18.75 462.27 17 462.284 15.127V13.6094H463.569V15.127ZM469.462 12.9258V22.0449H468.163V18.1895H465.784V17.1367H468.163V15.7148H465.784V14.6621H468.163V12.9258H469.462ZM469.735 23.8496V24.9023H461.464V21.1289H462.776V23.8496H469.735Z" fill="#4A7AFF"/>
<rect x="317" y="55" width="198" height="78" rx="19" stroke="#F0F0F0" stroke-width="2"/>
<path d="M369.4 84.814C369.207 87.041 367.551 88.6064 364.991 88.6064C362.984 88.6064 361.52 87.9976 360.934 87.5931C360.567 87.336 360.42 87.0789 360.42 86.5609V76.6773C360.42 75.6753 361.029 75.0666 361.94 75.0666C362.851 75.0666 363.46 75.6753 363.46 76.6773V78.6094C363.94 78.3901 364.711 78.2426 365.366 78.2426C367.555 78.2426 369.211 79.808 369.404 82.035C369.468 82.7723 369.468 84.0578 369.404 84.814H369.4ZM364.836 85.6988C365.85 85.6988 366.337 85.0749 366.402 84.2091C366.439 83.7289 366.447 83.2336 366.402 82.6437C366.337 81.7779 365.85 81.154 364.836 81.154C364.341 81.154 363.77 81.2826 363.456 81.5019V85.3471C363.77 85.5664 364.341 85.695 364.836 85.695V85.6988Z" fill="#262626"/>
<path d="M374.033 76.0308C374.033 76.9874 373.326 77.7058 372.396 77.7058C371.466 77.7058 370.759 76.9874 370.759 76.0308C370.759 75.0743 371.466 74.3937 372.396 74.3937C373.326 74.3937 374.033 75.1007 374.033 76.0308ZM370.888 79.9442C370.888 78.9422 371.496 78.3335 372.408 78.3335C373.319 78.3335 373.928 78.9422 373.928 79.9442V86.9013C373.928 87.9032 373.319 88.512 372.408 88.512C371.496 88.512 370.888 87.9032 370.888 86.9013V79.9442Z" fill="#262626"/>
<path d="M383.584 87.0124C383.584 87.8593 383.05 88.4189 382.056 88.4189H376.506C375.587 88.4189 375.099 87.9047 375.099 87.1409C375.099 86.5435 375.337 86.173 375.708 85.7344L379.462 81.2237L376.868 81.2312C375.874 81.2312 375.341 80.6603 375.341 79.8247C375.341 78.9891 375.874 78.4257 376.868 78.4257H382.094C382.929 78.4257 383.538 78.7849 383.538 79.6697C383.538 80.3427 383.27 80.7737 382.877 81.2426L379.243 85.6058H382.06C383.054 85.6058 383.587 86.1654 383.587 87.0124H383.584Z" fill="#262626"/>
<path d="M393.83 84.814C393.637 87.041 391.981 88.6064 389.421 88.6064C387.413 88.6064 385.95 87.9976 385.364 87.5931C384.997 87.336 384.85 87.0789 384.85 86.5609V76.6773C384.85 75.6753 385.458 75.0666 386.37 75.0666C387.281 75.0666 387.89 75.6753 387.89 76.6773V78.6094C388.37 78.3901 389.141 78.2426 389.795 78.2426C391.984 78.2426 393.64 79.808 393.833 82.035C393.898 82.7723 393.898 84.0578 393.833 84.814H393.83ZM389.266 85.6988C390.279 85.6988 390.767 85.0749 390.831 84.2091C390.869 83.7289 390.877 83.2336 390.831 82.6437C390.767 81.7779 390.279 81.154 389.266 81.154C388.771 81.154 388.2 81.2826 387.886 81.5019V85.3471C388.2 85.5664 388.771 85.695 389.266 85.695V85.6988Z" fill="#262626"/>
<path d="M395.07 84.7607C395.013 84.0688 395.005 82.8853 395.062 82.2652C395.274 79.9361 396.968 78.2347 399.664 78.2347C402.36 78.2347 403.925 79.9021 403.925 82.5034V82.9269C403.925 84.1519 403.649 84.3259 402.571 84.3259H397.868V84.4658C397.86 85.3505 398.639 85.9479 399.838 85.9479C400.594 85.9479 401.089 85.7816 401.373 85.6795C401.751 85.5509 402.015 85.3959 402.367 85.3959C403.086 85.3959 403.619 85.8572 403.619 86.6399C403.619 87.4225 403.074 87.8006 402.617 88.001C402.019 88.2695 400.904 88.5984 399.747 88.5984C397.059 88.5984 395.247 86.9877 395.074 84.7607H395.07ZM401.199 82.3787C401.282 81.3578 400.59 80.6848 399.531 80.6848C398.473 80.6848 397.947 81.3653 397.875 82.3787H401.199Z" fill="#262626"/>
<path d="M405.027 84.7607C404.97 84.0688 404.963 82.8853 405.019 82.2652C405.231 79.9361 406.925 78.2347 409.621 78.2347C412.317 78.2347 413.882 79.9021 413.882 82.5034V82.9269C413.882 84.1519 413.606 84.3259 412.528 84.3259H407.825V84.4658C407.817 85.3505 408.596 85.9479 409.795 85.9479C410.551 85.9479 411.046 85.7816 411.33 85.6795C411.708 85.5509 411.973 85.3959 412.324 85.3959C413.043 85.3959 413.576 85.8572 413.576 86.6399C413.576 87.4225 413.031 87.8006 412.574 88.001C411.976 88.2695 410.861 88.5984 409.704 88.5984C407.016 88.5984 405.205 86.9877 405.031 84.7607H405.027ZM411.156 82.3787C411.239 81.3578 410.547 80.6848 409.488 80.6848C408.43 80.6848 407.904 81.3653 407.832 82.3787H411.156Z" fill="#262626"/>
<path d="M420.311 86.2537L418.462 77.1906C418.443 77.081 418.417 76.907 418.417 76.7482C418.417 75.9278 418.961 75.2661 419.971 75.2661C420.78 75.2661 421.362 75.7614 421.498 76.6915L422.814 85.3614C422.822 85.3992 422.841 85.3992 422.878 85.3992C422.897 85.3992 422.924 85.3992 422.935 85.3538L424.361 77.5612C424.644 75.9769 425.521 75.2774 426.807 75.2774C428.092 75.2774 428.932 75.9694 429.246 77.5763L430.747 85.3425C430.754 85.3878 430.773 85.3992 430.803 85.3992C430.841 85.3992 430.86 85.3916 430.868 85.3538L432.183 76.6764C432.312 75.803 432.902 75.2699 433.775 75.2699C434.705 75.2699 435.295 75.9429 435.295 76.7596C435.295 76.9524 435.269 77.1074 435.231 77.2738L433.235 86.2461C432.887 87.819 432.24 88.511 430.758 88.511C429.435 88.511 428.671 87.8115 428.365 86.3104L426.845 78.8656C426.837 78.8278 426.807 78.8202 426.788 78.8202C426.78 78.8202 426.762 78.8202 426.75 78.858L425.166 86.3218C424.845 87.8228 424.054 88.511 422.708 88.511C421.253 88.511 420.629 87.8304 420.307 86.2575L420.311 86.2537Z" fill="#262626"/>
<path d="M435.701 84.7607C435.637 84.0536 435.637 82.7832 435.701 82.0724C435.905 79.8454 437.69 78.2347 440.284 78.2347C442.878 78.2347 444.662 79.8454 444.866 82.0724C444.931 82.7794 444.931 84.0499 444.866 84.7607C444.662 86.9877 442.878 88.5984 440.284 88.5984C437.69 88.5984 435.905 86.9877 435.701 84.7607ZM440.284 85.6908C441.203 85.6908 441.793 85.0934 441.868 84.2087C441.914 83.6491 441.914 83.1878 441.868 82.6244C441.796 81.7397 441.206 81.1423 440.284 81.1423C439.361 81.1423 438.775 81.7397 438.7 82.6244C438.654 83.1878 438.654 83.6453 438.7 84.2087C438.771 85.0934 439.361 85.6908 440.284 85.6908Z" fill="#262626"/>
<path d="M446.279 86.8932V81.785C446.279 79.6412 447.613 78.2347 449.648 78.2347C450.2 78.2347 450.759 78.2914 451.247 78.4199C452.094 78.6506 452.718 79.0816 452.718 79.9399C452.718 80.8587 452.12 81.4107 451.504 81.4107C451.221 81.4107 451.016 81.354 450.812 81.3086C450.593 81.2633 450.37 81.2179 450.067 81.2179C449.534 81.2179 449.311 81.4561 449.311 82.027V86.897C449.311 87.8989 448.702 88.5077 447.791 88.5077C446.88 88.5077 446.271 87.8989 446.271 86.897L446.279 86.8932Z" fill="#262626"/>
<path d="M462.776 87.094C462.776 87.9787 462.179 88.5118 461.358 88.5118C460.852 88.5118 460.409 88.3379 459.952 87.8124L457.68 85.2526C457.328 84.867 457.23 84.848 456.787 84.848H456.621V86.9011C456.621 87.9031 456.012 88.5118 455.101 88.5118C454.19 88.5118 453.581 87.9031 453.581 86.9011V76.6773C453.581 75.6753 454.19 75.0666 455.101 75.0666C456.012 75.0666 456.621 75.6753 456.621 76.6773V81.9783H456.731C457.052 81.9783 457.18 81.9404 457.532 81.5737L459.971 79.0329C460.432 78.5527 460.837 78.3334 461.332 78.3334C462.134 78.3334 462.769 78.9119 462.769 79.7588C462.769 80.2201 462.538 80.6587 462.126 81.0822L459.937 83.3092L462.236 85.7857C462.652 86.2281 462.78 86.7159 462.78 87.094H462.776Z" fill="#262626"/>
<path d="M467.553 88.6022C465.905 88.6022 464.729 88.088 464.177 87.7174C463.587 87.3318 463.387 86.8818 463.387 86.3827C463.387 85.7929 463.837 85.1123 464.548 85.1123C464.888 85.1123 465.183 85.222 465.633 85.4791C466.147 85.774 466.627 85.9857 467.591 85.9857C468.363 85.9857 468.658 85.7097 468.658 85.3959C468.658 85.1388 468.438 84.9271 467.811 84.7872L466.43 84.4733C465.005 84.152 463.689 83.2407 463.689 81.475C463.689 79.4144 465.531 78.2347 467.599 78.2347C468.824 78.2347 469.917 78.5825 470.469 78.9531C471.021 79.3198 471.213 79.6904 471.213 80.2424C471.213 80.8587 470.726 81.5771 469.981 81.5771C469.565 81.5771 469.262 81.4296 468.941 81.2633C468.786 81.1801 468.196 80.9041 467.55 80.9041C466.812 80.9041 466.555 81.1612 466.555 81.4372C466.555 81.7321 466.812 81.8796 467.474 82.027L468.654 82.2841C470.65 82.7152 471.58 83.6831 471.58 85.3316C471.58 87.4036 469.705 88.5984 467.55 88.5984L467.553 88.6022Z" fill="#262626"/>
<path d="M384.791 108.337V109.162H374.457V108.337H379.078V105.569H380.056V108.337H384.791ZM380.081 100.986C380.081 102.878 382.315 104.528 384.283 104.871L383.839 105.696C382.119 105.347 380.303 104.179 379.573 102.548C378.831 104.173 377.028 105.347 375.308 105.696L374.863 104.871C376.831 104.528 379.04 102.878 379.04 100.986V100.123H380.081V100.986ZM395.716 105.341V106.153H385.42V105.341H390.066V104.224H386.791V99.6786H394.433V100.491H387.794V101.545H394.129V102.307H387.794V103.424H394.497V104.224H391.056V105.341H395.716ZM390.574 107.004C393.05 106.991 394.446 107.626 394.459 108.807C394.446 109.987 393.05 110.609 390.574 110.609C388.073 110.609 386.677 109.987 386.677 108.807C386.677 107.626 388.073 106.991 390.574 107.004ZM390.574 107.753C388.708 107.753 387.667 108.134 387.679 108.807C387.667 109.492 388.708 109.848 390.574 109.835C392.415 109.848 393.456 109.492 393.456 108.807C393.456 108.134 392.415 107.753 390.574 107.753ZM405.809 100.491V101.316H399.423V100.491H402.165V99.247H403.156V100.491H405.809ZM402.648 101.862C404.158 101.862 405.225 102.675 405.225 103.906C405.225 105.125 404.158 105.925 402.648 105.925C401.124 105.925 400.083 105.125 400.096 103.906C400.083 102.675 401.124 101.862 402.648 101.862ZM402.648 102.637C401.67 102.637 401.023 103.144 401.023 103.906C401.023 104.655 401.67 105.176 402.648 105.176C403.625 105.176 404.285 104.655 404.298 103.906C404.285 103.144 403.625 102.637 402.648 102.637ZM408.767 99.3485V106.026H407.764V105.023H405.796V104.198H407.764V102.814H405.809V101.989H407.764V99.3485H408.767ZM402.407 106.496V107.689H407.777V106.496H408.767V110.482H401.416V106.496H402.407ZM402.407 109.683H407.777V108.464H402.407V109.683ZM413.496 99.8817C415.013 99.869 416.162 100.751 416.378 102.053H418.739V99.3485H419.742V105.404H418.739V102.878H416.391C416.188 104.211 415.026 105.099 413.496 105.099C411.782 105.099 410.564 104.033 410.564 102.484C410.564 100.948 411.782 99.869 413.496 99.8817ZM413.496 100.732C412.341 100.72 411.516 101.443 411.516 102.484C411.516 103.513 412.341 104.262 413.496 104.262C414.639 104.262 415.451 103.513 415.451 102.484C415.451 101.443 414.639 100.72 413.496 100.732ZM413.471 105.975V107.41H418.739V105.975H419.742V110.482H412.468V105.975H413.471ZM413.471 109.67H418.739V108.21H413.471V109.67ZM429.988 102.802V104.287H434.647V105.099H424.364V104.287H429.01V102.802H429.988ZM430.001 99.869C430.001 101.329 432.006 102.408 434.063 102.637L433.708 103.398C431.93 103.157 430.21 102.389 429.505 101.151C428.782 102.389 427.055 103.157 425.291 103.398L424.935 102.637C426.992 102.408 428.998 101.329 428.998 99.869V99.4374H430.001V99.869ZM433.327 106.039V108.603H426.624V109.721H433.669V110.508H425.633V107.854H432.349V106.813H425.608V106.039H433.327ZM444.404 99.8055V102.738H437.599V104.198H444.645V105.023H436.596V101.951H443.388V100.618H436.571V99.8055H444.404ZM445.66 106.217V107.016H440.963V110.66H439.973V107.016H435.326V106.217H445.66ZM450.174 101.443C450.174 103.094 451.304 104.655 452.941 105.303L452.383 106.077C451.139 105.563 450.174 104.535 449.704 103.246C449.215 104.636 448.2 105.741 446.886 106.28L446.34 105.48C448.016 104.833 449.184 103.208 449.196 101.443V99.996H450.174V101.443ZM455.671 99.3612V107.791H454.668V104.173H452.345V103.36H454.668V101.862H452.345V101.037H454.668V99.3612H455.671ZM455.925 109.556V110.393H448.371V106.915H449.374V109.556H455.925Z" fill="#9E9FA3"/>
<rect x="316" y="146" width="200" height="264" rx="20" fill="#E9EFFF"/>
<path d="M369.206 180.572C369.01 182.831 367.33 184.42 364.733 184.42C362.696 184.42 361.211 183.802 360.617 183.392C360.245 183.131 360.095 182.87 360.095 182.344V172.317C360.095 171.3 360.713 170.683 361.637 170.683C362.562 170.683 363.179 171.3 363.179 172.317V174.277C363.666 174.055 364.449 173.905 365.113 173.905C367.334 173.905 369.014 175.493 369.209 177.752C369.275 178.501 369.275 179.805 369.209 180.572H369.206ZM364.576 181.47C365.604 181.47 366.098 180.837 366.164 179.958C366.202 179.471 366.21 178.969 366.164 178.37C366.098 177.492 365.604 176.859 364.576 176.859C364.073 176.859 363.494 176.989 363.175 177.212V181.113C363.494 181.335 364.073 181.466 364.576 181.466V181.47Z" fill="#262626"/>
<path d="M373.913 171.661C373.913 172.632 373.196 173.36 372.252 173.36C371.309 173.36 370.591 172.632 370.591 171.661C370.591 170.69 371.309 170 372.252 170C373.196 170 373.913 170.717 373.913 171.661ZM370.718 175.631C370.718 174.615 371.335 173.997 372.26 173.997C373.184 173.997 373.802 174.615 373.802 175.631V182.69C373.802 183.706 373.184 184.324 372.26 184.324C371.335 184.324 370.718 183.706 370.718 182.69V175.631Z" fill="#262626"/>
<path d="M383.591 182.799C383.591 183.658 383.05 184.226 382.041 184.226H376.41C375.478 184.226 374.983 183.704 374.983 182.929C374.983 182.323 375.225 181.947 375.601 181.502L379.41 176.926L376.778 176.934C375.769 176.934 375.229 176.354 375.229 175.507C375.229 174.659 375.769 174.087 376.778 174.087H382.08C382.928 174.087 383.545 174.452 383.545 175.349C383.545 176.032 383.273 176.469 382.874 176.945L379.187 181.372H382.045C383.054 181.372 383.595 181.94 383.595 182.799H383.591Z" fill="#262626"/>
<path d="M393.987 180.572C393.792 182.831 392.111 184.42 389.514 184.42C387.477 184.42 385.993 183.802 385.398 183.392C385.026 183.131 384.877 182.87 384.877 182.344V172.317C384.877 171.3 385.494 170.683 386.419 170.683C387.343 170.683 387.961 171.3 387.961 172.317V174.277C388.448 174.055 389.23 173.905 389.894 173.905C392.115 173.905 393.795 175.493 393.991 177.752C394.056 178.501 394.056 179.805 393.991 180.572H393.987ZM389.357 181.47C390.385 181.47 390.88 180.837 390.945 179.958C390.984 179.471 390.991 178.969 390.945 178.37C390.88 177.492 390.385 176.859 389.357 176.859C388.855 176.859 388.275 176.989 387.957 177.212V181.113C388.275 181.335 388.855 181.466 389.357 181.466V181.47Z" fill="#262626"/>
<path d="M395.265 180.516C395.207 179.814 395.2 178.613 395.257 177.984C395.472 175.621 397.191 173.895 399.926 173.895C402.661 173.895 404.249 175.587 404.249 178.226V178.655C404.249 179.898 403.969 180.075 402.876 180.075H398.104V180.217C398.096 181.114 398.886 181.72 400.102 181.72C400.869 181.72 401.372 181.552 401.66 181.448C402.043 181.318 402.312 181.16 402.668 181.16C403.397 181.16 403.938 181.628 403.938 182.422C403.938 183.217 403.386 183.6 402.922 183.803C402.316 184.076 401.184 184.41 400.01 184.41C397.283 184.41 395.445 182.775 395.269 180.516H395.265ZM401.483 178.099C401.567 177.064 400.865 176.381 399.791 176.381C398.717 176.381 398.184 177.071 398.111 178.099H401.483Z" fill="#262626"/>
<path d="M405.349 180.516C405.291 179.814 405.283 178.613 405.341 177.984C405.556 175.621 407.274 173.895 410.01 173.895C412.745 173.895 414.333 175.587 414.333 178.226V178.655C414.333 179.898 414.053 180.075 412.959 180.075H408.187V180.217C408.18 181.114 408.97 181.72 410.186 181.72C410.953 181.72 411.456 181.552 411.743 181.448C412.127 181.318 412.396 181.16 412.752 181.16C413.481 181.16 414.022 181.628 414.022 182.422C414.022 183.217 413.47 183.6 413.005 183.803C412.399 184.076 411.268 184.41 410.094 184.41C407.366 184.41 405.529 182.775 405.353 180.516H405.349ZM411.567 178.099C411.651 177.064 410.949 176.381 409.875 176.381C408.801 176.381 408.268 177.071 408.195 178.099H411.567Z" fill="#262626"/>
<path d="M419.254 179.046C419.178 178.084 419.189 177.125 419.262 176.154C419.496 173.062 421.959 170.795 425.189 170.795C428.419 170.795 430.912 173.062 431.127 176.154C431.192 177.117 431.192 178.076 431.119 179.046C430.885 182.138 428.411 184.405 425.193 184.405C421.974 184.405 419.496 182.138 419.254 179.046ZM422.404 178.682C422.507 180.408 423.616 181.494 425.196 181.494C426.777 181.494 427.874 180.412 427.989 178.682C428.035 177.98 428.016 177.236 427.97 176.515C427.859 174.777 426.758 173.703 425.196 173.703C423.635 173.703 422.488 174.785 422.396 176.515C422.358 177.217 422.358 177.961 422.404 178.682Z" fill="#262626"/>
<path d="M433.5 182.687V177.47H433.239C432.491 177.47 431.931 176.909 431.931 176.127C431.931 175.344 432.491 174.784 433.239 174.784H433.5V174.309C433.5 171.788 434.958 170.687 437.348 170.687C437.739 170.687 438.525 170.779 438.917 170.895C439.749 171.129 440.252 171.531 440.252 172.333C440.252 173.035 439.776 173.584 439.047 173.584C438.878 173.584 438.664 173.557 438.43 173.499C438.084 173.415 437.797 173.396 437.628 173.396C436.88 173.396 436.581 173.818 436.581 174.554V174.788H438.008C438.867 174.788 439.408 175.348 439.408 176.131C439.408 176.913 438.867 177.473 438.008 177.473H436.581V182.69C436.581 183.707 435.963 184.325 435.038 184.325C434.114 184.325 433.496 183.707 433.496 182.69L433.5 182.687Z" fill="#262626"/>
<path d="M441.141 182.69V177.473H440.88C440.132 177.473 439.572 176.913 439.572 176.13C439.572 175.347 440.132 174.787 440.88 174.787H441.141V174.312C441.141 171.791 442.599 170.69 444.989 170.69C445.38 170.69 446.166 170.783 446.558 170.898C447.39 171.132 447.893 171.534 447.893 172.336C447.893 173.038 447.417 173.587 446.688 173.587C446.519 173.587 446.304 173.56 446.07 173.502C445.725 173.418 445.438 173.399 445.269 173.399C444.521 173.399 444.221 173.821 444.221 174.557V174.791H445.648C446.508 174.791 447.049 175.351 447.049 176.134C447.049 176.916 446.508 177.476 445.648 177.476H444.221V182.694C444.221 183.71 443.604 184.328 442.679 184.328C441.755 184.328 441.137 183.71 441.137 182.694L441.141 182.69ZM449.956 170C450.9 170 451.617 170.717 451.617 171.661C451.617 172.605 450.9 173.36 449.956 173.36C449.013 173.36 448.295 172.632 448.295 171.661C448.295 170.69 449.013 170 449.956 170ZM448.426 175.631C448.426 174.615 449.043 173.997 449.968 173.997C450.892 173.997 451.51 174.615 451.51 175.631V182.69C451.51 183.706 450.892 184.324 449.968 184.324C449.043 184.324 448.426 183.706 448.426 182.69V175.631Z" fill="#262626"/>
<path d="M456.062 179.96C456.135 180.846 456.733 181.452 457.677 181.452C458.394 181.452 458.816 181.107 459.104 180.769C459.357 180.47 459.683 180.059 460.381 180.033C461.213 180.006 461.904 180.554 461.904 181.452C461.904 181.947 461.708 182.357 461.501 182.649C460.868 183.546 459.633 184.406 457.619 184.406C455.041 184.406 453.211 182.783 453.008 180.524C452.943 179.806 452.951 178.506 453.016 177.777C453.223 175.518 455.041 173.895 457.619 173.895C459.637 173.895 460.849 174.754 461.494 175.652C461.701 175.94 461.904 176.354 461.904 176.849C461.904 177.746 461.213 178.287 460.381 178.268C459.71 178.249 459.384 177.865 459.104 177.532C458.816 177.186 458.394 176.849 457.677 176.849C456.733 176.849 456.135 177.455 456.062 178.341C456.016 178.909 456.016 179.396 456.062 179.964V179.96Z" fill="#262626"/>
<path d="M462.921 180.516C462.863 179.814 462.856 178.613 462.913 177.984C463.128 175.621 464.847 173.895 467.582 173.895C470.317 173.895 471.905 175.587 471.905 178.226V178.655C471.905 179.898 471.625 180.075 470.532 180.075H465.76V180.217C465.752 181.114 466.542 181.72 467.758 181.72C468.525 181.72 469.028 181.552 469.316 181.448C469.699 181.318 469.968 181.16 470.325 181.16C471.053 181.16 471.594 181.628 471.594 182.422C471.594 183.217 471.042 183.6 470.578 183.803C469.972 184.076 468.84 184.41 467.666 184.41C464.939 184.41 463.101 182.775 462.925 180.516H462.921ZM469.135 178.099C469.22 177.064 468.518 176.381 467.444 176.381C466.37 176.381 465.836 177.071 465.763 178.099H469.135Z" fill="#262626"/>
<path d="M354.81 198.374C354.81 200.164 355.686 202.106 357.184 202.995L356.613 203.769C355.527 203.109 354.747 201.903 354.353 200.532C353.934 202.03 353.096 203.318 351.966 204.01L351.332 203.261C352.893 202.347 353.845 200.341 353.845 198.412V196.228H354.81V198.374ZM361.132 195.162V206.448H360.168V195.162H361.132ZM358.796 195.403V205.877H357.857V200.062H355.94V199.212H357.857V195.403H358.796ZM372.755 201.725V202.55H368.045V206.448H367.068V202.55H362.421V201.725H372.755ZM371.409 195.797V200.189H363.754V195.797H371.409ZM364.732 196.609V199.402H370.419V196.609H364.732ZM377.192 198.196C377.192 200.189 378.513 202.233 380.112 203.02L379.503 203.82C378.259 203.166 377.218 201.833 376.723 200.265C376.215 201.935 375.149 203.357 373.879 204.036L373.244 203.236C374.895 202.423 376.202 200.253 376.215 198.196V196.139H377.192V198.196ZM382.144 195.162V199.745H384.035V200.608H382.144V206.448H381.153V195.162H382.144ZM391.171 198.196C391.171 200.189 392.491 202.233 394.09 203.02L393.481 203.82C392.237 203.166 391.196 201.833 390.701 200.265C390.193 201.935 389.127 203.357 387.857 204.036L387.222 203.236C388.873 202.423 390.18 200.253 390.193 198.196V196.139H391.171V198.196ZM396.122 195.162V199.745H398.013V200.608H396.122V206.448H395.131V195.162H396.122ZM408.684 201.725V202.55H403.974V206.448H402.996V202.55H398.35V201.725H408.684ZM407.338 195.797V200.189H399.683V195.797H407.338ZM400.661 196.609V199.402H406.348V196.609H400.661ZM418.644 195.162V201.014H417.666V195.162H418.644ZM418.656 201.586V204.29H412.321V205.508H419.063V206.321H411.344V203.515H417.666V202.385H411.318V201.586H418.656ZM413.337 196.355C413.324 197.955 414.543 199.364 416.219 199.91L415.724 200.684C414.403 200.234 413.35 199.288 412.842 198.069C412.334 199.383 411.274 200.418 409.935 200.9L409.414 200.113C411.115 199.516 412.321 198.018 412.321 196.355V195.492H413.337V196.355ZM429.575 196.038V196.634C429.562 197.371 429.562 198.501 429.283 199.973L428.28 199.897C428.553 198.545 428.578 197.587 428.597 196.876H423.951V196.038H429.575ZM426.668 198.539V200.964C427.918 200.913 429.213 200.824 430.387 200.659L430.451 201.395C428.089 201.801 425.36 201.852 423.354 201.852L423.253 201.027C423.983 201.021 424.808 201.014 425.677 200.989V198.539H426.668ZM432.165 195.162V198.843H433.815V199.694H432.165V203.655H431.149V195.162H432.165ZM432.533 205.369V206.207H424.992V202.893H425.995V205.369H432.533ZM443.61 195.162V206.473H442.62V195.162H443.61ZM440.182 196.215V200.227H435.967V202.893C437.84 202.893 439.509 202.811 441.528 202.487L441.629 203.325C439.547 203.655 437.833 203.731 435.891 203.731H434.952V199.415H439.179V197.041H434.926V196.215H440.182ZM453.893 198.615V200.1H458.553V200.913H448.269V200.1H452.916V198.615H453.893ZM453.906 195.682C453.906 197.142 455.912 198.221 457.969 198.45L457.613 199.212C455.836 198.97 454.116 198.202 453.411 196.964C452.687 198.202 450.961 198.97 449.196 199.212L448.841 198.45C450.897 198.221 452.903 197.142 452.903 195.682V195.251H453.906V195.682ZM457.232 201.852V204.417H450.529V205.534H457.575V206.321H449.539V203.668H456.255V202.627H449.514V201.852H457.232ZM468.309 195.619V198.551H461.505V200.011H468.55V200.837H460.502V197.764H467.294V196.431H460.476V195.619H468.309ZM469.566 202.03V202.83H464.869V206.473H463.879V202.83H459.232V202.03H469.566ZM474.08 197.256C474.08 198.907 475.209 200.468 476.847 201.116L476.289 201.89C475.044 201.376 474.08 200.348 473.61 199.059C473.121 200.449 472.105 201.554 470.791 202.093L470.246 201.294C471.921 200.646 473.089 199.021 473.102 197.256V195.809H474.08V197.256ZM479.577 195.174V203.604H478.574V199.986H476.25V199.173H478.574V197.675H476.25V196.85H478.574V195.174H479.577ZM479.831 205.369V206.207H472.277V202.728H473.28V205.369H479.831Z" fill="#888B8F"/>
<path d="M390.904 224.916C390.917 222.516 391.564 220.523 392.732 218.835H393.697C392.834 220.091 392.034 222.656 392.034 224.916C392.034 227.175 392.834 229.753 393.697 231.009H392.732C391.564 229.308 390.917 227.315 390.904 224.916ZM397.728 221.374C397.728 223.164 398.604 225.106 400.102 225.995L399.531 226.769C398.445 226.109 397.664 224.903 397.271 223.532C396.852 225.03 396.014 226.318 394.884 227.01L394.249 226.261C395.811 225.347 396.763 223.341 396.763 221.412V219.228H397.728V221.374ZM404.05 218.162V229.448H403.085V218.162H404.05ZM401.714 218.403V228.877H400.775V223.062H398.858V222.212H400.775V218.403H401.714ZM415.673 224.725V225.55H410.963V229.448H409.985V225.55H405.339V224.725H415.673ZM414.327 218.797V223.189H406.672V218.797H414.327ZM407.65 219.609V222.402H413.337V219.609H407.65ZM420.11 221.196C420.11 223.189 421.431 225.233 423.03 226.02L422.421 226.82C421.177 226.166 420.136 224.833 419.641 223.265C419.133 224.935 418.066 226.357 416.797 227.036L416.162 226.236C417.812 225.423 419.12 223.253 419.133 221.196V219.139H420.11V221.196ZM425.061 218.162V222.745H426.953V223.608H425.061V229.448H424.071V218.162H425.061ZM437.586 223.748V224.573H427.302V223.748H429.854V222.161C428.953 221.812 428.445 221.234 428.445 220.472C428.445 219.139 429.968 218.378 432.444 218.378C434.894 218.378 436.43 219.139 436.43 220.472C436.43 221.228 435.929 221.805 435.034 222.148V223.748H437.586ZM432.444 225.436C434.869 225.436 436.316 226.134 436.329 227.429C436.316 228.712 434.869 229.422 432.444 229.422C429.994 229.422 428.547 228.712 428.547 227.429C428.547 226.134 429.994 225.436 432.444 225.436ZM432.444 226.198C430.629 226.211 429.549 226.655 429.562 227.429C429.549 228.191 430.629 228.648 432.444 228.648C434.234 228.648 435.326 228.191 435.326 227.429C435.326 226.655 434.234 226.211 432.444 226.198ZM432.444 219.165C430.603 219.165 429.461 219.66 429.473 220.472C429.461 221.297 430.603 221.78 432.444 221.78C434.272 221.78 435.415 221.297 435.415 220.472C435.415 219.66 434.272 219.165 432.444 219.165ZM430.844 223.748H434.044V222.427C433.568 222.51 433.034 222.554 432.444 222.554C431.854 222.554 431.32 222.51 430.844 222.427V223.748ZM441.096 224.916C441.083 227.315 440.436 229.308 439.268 231.009H438.303C439.166 229.753 439.966 227.175 439.966 224.916C439.966 222.656 439.166 220.091 438.303 218.835H439.268C440.436 220.523 441.083 222.516 441.096 224.916Z" fill="#36363D"/>
<rect x="328" y="278.42" width="176" height="119.58" rx="20" fill="white" fill-opacity="0.8"/>
<circle cx="416" cy="321.71" r="25" fill="#D9DADC"/>
<circle cx="415.877" cy="321.588" r="20" fill="#4A4A52"/>
<path d="M415.855 310.124C414.502 310.142 413.21 310.693 412.261 311.657C411.311 312.621 410.78 313.92 410.783 315.273C410.705 317.384 410.538 319.74 409.534 321.182C412.984 323.28 415.932 322.997 415.932 322.997C415.932 322.997 418.88 323.28 422.329 321.182C421.235 319.418 421.004 317.256 421.081 315.273C421.081 312.428 418.777 310.124 415.932 310.124H415.855ZM411.89 323.409C408.208 324.194 405.634 326.022 405.634 328.146V333.295H415.932L412.07 328.146H408.852M415.932 333.295L418.223 324.04C418.223 324.04 417.219 324.284 415.932 324.284C414.644 324.284 413.64 324.04 413.64 324.04M415.932 333.295H426.23V328.146C426.23 326.022 423.655 324.194 419.974 323.409L423.012 328.146H419.794L415.932 333.295Z" fill="#FAE100"/>
<path d="M365.69 368.664C365.69 370.454 366.566 372.396 368.064 373.285L367.493 374.059C366.407 373.399 365.627 372.193 365.233 370.822C364.814 372.32 363.976 373.609 362.846 374.301L362.211 373.552C363.773 372.638 364.725 370.632 364.725 368.702V366.518H365.69V368.664ZM372.012 365.452V376.738H371.047V365.452H372.012ZM369.676 365.693V376.167H368.737V370.352H366.82V369.502H368.737V365.693H369.676ZM383.635 372.015V372.841H378.925V376.738H377.948V372.841H373.301V372.015H383.635ZM382.289 366.087V370.479H374.634V366.087H382.289ZM375.612 366.899V369.692H381.299V366.899H375.612ZM388.072 368.486C388.072 370.479 389.393 372.523 390.992 373.31L390.383 374.11C389.139 373.456 388.098 372.123 387.603 370.555C387.095 372.225 386.028 373.647 384.759 374.326L384.124 373.526C385.774 372.714 387.082 370.543 387.095 368.486V366.43H388.072V368.486ZM393.024 365.452V370.035H394.915V370.898H393.024V376.738H392.033V365.452H393.024ZM401.962 366.087L398.991 377.094H398.001L400.959 366.087H401.962ZM409.135 368.486C409.135 370.479 410.455 372.523 412.055 373.31L411.445 374.11C410.201 373.456 409.16 372.123 408.665 370.555C408.157 372.225 407.091 373.647 405.821 374.326L405.187 373.526C406.837 372.714 408.145 370.543 408.157 368.486V366.43H409.135V368.486ZM414.086 365.452V370.035H415.978V370.898H414.086V376.738H413.096V365.452H414.086ZM426.648 372.015V372.841H421.938V376.738H420.961V372.841H416.314V372.015H426.648ZM425.303 366.087V370.479H417.647V366.087H425.303ZM418.625 366.899V369.692H424.312V366.899H418.625ZM431.124 367.597C431.124 369.07 432.228 370.39 433.891 370.936L433.422 371.723C432.12 371.298 431.136 370.397 430.654 369.261C430.165 370.555 429.124 371.565 427.772 372.054L427.264 371.254C428.953 370.682 430.133 369.222 430.146 367.597V367.115H427.569V366.29H433.663V367.115H431.124V367.597ZM436.126 365.452V368.334H437.827V369.172H436.126V372.269H435.135V365.452H436.126ZM432.507 372.574C434.831 372.574 436.227 373.336 436.227 374.631C436.227 375.951 434.831 376.713 432.507 376.713C430.184 376.713 428.762 375.951 428.762 374.631C428.762 373.336 430.184 372.574 432.507 372.574ZM432.507 373.374C430.806 373.374 429.753 373.844 429.765 374.631C429.753 375.443 430.806 375.913 432.507 375.913C434.221 375.913 435.262 375.443 435.262 374.631C435.262 373.844 434.221 373.374 432.507 373.374ZM444.975 366.087L442.004 377.094H441.014L443.972 366.087H444.975ZM452.427 367.547C452.427 369.07 453.633 370.454 455.322 371L454.814 371.774C453.5 371.33 452.453 370.397 451.945 369.197C451.45 370.486 450.39 371.501 449.05 371.99L448.53 371.216C450.218 370.619 451.424 369.146 451.424 367.547V367.064H448.784V366.252H455.03V367.064H452.427V367.547ZM457.683 365.452V372.282H456.693V365.452H457.683ZM457.683 372.879V376.738H456.693V373.704H450.091V372.879H457.683ZM468.646 365.465V374.034H467.643V372.866H465.307V372.142H467.643V365.465H468.646ZM468.925 375.659V376.497H460.902V373.196H461.905V375.659H468.925ZM459.277 370.695C461.384 370.682 464.203 370.67 466.627 370.365L466.691 371.089C465.682 371.247 464.628 371.349 463.593 371.406V373.64H462.59V371.457C461.448 371.508 460.362 371.514 459.416 371.508L459.277 370.695ZM462.984 365.922C464.634 365.922 465.764 366.709 465.777 367.889C465.764 369.096 464.634 369.845 462.984 369.845C461.321 369.845 460.191 369.096 460.191 367.889C460.191 366.709 461.321 365.922 462.984 365.922ZM462.984 366.683C461.879 366.671 461.13 367.166 461.143 367.889C461.13 368.626 461.879 369.108 462.984 369.108C464.05 369.108 464.812 368.626 464.825 367.889C464.812 367.166 464.05 366.671 462.984 366.683Z" fill="#36363D"/>
<path d="M416 277L416 245" stroke="#A7BFFF" stroke-linecap="round"/>
<path d="M414.843 243.403C415.443 242.676 416.557 242.676 417.157 243.403L420.904 247.946C421.711 248.924 421.015 250.4 419.747 250.4H412.253C410.985 250.4 410.289 248.924 411.096 247.946L414.843 243.403Z" fill="#A7BFFF"/>
<circle cx="416" cy="278" r="7" fill="#A7BFFF" fill-opacity="0.2"/>
<circle cx="416" cy="278" r="3" fill="#A7BFFF"/>
<path d="M329 325H308" stroke="#4A7AFF" stroke-linecap="round"/>
<path d="M297 283L302 283C305.314 283 308 285.686 308 289L308 365C308 368.314 305.314 371 302 371L297 371" stroke="#4A7AFF" stroke-linecap="round"/>
<path d="M294.962 371.778C294.467 371.377 294.467 370.623 294.962 370.222L298.8 367.12C299.454 366.592 300.429 367.057 300.429 367.898L300.429 374.102C300.429 374.943 299.454 375.408 298.8 374.88L294.962 371.778Z" fill="#4A7AFF"/>
<path d="M294.962 283.778C294.467 283.377 294.467 282.623 294.962 282.222L298.8 279.12C299.454 278.592 300.429 279.057 300.429 279.898L300.429 286.102C300.429 286.943 299.454 287.408 298.8 286.88L294.962 283.778Z" fill="#4A7AFF"/>
<path d="M298 186L330 186" stroke="#9E9FA3" stroke-linecap="round"/>
<path d="M297.5 272H302.5C305.814 272 308.5 269.314 308.5 266V186" stroke="#9E9FA3" stroke-linecap="round"/>
<path d="M294.962 272.778C294.467 272.377 294.467 271.623 294.962 271.222L298.8 268.12C299.454 267.592 300.429 268.057 300.429 268.898L300.429 275.102C300.429 275.943 299.454 276.408 298.8 275.88L294.962 272.778Z" fill="#9E9FA3"/>
<path d="M294.962 186.778C294.467 186.377 294.467 185.623 294.962 185.222L298.8 182.12C299.454 181.592 300.429 182.057 300.429 182.898L300.429 189.102C300.429 189.943 299.454 190.408 298.8 189.88L294.962 186.778Z" fill="#9E9FA3"/>
<path d="M98 325L107 325" stroke="#4A7AFF" stroke-linecap="round"/>
<path d="M117.5 371L113.5 371C110.186 371 107.5 368.314 107.5 365L107.5 283C107.5 279.686 110.186 277 113.5 277L117.5 277" stroke="#4A7AFF" stroke-linecap="round"/>
<path d="M119.038 276.222C119.533 276.623 119.533 277.377 119.038 277.778L115.2 280.88C114.546 281.408 113.571 280.943 113.571 280.102L113.571 273.898C113.571 273.057 114.546 272.592 115.2 273.12L119.038 276.222Z" fill="#4A7AFF"/>
<path d="M119.038 370.222C119.533 370.623 119.533 371.377 119.038 371.778L115.2 374.88C114.546 375.408 113.571 374.943 113.571 374.102L113.571 367.898C113.571 367.057 114.546 366.592 115.2 367.12L119.038 370.222Z" fill="#4A7AFF"/>
<path d="M98 94L116 94" stroke="#9E9FA3" stroke-linecap="round"/>
<path d="M119.814 93.178C120.388 93.5757 120.388 94.4243 119.814 94.822L115.069 98.1088C114.406 98.5683 113.5 98.0936 113.5 97.2868L113.5 90.7132C113.5 89.9064 114.406 89.4317 115.069 89.8912L119.814 93.178Z" fill="#9E9FA3"/>
<path d="M98 186L116 186" stroke="#9E9FA3" stroke-linecap="round"/>
<path d="M119.814 185.178C120.388 185.576 120.388 186.424 119.814 186.822L115.069 190.109C114.406 190.568 113.5 190.094 113.5 189.287L113.5 182.713C113.5 181.906 114.406 181.432 115.069 181.891L119.814 185.178Z" fill="#9E9FA3"/>
<circle cx="328" cy="325" r="7" fill="#4A7AFF" fill-opacity="0.2"/>
<circle cx="328" cy="325" r="3" fill="#4A7AFF"/>
<circle cx="328" cy="186" r="7" fill="#888B8F" fill-opacity="0.2"/>
<circle cx="328" cy="186" r="3" fill="#9E9FA3"/>
</svg>
