<svg width="320" height="410" viewBox="0 0 320 410" fill="none" xmlns="http://www.w3.org/2000/svg">
<rect width="320" height="38" rx="19" fill="#73777A" fill-opacity="0.1"/>
<path d="M139.379 12.9121V25.1621H138.066V12.9121H139.379ZM135.728 14.2246C135.728 17.8066 134.197 20.9238 130 22.9336L129.316 21.8809C132.577 20.3291 134.163 18.1211 134.416 15.2637H129.904V14.2246H135.728ZM147.302 13.9922V15.0586H142.845V17.4238H147.056V18.4629H142.845V21.2109C144.889 21.2041 146.399 21.1152 148.177 20.8281L148.3 21.8809C146.413 22.1953 144.773 22.2637 142.517 22.2637H141.532V13.9922H147.302ZM150.556 12.9121V17.7383H152.524V18.832H150.556V25.1621H149.257V12.9121H150.556ZM162.191 16.6309V18.1484H167.14V19.1875H155.97V18.1484H160.906V16.6309H162.191ZM162.205 13.4043C162.205 14.8945 164.091 16.0566 166.511 16.3164L166.06 17.3145C164.057 17.041 162.321 16.248 161.535 14.9766C160.749 16.248 159.012 17.041 157.023 17.3145L156.558 16.3164C158.992 16.0566 160.879 14.8945 160.892 13.4043V13.0078H162.205V13.4043ZM165.732 20.0762V22.9883H158.595V24.041H166.074V25.0391H157.324V22.0449H164.447V21.0742H157.31V20.0762H165.732ZM177.661 13.3633V16.6992H170.442V18.1074H177.921V19.1602H169.143V15.7012H176.335V14.416H169.102V13.3633H177.661ZM178.987 20.3223V21.3613H174.011V25.1895H172.712V21.3613H167.776V20.3223H178.987ZM183.93 15.127C183.93 16.8906 185.037 18.5723 186.856 19.2832L186.145 20.2949C184.805 19.7549 183.821 18.6816 183.301 17.3418C182.775 18.7773 181.729 19.9121 180.307 20.4863L179.61 19.4473C181.496 18.75 182.631 17 182.645 15.127V13.6094H183.93V15.127ZM189.822 12.9258V22.0449H188.524V18.1895H186.145V17.1367H188.524V15.7148H186.145V14.6621H188.524V12.9258H189.822ZM190.096 23.8496V24.9023H181.824V21.1289H183.137V23.8496H190.096Z" fill="#5E6066"/>
<rect x="1" y="55" width="152" height="78" rx="19" stroke="#F0F0F0" stroke-width="2"/>
<path d="M39.5956 82.9798C39.4276 84.9206 37.9844 86.2847 35.7536 86.2847C34.004 86.2847 32.7321 85.7542 32.2181 85.4017C31.8985 85.1776 31.77 84.9536 31.77 84.5021V75.889C31.77 75.0158 32.3005 74.4854 33.0946 74.4854C33.8887 74.4854 34.4192 75.0158 34.4192 75.889V77.5728C34.8376 77.3816 35.5098 77.2531 36.0798 77.2531C37.9876 77.2531 39.4309 78.6173 39.5989 80.558C39.6549 81.2005 39.6549 82.3209 39.5989 82.9798H39.5956ZM35.6185 83.7476C36.5016 83.7476 36.9267 83.2039 36.9827 82.4494C37.0156 82.0309 37.0222 81.5992 36.9827 81.0852C36.9267 80.3307 36.5016 79.787 35.6185 79.787C35.1869 79.787 34.6894 79.899 34.4159 80.0901V83.4411C34.6894 83.6322 35.1869 83.7443 35.6185 83.7443V83.7476Z" fill="#262626"/>
<path d="M43.6335 75.331C43.6335 76.1647 43.0173 76.7907 42.2067 76.7907C41.3962 76.7907 40.78 76.1647 40.78 75.331C40.78 74.4974 41.3962 73.9043 42.2067 73.9043C43.0173 73.9043 43.6335 74.5205 43.6335 75.331ZM40.892 78.7381C40.892 77.8649 41.4225 77.3344 42.2166 77.3344C43.0107 77.3344 43.5412 77.8649 43.5412 78.7381V84.8009C43.5412 85.674 43.0107 86.2045 42.2166 86.2045C41.4225 86.2045 40.892 85.674 40.892 84.8009V78.7381Z" fill="#262626"/>
<path d="M51.9625 84.899C51.9625 85.637 51.4979 86.1247 50.6313 86.1247H45.7976C44.9969 86.1247 44.5718 85.6766 44.5718 85.011C44.5718 84.4904 44.7794 84.1675 45.1023 83.7852L48.3743 79.8543L46.1139 79.8609C45.2473 79.8609 44.7827 79.3634 44.7827 78.6352C44.7827 77.907 45.2473 77.416 46.1139 77.416H50.6676C51.3958 77.416 51.9263 77.7291 51.9263 78.5001C51.9263 79.0866 51.6923 79.4622 51.3496 79.8708L48.1832 83.6732H50.6379C51.5045 83.6732 51.9691 84.1609 51.9691 84.899H51.9625Z" fill="#262626"/>
<path d="M60.8811 82.9798C60.713 84.9206 59.2698 86.2847 57.0391 86.2847C55.2895 86.2847 54.0176 85.7542 53.5036 85.4017C53.184 85.1776 53.0555 84.9536 53.0555 84.5021V75.889C53.0555 75.0158 53.5859 74.4854 54.38 74.4854C55.1741 74.4854 55.7046 75.0158 55.7046 75.889V77.5728C56.1231 77.3816 56.7953 77.2531 57.3653 77.2531C59.2731 77.2531 60.7163 78.6173 60.8844 80.558C60.9404 81.2005 60.9404 82.3209 60.8844 82.9798H60.8811ZM56.9007 83.7476C57.7838 83.7476 58.2088 83.2039 58.2648 82.4494C58.2978 82.0309 58.3044 81.5992 58.2648 81.0852C58.2088 80.3307 57.7838 79.787 56.9007 79.787C56.4691 79.787 55.9715 79.899 55.698 80.0901V83.4411C55.9715 83.6322 56.4691 83.7443 56.9007 83.7443V83.7476Z" fill="#262626"/>
<path d="M61.9684 82.943C61.9189 82.34 61.9123 81.3087 61.9618 80.7683C62.1463 78.7386 63.6224 77.2559 65.9718 77.2559C68.3211 77.2559 69.6852 78.7089 69.6852 80.9759V81.3449C69.6852 82.4125 69.4447 82.5641 68.5056 82.5641H64.4067V82.686C64.4001 83.457 65.0788 83.9777 66.1233 83.9777C66.7823 83.9777 67.214 83.8327 67.4611 83.7437C67.7906 83.6317 68.0213 83.4966 68.3277 83.4966C68.9537 83.4966 69.4183 83.8986 69.4183 84.5806C69.4183 85.2627 68.9439 85.5922 68.5452 85.7668C68.0246 86.0008 67.0525 86.2874 66.0443 86.2874C63.7015 86.2874 62.1232 84.8838 61.9716 82.943H61.9684ZM67.3095 80.8639C67.382 79.9742 66.779 79.3877 65.8565 79.3877C64.9339 79.3877 64.4758 79.9808 64.4132 80.8639H67.3095Z" fill="#262626"/>
<path d="M70.6389 82.943C70.5894 82.34 70.5828 81.3087 70.6323 80.7683C70.8168 78.7386 72.2929 77.2559 74.6423 77.2559C76.9916 77.2559 78.3557 78.7089 78.3557 80.9759V81.3449C78.3557 82.4125 78.1152 82.5641 77.1761 82.5641H73.0772V82.686C73.0706 83.457 73.7493 83.9777 74.7938 83.9777C75.4528 83.9777 75.8845 83.8327 76.1316 83.7437C76.4611 83.6317 76.6918 83.4966 76.9982 83.4966C77.6242 83.4966 78.0888 83.8986 78.0888 84.5806C78.0888 85.2627 77.6144 85.5922 77.2157 85.7668C76.6951 86.0008 75.723 86.2874 74.7148 86.2874C72.372 86.2874 70.7937 84.8838 70.6422 82.943H70.6389ZM75.98 80.8639C76.0525 79.9742 75.4496 79.3877 74.527 79.3877C73.6044 79.3877 73.1463 79.9808 73.0837 80.8639H75.98Z" fill="#262626"/>
<path d="M82.5197 82.943C82.4703 82.34 82.4637 81.3087 82.5131 80.7683C82.6976 78.7386 84.1738 77.2559 86.5231 77.2559C88.8725 77.2559 90.2366 78.7089 90.2366 80.9759V81.3449C90.2366 82.4125 89.9961 82.5641 89.057 82.5641H84.958V82.686C84.9514 83.457 85.6302 83.9777 86.6747 83.9777C87.3337 83.9777 87.7653 83.8327 88.0125 83.7437C88.342 83.6317 88.5726 83.4966 88.8791 83.4966C89.5051 83.4966 89.9697 83.8986 89.9697 84.5806C89.9697 85.2627 89.4952 85.5922 89.0965 85.7668C88.5759 86.0008 87.6039 86.2874 86.5956 86.2874C84.2529 86.2874 82.6746 84.8838 82.523 82.943H82.5197ZM87.8609 80.8639C87.9334 79.9742 87.3304 79.3877 86.4078 79.3877C85.4852 79.3877 85.0272 79.9808 84.9646 80.8639H87.8609Z" fill="#262626"/>
<path d="M91.7483 85.2301C91.2903 84.9336 91.0333 84.5019 91.0333 83.9945C91.0333 83.2334 91.5869 82.7424 92.2854 82.7424C92.7039 82.7424 92.9905 82.8874 93.32 83.0719C93.8736 83.375 94.5392 83.7869 95.7419 83.7869C96.8259 83.7869 97.4487 83.4838 97.4487 82.8478C97.4487 82.1493 96.4536 81.8857 95.1784 81.6221C92.493 81.062 91.2969 80.113 91.2969 78.0701C91.2969 76.0272 93.1322 74.5972 95.5244 74.5972C97.1851 74.5972 98.3087 75.0057 98.9973 75.3913C99.4718 75.6647 99.7123 76.0503 99.7123 76.561C99.7123 77.2431 99.1819 77.8131 98.5261 77.8131C98.1505 77.8131 97.8276 77.6615 97.452 77.5001C96.9874 77.3089 96.4239 77.0981 95.5277 77.0981C94.4766 77.0981 94.0285 77.4836 94.0285 77.9877C94.0285 78.5644 94.6051 78.8774 95.9857 79.1344C98.8655 79.6649 100.18 80.7226 100.18 82.7193C100.18 84.7161 98.48 86.2878 95.7452 86.2878C93.699 86.2878 92.4502 85.6782 91.7516 85.2301H91.7483Z" fill="#262626"/>
<path d="M103.907 75.331C103.907 76.1647 103.29 76.7907 102.48 76.7907C101.669 76.7907 101.053 76.1647 101.053 75.331C101.053 74.4974 101.669 73.9043 102.48 73.9043C103.29 73.9043 103.907 74.5205 103.907 75.331ZM101.165 78.7381C101.165 77.8649 101.696 77.3344 102.49 77.3344C103.284 77.3344 103.814 77.8649 103.814 78.7381V84.8009C103.814 85.674 103.284 86.2045 102.49 86.2045C101.696 86.2045 101.165 85.674 101.165 84.8009V78.7381Z" fill="#262626"/>
<path d="M106.392 88.572C105.845 88.2985 105.548 87.8899 105.548 87.3627C105.548 86.7531 106.013 86.3116 106.632 86.3116C106.906 86.3116 107.153 86.3907 107.449 86.5027C107.868 86.6642 108.21 86.7367 108.813 86.7367C109.911 86.7367 110.322 86.1996 110.322 85.5274V85.3495C109.921 85.5406 109.238 85.6691 108.662 85.6691C106.817 85.6691 105.317 84.3939 105.126 82.5751C105.07 82.0446 105.077 80.8979 105.126 80.3543C105.288 78.5354 106.922 77.2603 109.12 77.2603C110.764 77.2603 111.871 77.7907 112.28 78.0214C112.939 78.3904 112.968 78.6639 112.968 79.8007V85.1979C112.968 87.8438 111.357 89.0959 109.037 89.0959C107.818 89.0959 106.906 88.8323 106.392 88.5753V88.572ZM109.12 83.3132C109.551 83.3132 110.049 83.2011 110.322 83.01V80.0017C110.049 79.8106 109.551 79.6985 109.12 79.6985C108.237 79.6985 107.828 80.1565 107.756 80.7892C107.723 81.0791 107.733 81.9359 107.756 82.2258C107.812 82.8585 108.237 83.3165 109.12 83.3165V83.3132Z" fill="#262626"/>
<path d="M122.23 80.7068V84.8058C122.23 85.679 121.699 86.2095 120.905 86.2095C120.111 86.2095 119.581 85.679 119.581 84.8058V81.0198C119.581 80.2422 119.179 79.7941 118.283 79.7941C117.808 79.7941 117.37 79.9226 117.073 80.0511V84.8058C117.073 85.679 116.543 86.2095 115.749 86.2095C114.955 86.2095 114.424 85.679 114.424 84.8058V79.514C114.424 78.6639 114.602 78.2784 115.436 77.8632C115.884 77.6392 117.024 77.2603 118.283 77.2603C120.882 77.2603 122.227 78.598 122.227 80.7101L122.23 80.7068Z" fill="#262626"/>
<path d="M46.8135 99.8506V108.128H45.8105V103.799H43.4873V102.974H45.8105V99.8506H46.8135ZM47.1309 110.045V110.883H39.5645V107.379H40.5674V110.045H47.1309ZM41.3799 102.174C41.3799 103.634 42.5098 105.056 44.1602 105.614L43.6396 106.414C42.3638 105.957 41.3799 105.005 40.8975 103.837C40.4087 105.138 39.3677 106.179 38.0283 106.681L37.5078 105.868C39.1709 105.284 40.377 103.799 40.377 102.174V101.59H37.8252V100.765H43.9062V101.59H41.3799V102.174ZM52.2537 103.304C52.241 105.119 53.5486 107.112 55.1863 107.887L54.615 108.674C53.3455 108.058 52.2727 106.712 51.7712 105.183C51.2507 106.846 50.1145 108.306 48.8513 108.953L48.242 108.166C49.867 107.379 51.2634 105.233 51.2761 103.304V101.831H48.6482V101.006H54.7927V101.831H52.2537V103.304ZM57.1668 99.8379V104.408H59.0584V105.259H57.1668V111.124H56.1765V99.8379H57.1668ZM69.0689 99.8379V111.124H68.1167V99.8379H69.0689ZM66.7837 100.143V110.553H65.8316V106.643H63.7368V105.817H65.8316V103.812H63.9273C63.375 105.722 62.1372 107.411 60.0044 108.687L59.395 107.963C61.8516 106.509 63.083 104.472 63.2798 102.11H59.9029V101.285H64.27C64.27 101.863 64.2193 102.434 64.1177 102.986H65.8316V100.143H66.7837ZM80.8821 101.59V102.402H79.2063V103.989H80.8821V104.84H79.2063V106.554H78.2161V99.8379H79.2063V101.59H80.8821ZM79.2063 107.074V111.124H78.2161V107.899H71.8177V107.074H79.2063ZM73.5569 100.523C75.2708 100.511 76.5149 101.615 76.5276 103.177C76.5149 104.764 75.2708 105.855 73.5569 105.855C71.843 105.855 70.5862 104.764 70.5989 103.177C70.5862 101.615 71.843 100.511 73.5569 100.523ZM73.5569 101.374C72.4143 101.374 71.5638 102.11 71.5764 103.177C71.5638 104.256 72.4143 105.005 73.5569 104.992C74.7122 105.005 75.5501 104.256 75.5501 103.177C75.5501 102.11 74.7122 101.374 73.5569 101.374ZM89.9852 103.291V104.776H94.6443V105.589H84.3611V104.776H89.0076V103.291H89.9852ZM89.9979 100.358C89.9979 101.818 92.0037 102.897 94.0604 103.126L93.7049 103.888C91.9275 103.646 90.2073 102.878 89.5027 101.641C88.7791 102.878 87.0525 103.646 85.2879 103.888L84.9324 103.126C86.9891 102.897 88.9949 101.818 88.9949 100.358V99.9268H89.9979V100.358ZM93.324 106.528V109.093H86.6209V110.21H93.6668V110.997H85.6307V108.344H92.3465V107.303H85.6053V106.528H93.324ZM104.401 100.295V103.228H97.5962V104.688H104.642V105.513H96.5933V102.44H103.385V101.107H96.5679V100.295H104.401ZM105.658 106.706V107.506H100.961V111.149H99.9703V107.506H95.3238V106.706H105.658ZM110.171 101.933C110.171 103.583 111.301 105.145 112.939 105.792L112.38 106.566C111.136 106.052 110.171 105.024 109.701 103.735C109.213 105.125 108.197 106.23 106.883 106.77L106.337 105.97C108.013 105.322 109.181 103.697 109.194 101.933V100.485H110.171V101.933ZM115.668 99.8506V108.28H114.665V104.662H112.342V103.85H114.665V102.352H112.342V101.526H114.665V99.8506H115.668ZM115.922 110.045V110.883H108.368V107.404H109.371V110.045H115.922Z" fill="#9E9FA3"/>
<rect x="167" y="55" width="152" height="78" rx="19" stroke="#F0F0F0" stroke-width="2"/>
<path d="M215.39 91.275H212.45C211.903 91.275 211.463 90.8352 211.463 90.2952C211.463 89.7551 211.903 89.3153 212.45 89.3153H215.39C215.745 89.3153 216.054 89.0144 216.054 88.6595C216.054 88.3895 215.822 88.1657 215.552 88.1657H213.847C212.396 88.1657 211.208 86.9852 211.208 85.5424C211.208 84.8866 211.471 84.2694 211.941 83.8065C212.404 83.3436 213.021 83.0967 213.677 83.0967H216.3C216.848 83.0967 217.288 83.5365 217.288 84.0766C217.288 84.6166 216.848 85.0564 216.3 85.0564H213.685C213.507 85.0564 213.392 85.149 213.338 85.1953C213.284 85.2493 213.191 85.365 213.191 85.5424C213.191 85.8974 213.492 86.1983 213.855 86.1983H215.56C216.925 86.1983 218.036 87.3016 218.036 88.6595C218.036 90.1023 216.856 91.275 215.398 91.275H215.39Z" fill="#8B5CF6"/>
<path d="M226.501 83.0967H226.03C225.313 83.0967 224.657 83.3667 224.163 83.8065C223.661 83.3667 223.013 83.0967 222.296 83.0967H221.825C220.267 83.0967 219.001 84.362 219.001 85.9205V90.1254C219.001 90.6578 219.433 91.0821 219.958 91.0821C220.483 91.0821 220.915 90.65 220.915 90.1254V85.9205C220.915 85.419 221.324 85.0101 221.825 85.0101H222.296C222.797 85.0101 223.206 85.419 223.206 85.9205V90.1254C223.206 90.6578 223.638 91.0821 224.163 91.0821C224.688 91.0821 225.12 90.65 225.12 90.1254V85.9205C225.12 85.419 225.529 85.0101 226.03 85.0101H226.501C227.002 85.0101 227.411 85.419 227.411 85.9205V90.1254C227.411 90.6578 227.843 91.0821 228.368 91.0821C228.893 91.0821 229.325 90.65 229.325 90.1254V85.9205C229.325 84.362 228.059 83.0967 226.501 83.0967Z" fill="#8B5CF6"/>
<path d="M240.048 91.0826C239.508 91.0826 239.068 90.6505 239.068 90.1181V86.1756C239.068 84.5862 240.387 83.29 242.007 83.29H242.763C243.304 83.29 243.743 83.7221 243.743 84.2545C243.743 84.7868 243.304 85.2189 242.763 85.2189H242.007C241.467 85.2189 241.027 85.651 241.027 86.1833V90.1259C241.027 90.6582 240.588 91.0903 240.048 91.0903V91.0826Z" fill="#8B5CF6"/>
<path d="M248.242 89.12H247.586C247.062 89.12 246.629 88.6803 246.629 88.1402V85.0849H248.242C248.767 85.0849 249.199 84.6451 249.199 84.105C249.199 83.5649 248.774 83.1252 248.242 83.1252H246.629V81.9447C246.629 81.4046 246.205 80.9648 245.673 80.9648C245.14 80.9648 244.716 81.4046 244.716 81.9447V88.1402C244.716 89.7681 246.005 91.0874 247.586 91.0874H248.242C248.767 91.0874 249.199 90.6477 249.199 90.1076C249.199 89.5675 248.774 89.1277 248.242 89.1277V89.12Z" fill="#8B5CF6"/>
<path d="M238.101 91.0826H234.205C232.06 91.0826 230.309 89.3312 230.309 87.1863C230.309 85.0414 232.06 83.29 234.205 83.29C236.35 83.29 238.101 85.0414 238.101 87.1863V91.0826ZM234.205 85.2343C233.132 85.2343 232.253 86.1061 232.253 87.1863C232.253 88.2665 233.125 89.1383 234.205 89.1383H236.157V87.1863C236.157 86.1139 235.285 85.2343 234.205 85.2343Z" fill="#8B5CF6"/>
<path d="M252.842 80.9673C252.641 80.9673 252.495 80.8979 252.394 80.759C252.302 80.6201 252.248 80.4504 252.248 80.2575C252.248 80.0646 252.294 79.8872 252.394 79.7483C252.487 79.6094 252.641 79.54 252.842 79.54H256.63C257.047 79.54 257.34 79.6171 257.502 79.7792C257.664 79.9412 257.741 80.2189 257.741 80.6278V81.6231C257.741 82.1092 257.687 82.5258 257.587 82.8653C257.479 83.2048 257.271 83.5211 256.947 83.8143C256.622 84.1152 256.167 84.4238 255.565 84.7479C254.971 85.0719 254.184 85.4654 253.205 85.9283C252.996 86.0209 252.796 86.0209 252.618 85.9283C252.441 85.8358 252.302 85.6969 252.225 85.5194C252.178 85.4423 252.155 85.3574 252.14 85.2571C252.124 85.1645 252.132 85.0642 252.14 84.9716C252.148 84.879 252.194 84.7942 252.248 84.717C252.302 84.6399 252.387 84.5704 252.502 84.5164C253.374 84.1152 254.053 83.7834 254.532 83.5288C255.01 83.2742 255.365 83.0428 255.596 82.8499C255.828 82.657 255.959 82.4641 256.005 82.2712C256.052 82.086 256.067 81.8469 256.067 81.5691V81.2682C256.067 81.0676 255.967 80.9673 255.766 80.9673H252.827H252.842ZM253.945 88.7213C253.945 87.8726 254.3 87.2399 255.002 86.8156C255.704 86.3912 256.676 86.1829 257.911 86.1829C259.145 86.1829 260.11 86.3912 260.82 86.8156C261.529 87.2399 261.877 87.8726 261.877 88.7213C261.877 89.57 261.522 90.2181 260.82 90.6347C260.118 91.0514 259.145 91.2674 257.911 91.2674C256.676 91.2674 255.712 91.0591 255.002 90.6347C254.3 90.2181 253.945 89.5777 253.945 88.7213ZM260.202 88.7213C260.202 88.3664 260.025 88.0732 259.67 87.8495C259.315 87.6257 258.729 87.5177 257.903 87.5177C257.078 87.5177 256.484 87.6257 256.136 87.8495C255.789 88.0732 255.612 88.3664 255.612 88.7213C255.612 89.0762 255.789 89.3694 256.136 89.5932C256.484 89.8169 257.078 89.9249 257.903 89.9249C258.729 89.9249 259.315 89.8169 259.67 89.5932C260.025 89.3694 260.202 89.0762 260.202 88.7213ZM261.83 85.3883C261.83 85.6352 261.746 85.8126 261.576 85.9283C261.406 86.0441 261.213 86.0981 261.005 86.0981C260.797 86.0981 260.604 86.0441 260.434 85.9283C260.264 85.8126 260.179 85.6352 260.179 85.3883V84.5087H258.713C258.513 84.5087 258.366 84.4392 258.274 84.3004C258.181 84.1615 258.135 83.9918 258.135 83.7912C258.135 83.5906 258.181 83.4362 258.274 83.2896C258.366 83.1508 258.513 83.0814 258.713 83.0814H260.179V82.0475H258.814C258.613 82.0475 258.466 81.978 258.374 81.8392C258.281 81.7003 258.235 81.5306 258.235 81.33C258.235 81.1294 258.281 80.975 258.374 80.8284C258.466 80.6896 258.613 80.6202 258.814 80.6202H260.179V79.5863C260.179 79.3394 260.264 79.1619 260.434 79.0462C260.604 78.9305 260.797 78.8765 261.005 78.8765C261.213 78.8765 261.406 78.9305 261.576 79.0462C261.746 79.1619 261.83 79.3394 261.83 79.5863V85.396V85.3883Z" fill="#333333"/>
<path d="M267.602 80.9518V81.4147C267.602 81.8159 267.663 82.1554 267.787 82.4254C267.91 82.6955 268.111 82.9501 268.389 83.1893C268.674 83.4284 268.944 83.6368 269.191 83.8219C269.438 84.0071 269.654 84.1691 269.831 84.3003C270.017 84.4392 270.109 84.6012 270.117 84.7863C270.125 84.9715 270.071 85.1413 269.947 85.311C269.893 85.3804 269.831 85.4422 269.754 85.5039C269.677 85.5579 269.6 85.6042 269.515 85.6273C269.43 85.6505 269.33 85.6582 269.23 85.6505C269.129 85.635 269.029 85.5965 268.921 85.527C268.782 85.4345 268.605 85.2956 268.381 85.1258C268.165 84.9561 267.926 84.7632 267.656 84.5549C267.339 84.3003 267.123 84.1074 267.008 83.9685C266.892 83.8296 266.815 83.6985 266.776 83.575H266.761C266.722 83.7216 266.645 83.8759 266.514 84.0303C266.383 84.1846 266.159 84.3929 265.843 84.6475C265.58 84.8558 265.326 85.0564 265.086 85.2339C264.847 85.419 264.6 85.5965 264.346 85.7739C264.153 85.9128 263.96 85.9437 263.767 85.8742C263.574 85.7971 263.428 85.689 263.335 85.5502C263.219 85.3959 263.165 85.2184 263.165 85.0178C263.165 84.8172 263.266 84.6475 263.466 84.5009C263.744 84.3003 264.022 84.0997 264.284 83.8991C264.546 83.6985 264.832 83.4824 265.117 83.2433C265.395 83.0041 265.596 82.7572 265.719 82.4795C265.843 82.2094 265.904 81.8699 265.904 81.4687V80.9595H263.975C263.775 80.9595 263.628 80.8901 263.528 80.7512C263.435 80.6123 263.381 80.4426 263.381 80.2497C263.381 80.0568 263.428 79.8948 263.528 79.7482C263.62 79.6093 263.775 79.5399 263.975 79.5399H269.376C269.577 79.5399 269.723 79.6093 269.824 79.7482C269.924 79.8871 269.97 80.0568 269.97 80.2497C269.97 80.4426 269.924 80.6046 269.824 80.7512C269.723 80.8978 269.577 80.9595 269.376 80.9595H267.578L267.602 80.9518ZM265.225 88.7212C265.225 87.8725 265.58 87.2399 266.282 86.8155C266.984 86.3912 267.957 86.1828 269.191 86.1828C270.425 86.1828 271.39 86.3912 272.1 86.8155C272.802 87.2399 273.157 87.8725 273.157 88.7212C273.157 89.5699 272.802 90.218 272.1 90.6346C271.398 91.0513 270.425 91.2673 269.191 91.2673C267.957 91.2673 266.992 91.059 266.282 90.6346C265.58 90.218 265.225 89.5776 265.225 88.7212ZM271.482 88.7212C271.482 88.3663 271.305 88.0731 270.95 87.8494C270.595 87.6256 270.009 87.5176 269.183 87.5176C268.358 87.5176 267.764 87.6256 267.416 87.8494C267.069 88.0731 266.892 88.3663 266.892 88.7212C266.892 89.0761 267.069 89.3693 267.416 89.5931C267.764 89.8168 268.358 89.9248 269.183 89.9248C270.009 89.9248 270.595 89.8168 270.95 89.5931C271.305 89.3693 271.482 89.0761 271.482 88.7212ZM271.444 83.197H269.909C269.708 83.197 269.561 83.1275 269.461 82.9886C269.368 82.8498 269.314 82.6801 269.314 82.4872C269.314 82.2943 269.361 82.1168 269.461 81.9779C269.554 81.8391 269.708 81.7696 269.909 81.7696H271.444V79.5785C271.444 79.3316 271.529 79.1541 271.699 79.0384C271.868 78.9226 272.061 78.8687 272.285 78.8687C272.509 78.8687 272.686 78.9226 272.856 79.0384C273.026 79.1541 273.11 79.3316 273.11 79.5785V85.3882C273.11 85.6351 273.026 85.8125 272.856 85.9283C272.686 86.044 272.493 86.098 272.285 86.098C272.077 86.098 271.868 86.044 271.699 85.9283C271.529 85.8125 271.444 85.6351 271.444 85.3882V83.197Z" fill="#333333"/>
<path d="M275.223 81.6638C275.023 81.6638 274.876 81.5943 274.776 81.4554C274.675 81.3166 274.629 81.1469 274.629 80.954C274.629 80.7611 274.675 80.599 274.776 80.4525C274.876 80.3059 275.023 80.2441 275.223 80.2441H277.229V79.4417C277.229 79.1948 277.314 79.0174 277.484 78.9016C277.654 78.7859 277.846 78.7319 278.07 78.7319C278.294 78.7319 278.487 78.7859 278.657 78.9016C278.826 79.0174 278.911 79.1948 278.911 79.4417V80.2441H280.786C280.987 80.2441 281.133 80.3136 281.234 80.4525C281.334 80.5913 281.38 80.7611 281.38 80.954C281.38 81.1469 281.334 81.3089 281.234 81.4554C281.133 81.602 280.987 81.6638 280.786 81.6638H278.911V82.1267C278.911 82.4662 278.965 82.7517 279.081 82.9754C279.197 83.1991 279.382 83.4075 279.644 83.6081C280.223 84.0247 280.701 84.3564 281.071 84.6033C281.257 84.7268 281.357 84.8888 281.388 85.0817C281.419 85.2746 281.372 85.4598 281.257 85.6295C281.164 85.7684 281.017 85.8764 280.84 85.9535C280.655 86.0307 280.454 85.9921 280.238 85.8532C280.092 85.7606 279.914 85.6372 279.706 85.4983C279.498 85.3594 279.282 85.1974 279.042 85.0277C278.711 84.7885 278.479 84.6033 278.348 84.4567C278.217 84.3102 278.132 84.179 278.101 84.0555H278.086C278.055 84.2021 277.962 84.3565 277.816 84.5185C277.669 84.6805 277.43 84.8811 277.098 85.1125C276.843 85.2977 276.604 85.4675 276.373 85.6218C276.141 85.7761 275.902 85.9381 275.648 86.1079C275.455 86.2313 275.27 86.2545 275.084 86.1696C274.899 86.0924 274.76 85.9767 274.668 85.8301C274.575 85.6758 274.529 85.4983 274.529 85.2977C274.529 85.1049 274.637 84.9351 274.837 84.8039C275.107 84.6265 275.378 84.449 275.64 84.2639C275.91 84.0787 276.195 83.8781 276.496 83.6466C276.759 83.446 276.944 83.23 277.059 83.014C277.175 82.7979 277.229 82.5125 277.229 82.1653V81.6561H275.223V81.6638ZM276.504 88.8545C276.504 88.0444 276.859 87.4349 277.561 87.0414C278.263 86.6479 279.235 86.4473 280.47 86.4473C281.704 86.4473 282.669 86.6479 283.378 87.0491C284.088 87.4503 284.435 88.0521 284.435 88.8623C284.435 89.6724 284.08 90.2819 283.378 90.6754C282.676 91.0688 281.704 91.2695 280.47 91.2695C279.235 91.2695 278.271 91.0688 277.561 90.6754C276.851 90.2819 276.504 89.6724 276.504 88.8623V88.8545ZM282.761 88.8545C282.761 88.5228 282.584 88.2604 282.237 88.0675C281.889 87.8747 281.295 87.7821 280.47 87.7821C279.644 87.7821 279.05 87.8747 278.703 88.0675C278.356 88.2604 278.178 88.5228 278.178 88.8545C278.178 89.1863 278.356 89.4486 278.703 89.6415C279.05 89.8344 279.644 89.927 280.47 89.927C281.295 89.927 281.889 89.8344 282.237 89.6415C282.584 89.4486 282.761 89.1863 282.761 88.8545ZM282.723 83.7392H281.218C281.017 83.7392 280.871 83.6698 280.771 83.5309C280.678 83.392 280.624 83.2223 280.624 83.0294C280.624 82.8365 280.67 82.6591 280.771 82.5202C280.863 82.3813 281.017 82.3119 281.218 82.3119H282.723V79.5806C282.723 79.3337 282.807 79.1563 282.977 79.0405C283.147 78.9248 283.34 78.8708 283.564 78.8708C283.787 78.8708 283.965 78.9248 284.135 79.0405C284.304 79.1563 284.389 79.3337 284.389 79.5806V85.6526C284.389 85.8995 284.304 86.077 284.135 86.1927C283.965 86.3084 283.772 86.3625 283.564 86.3625C283.355 86.3625 283.147 86.3084 282.977 86.1927C282.807 86.077 282.723 85.8995 282.723 85.6526V83.7392Z" fill="#333333"/>
<path d="M286.132 86.208C285.931 86.208 285.785 86.1386 285.684 85.9997C285.592 85.8608 285.538 85.691 285.538 85.4982C285.538 85.3053 285.584 85.1433 285.684 84.9967C285.777 84.8578 285.931 84.7884 286.132 84.7884H296.046C296.247 84.7884 296.393 84.8578 296.494 84.9967C296.586 85.1356 296.64 85.3053 296.64 85.4982C296.64 85.691 296.594 85.8531 296.494 85.9997C296.401 86.1386 296.247 86.208 296.046 86.208H291.926V90.5518C291.926 90.7987 291.841 90.9761 291.672 91.0918C291.502 91.2076 291.309 91.2616 291.085 91.2616C290.861 91.2616 290.669 91.2076 290.499 91.0918C290.329 90.9761 290.244 90.7987 290.244 90.5518V86.208H286.124H286.132ZM287.428 80.9307C287.227 80.9307 287.081 80.8613 286.981 80.7224C286.888 80.5835 286.834 80.4137 286.834 80.2131C286.834 80.0125 286.88 79.8428 286.981 79.7039C287.073 79.5651 287.227 79.4956 287.428 79.4956H293.986C294.403 79.4956 294.696 79.5728 294.858 79.7348C295.02 79.8891 295.097 80.1745 295.097 80.5912V81.4862C295.097 82.2423 295.051 82.9675 294.951 83.6696C294.85 84.3717 294.704 84.9967 294.503 85.5368L292.968 85.2744C293.13 84.6649 293.253 84.0477 293.323 83.4304C293.392 82.8132 293.431 82.1883 293.431 81.5479V81.247C293.431 81.0464 293.33 80.9461 293.13 80.9461H287.42L287.428 80.9307Z" fill="#333333"/>
<path d="M199.166 74.0971L189.36 71.6977V91.3025H199.166C204.582 91.3025 208.973 86.9124 208.973 81.4962V71.6899L199.166 74.0894V74.0971Z" fill="#8B5CF6"/>
<path d="M189.368 76.3262V91.3095H195.285C195.818 89.967 196.111 88.5011 196.111 86.9734C196.111 82.2747 193.349 78.2164 189.36 76.3338L189.368 76.3262Z" fill="#5B21B6"/>
<path d="M199.247 78.8207C199.247 81.2048 197.318 83.1336 194.934 83.1336C192.55 83.1336 190.621 81.2048 190.621 78.8207C190.621 76.4367 192.55 74.5078 194.934 74.5078C197.318 74.5078 199.247 76.4367 199.247 78.8207Z" fill="white"/>
<path d="M196.106 78.8231C196.106 79.4712 195.581 80.0036 194.933 80.0036C194.285 80.0036 193.76 79.479 193.76 78.8231C193.76 78.1673 194.285 77.6504 194.933 77.6504C195.581 77.6504 196.106 78.1751 196.106 78.8231Z" fill="#5B21B6"/>
<path d="M207.724 78.8207C207.724 81.2048 205.795 83.1336 203.411 83.1336C201.027 83.1336 199.098 81.2048 199.098 78.8207C199.098 76.4367 201.027 74.5078 203.411 74.5078C205.795 74.5078 207.724 76.4367 207.724 78.8207Z" fill="white"/>
<path d="M204.583 78.8231C204.583 79.4712 204.059 80.0036 203.411 80.0036C202.762 80.0036 202.238 79.479 202.238 78.8231C202.238 78.1673 202.762 77.6504 203.411 77.6504C204.059 77.6504 204.583 78.1751 204.583 78.8231Z" fill="#5B21B6"/>
<path d="M212.313 102.065V108.844H211.311V107.321H208.314V106.496H211.311V104.972H208.429C207.686 106.788 205.94 108.102 203.528 108.819L203.109 108.032C205.839 107.219 207.534 105.696 207.743 103.741H203.681V102.903H208.822C208.822 103.347 208.771 103.772 208.683 104.172H211.311V102.065H212.313ZM208.619 108.958C210.904 108.958 212.377 109.771 212.377 111.117C212.377 112.475 210.904 113.288 208.619 113.288C206.309 113.288 204.849 112.475 204.849 111.117C204.849 109.771 206.309 108.958 208.619 108.958ZM208.619 109.758C206.918 109.746 205.826 110.266 205.826 111.117C205.826 111.967 206.918 112.475 208.619 112.475C210.295 112.475 211.374 111.967 211.387 111.117C211.374 110.266 210.295 109.746 208.619 109.758ZM223.289 102.052V108.781H222.286V105.823H220.013V104.998H222.286V102.052H223.289ZM219.544 109.136C221.892 109.136 223.327 109.898 223.327 111.231C223.327 112.564 221.892 113.326 219.544 113.338C217.195 113.326 215.761 112.564 215.761 111.231C215.761 109.898 217.195 109.136 219.544 109.136ZM219.544 109.911C217.817 109.911 216.738 110.406 216.751 111.231C216.738 112.043 217.817 112.539 219.544 112.539C221.27 112.539 222.337 112.043 222.337 111.231C222.337 110.406 221.27 109.911 219.544 109.911ZM217.855 104.122C217.855 105.594 218.985 106.991 220.636 107.562L220.115 108.362C218.845 107.905 217.862 106.959 217.386 105.785C216.89 107.111 215.843 108.171 214.504 108.679L213.983 107.879C215.659 107.27 216.852 105.747 216.852 104.134V103.715H214.301V102.877H220.382V103.715H217.855V104.122ZM228.754 104.477C228.754 105.886 229.973 107.143 231.636 107.638L231.154 108.413C229.846 108.025 228.799 107.168 228.297 106.051C227.802 107.289 226.774 108.26 225.428 108.705L224.946 107.943C226.609 107.384 227.777 106.013 227.777 104.477V104.236H225.225V103.436H227.777V102.001H228.78V103.436H231.306V104.236H228.754V104.477ZM234.264 102.052V108.895H233.261V106.115H230.951V105.29H233.261V102.052H234.264ZM230.519 109.2C232.868 109.2 234.302 109.936 234.302 111.256C234.302 112.564 232.868 113.313 230.519 113.313C228.17 113.313 226.736 112.564 226.736 111.256C226.736 109.936 228.17 109.2 230.519 109.2ZM230.519 109.974C228.792 109.987 227.713 110.457 227.726 111.256C227.713 112.043 228.792 112.526 230.519 112.526C232.258 112.526 233.312 112.043 233.312 111.256C233.312 110.457 232.258 109.987 230.519 109.974ZM244.808 102.789V103.779C244.808 104.852 244.808 106.013 244.491 107.638H246.166V108.463H241.507V113.364H240.504V108.463H235.883V107.638H243.475C243.818 106.013 243.818 104.826 243.818 103.779V103.614H237.178V102.789H244.808ZM255.485 105.505V106.991H260.144V107.803H249.861V106.991H254.508V105.505H255.485ZM255.498 102.573C255.498 104.033 257.504 105.112 259.56 105.34L259.205 106.102C257.428 105.861 255.707 105.093 255.003 103.855C254.279 105.093 252.553 105.861 250.788 106.102L250.432 105.34C252.489 105.112 254.495 104.033 254.495 102.573V102.141H255.498V102.573ZM258.824 108.743V111.307H252.121V112.424H259.167V113.211H251.131V110.558H257.846V109.517H251.105V108.743H258.824ZM269.901 102.509V105.442H263.096V106.902H270.142V107.727H262.093V104.655H268.885V103.322H262.068V102.509H269.901ZM271.158 108.92V109.72H266.461V113.364H265.47V109.72H260.824V108.92H271.158ZM275.671 104.147C275.671 105.797 276.801 107.359 278.439 108.006L277.88 108.781C276.636 108.267 275.671 107.238 275.201 105.95C274.713 107.34 273.697 108.444 272.383 108.984L271.837 108.184C273.513 107.537 274.681 105.912 274.694 104.147V102.7H275.671V104.147ZM281.168 102.065V110.495H280.165V106.876H277.842V106.064H280.165V104.566H277.842V103.741H280.165V102.065H281.168ZM281.422 112.259V113.097H273.868V109.619H274.871V112.259H281.422Z" fill="#9E9FA3"/>
<rect x="1" y="147" width="152" height="78" rx="19" stroke="#F0F0F0" stroke-width="2"/>
<path d="M44.0476 174.934C43.8846 176.816 42.4853 178.138 40.3225 178.138C38.626 178.138 37.3897 177.624 36.8945 177.282C36.5846 177.065 36.46 176.848 36.46 176.41V168.059C36.46 167.212 36.9743 166.698 37.7443 166.698C38.5142 166.698 39.0286 167.212 39.0286 168.059V169.691C39.4343 169.506 40.0861 169.381 40.6387 169.381C42.4885 169.381 43.8878 170.704 44.0508 172.586C44.1051 173.209 44.1051 174.295 44.0508 174.934H44.0476ZM40.1915 175.681C41.0477 175.681 41.4598 175.154 41.5141 174.423C41.5461 174.017 41.5525 173.598 41.5141 173.1C41.4598 172.368 41.0477 171.841 40.1915 171.841C39.773 171.841 39.2906 171.95 39.0254 172.135V175.384C39.2906 175.57 39.773 175.678 40.1915 175.678V175.681Z" fill="#262626"/>
<path d="M47.966 167.519C47.966 168.327 47.3686 168.934 46.5827 168.934C45.7968 168.934 45.1994 168.327 45.1994 167.519C45.1994 166.71 45.7968 166.135 46.5827 166.135C47.3686 166.135 47.966 166.733 47.966 167.519ZM45.308 170.822C45.308 169.975 45.8224 169.461 46.5923 169.461C47.3622 169.461 47.8766 169.975 47.8766 170.822V176.7C47.8766 177.547 47.3622 178.061 46.5923 178.061C45.8224 178.061 45.308 177.547 45.308 176.7V170.822Z" fill="#262626"/>
<path d="M56.0342 176.8C56.0342 177.516 55.5837 177.989 54.7435 177.989H50.0536C49.2772 177.989 48.8651 177.554 48.8651 176.909C48.8651 176.404 49.0664 176.091 49.3795 175.72L52.5519 171.909L50.3603 171.915C49.52 171.915 49.0696 171.433 49.0696 170.727C49.0696 170.021 49.52 169.545 50.3603 169.545H54.7754C55.4815 169.545 55.9958 169.848 55.9958 170.596C55.9958 171.165 55.769 171.529 55.4368 171.925L52.3666 175.612H54.7467C55.5869 175.612 56.0374 176.085 56.0374 176.8H56.0342Z" fill="#262626"/>
<path d="M64.6871 174.934C64.5241 176.816 63.1248 178.138 60.962 178.138C59.2655 178.138 58.0292 177.624 57.534 177.282C57.2241 177.065 57.0995 176.848 57.0995 176.41V168.059C57.0995 167.212 57.6138 166.698 58.3838 166.698C59.1537 166.698 59.6681 167.212 59.6681 168.059V169.691C60.0738 169.506 60.7256 169.381 61.2782 169.381C63.128 169.381 64.5273 170.704 64.6903 172.586C64.7446 173.209 64.7446 174.295 64.6903 174.934H64.6871ZM60.831 175.681C61.6872 175.681 62.0993 175.154 62.1536 174.423C62.1856 174.017 62.1919 173.598 62.1536 173.1C62.0993 172.368 61.6872 171.841 60.831 171.841C60.4125 171.841 59.9301 171.95 59.6649 172.135V175.384C59.9301 175.57 60.4125 175.678 60.831 175.678V175.681Z" fill="#262626"/>
<path d="M65.7465 174.896C65.6986 174.312 65.6922 173.312 65.7401 172.788C65.919 170.82 67.3503 169.382 69.6281 169.382C71.906 169.382 73.2286 170.791 73.2286 172.989V173.347C73.2286 174.382 72.9954 174.529 72.0849 174.529H68.1106V174.647C68.1042 175.395 68.7623 175.9 69.7751 175.9C70.414 175.9 70.8326 175.759 71.0722 175.673C71.3916 175.564 71.6153 175.433 71.9124 175.433C72.5194 175.433 72.9698 175.823 72.9698 176.484C72.9698 177.146 72.5098 177.465 72.1232 177.634C71.6185 177.861 70.676 178.139 69.6984 178.139C67.4269 178.139 65.8966 176.778 65.7497 174.896H65.7465ZM70.9252 172.881C70.9955 172.018 70.4108 171.449 69.5163 171.449C68.6218 171.449 68.1777 172.024 68.117 172.881H70.9252Z" fill="#262626"/>
<path d="M74.154 174.896C74.1061 174.312 74.0997 173.312 74.1476 172.788C74.3265 170.82 75.7578 169.382 78.0357 169.382C80.3135 169.382 81.6362 170.791 81.6362 172.989V173.347C81.6362 174.382 81.4029 174.529 80.4924 174.529H76.5181V174.647C76.5118 175.395 77.1699 175.9 78.1826 175.9C78.8216 175.9 79.2401 175.759 79.4797 175.673C79.7992 175.564 80.0228 175.433 80.3199 175.433C80.9269 175.433 81.3774 175.823 81.3774 176.484C81.3774 177.146 80.9173 177.465 80.5308 177.634C80.026 177.861 79.0835 178.139 78.1059 178.139C75.8345 178.139 74.3042 176.778 74.1572 174.896H74.154ZM79.3295 172.881C79.3998 172.018 78.8152 171.449 77.9206 171.449C77.0261 171.449 76.582 172.024 76.5213 172.881H79.3295Z" fill="#262626"/>
<path d="M86.2132 177.117C85.7691 176.829 85.52 176.411 85.52 175.919C85.52 175.181 86.0567 174.705 86.734 174.705C87.1397 174.705 87.4176 174.845 87.7371 175.024C88.2738 175.318 88.9192 175.717 90.0853 175.717C91.1364 175.717 91.7402 175.423 91.7402 174.807C91.7402 174.13 90.7753 173.874 89.539 173.618C86.9352 173.075 85.7755 172.155 85.7755 170.174C85.7755 168.194 87.555 166.807 89.8744 166.807C91.4846 166.807 92.574 167.203 93.2417 167.577C93.7018 167.842 93.935 168.216 93.935 168.711C93.935 169.373 93.4206 169.925 92.7849 169.925C92.4207 169.925 92.1076 169.778 91.7434 169.622C91.2929 169.436 90.7466 169.232 89.8776 169.232C88.8585 169.232 88.424 169.606 88.424 170.095C88.424 170.654 88.9831 170.957 90.3217 171.206C93.1139 171.721 94.3886 172.746 94.3886 174.682C94.3886 176.618 92.7401 178.142 90.0885 178.142C88.1045 178.142 86.8937 177.551 86.2164 177.117H86.2132Z" fill="#262626"/>
<path d="M97.8842 168.948V169.539H99.6094C100.434 169.539 100.868 169.999 100.868 170.699C100.868 171.399 100.434 171.859 99.6094 171.859H97.8842V174.734C97.8842 175.494 98.1238 175.776 98.7851 175.776C99.0662 175.776 99.2739 175.721 99.4305 175.673C99.6796 175.597 99.9033 175.494 100.191 175.494C100.759 175.494 101.226 175.961 101.226 176.6C101.226 177.268 100.82 177.609 100.261 177.82C99.833 177.977 99.1972 178.14 98.6062 178.14C96.6861 178.14 95.3188 177.114 95.3188 175.006V168.948C95.3188 168.102 95.8331 167.587 96.6031 167.587C97.373 167.587 97.8874 168.102 97.8874 168.948H97.8842Z" fill="#262626"/>
<path d="M101.439 175.367C101.439 174.098 102.435 172.862 104.627 172.862C105.212 172.862 105.771 172.939 106.282 173.063V172.533C106.282 171.98 105.962 171.632 104.86 171.632C104.496 171.632 104.138 171.686 103.835 171.789C103.499 171.897 103.221 172.006 102.94 172.006C102.355 172.006 101.899 171.578 101.899 170.955C101.899 170.466 102.148 170.028 102.793 169.789C103.384 169.562 104.106 169.376 105.023 169.376C107.432 169.376 108.723 170.396 108.723 172.664V176.411C108.723 176.839 108.604 177.073 108.288 177.274C107.735 177.625 106.493 178.13 104.844 178.13C102.55 178.13 101.439 176.817 101.439 175.363V175.367ZM105.001 176.159C105.483 176.159 105.95 176.05 106.285 175.894V174.667C105.873 174.542 105.438 174.482 104.988 174.482C104.266 174.482 103.854 174.871 103.854 175.36C103.854 175.849 104.368 176.162 105.004 176.162L105.001 176.159Z" fill="#262626"/>
<path d="M110.345 179.635C110.345 179.223 110.524 178.913 110.85 178.632C111.246 178.297 111.789 177.856 112.064 177.265L109.537 171.473C109.381 171.115 109.336 170.898 109.336 170.696C109.336 169.997 109.889 169.46 110.649 169.46C111.262 169.46 111.684 169.732 111.908 170.37L113.393 174.607C113.441 174.738 113.454 174.754 113.518 174.754C113.582 174.754 113.594 174.738 113.642 174.607L115.058 170.354C115.259 169.757 115.671 169.46 116.288 169.46C116.987 169.46 117.54 169.997 117.54 170.664C117.54 170.875 117.502 171.099 117.393 171.364L114.943 177.236C114.227 178.961 113.543 179.693 112.671 180.447C112.384 180.696 112.048 180.865 111.636 180.865C110.866 180.865 110.345 180.274 110.345 179.639V179.635Z" fill="#262626"/>
<path d="M45.9326 192.292V193.168C45.9326 194.114 45.9326 195.263 45.6406 196.799H47.291V197.637H36.957V196.799H44.6377C44.9424 195.238 44.9424 194.133 44.9424 193.168V193.105H38.2646V192.292H45.9326ZM46.2754 201.801V202.639H38.3281V198.907H39.3184V201.801H46.2754ZM52.8582 192.915V193.727H49.3416V195.898H52.6931V196.698H49.3416V199.25C51.0173 199.243 52.052 199.199 53.2898 198.97L53.3787 199.795C52.0584 200.049 50.9666 200.1 49.113 200.1H48.3894V192.915H52.8582ZM57.6062 191.607V202.893H56.6414V196.977H55.0925V202.322H54.1277V191.848H55.0925V196.152H56.6414V191.607H57.6062ZM65.1665 192.483V193.08C65.1538 193.816 65.1538 194.946 64.8745 196.418L63.8716 196.342C64.1446 194.99 64.1699 194.032 64.189 193.321H59.5425V192.483H65.1665ZM62.2593 194.984V197.409C63.5098 197.358 64.8047 197.269 65.979 197.104L66.0425 197.84C63.6812 198.247 60.9517 198.297 58.9458 198.297L58.8443 197.472C59.5742 197.466 60.3994 197.459 61.2691 197.434V194.984H62.2593ZM67.7564 191.607V195.289H69.4068V196.139H67.7564V200.1H66.7407V191.607H67.7564ZM68.1245 201.814V202.652H60.5835V199.338H61.5864V201.814H68.1245ZM79.2014 191.607V202.918H78.2112V191.607H79.2014ZM75.7737 192.661V196.672H71.5589V199.338C73.4314 199.338 75.1009 199.256 77.1194 198.932L77.221 199.77C75.1389 200.1 73.4251 200.176 71.4827 200.176H70.5432V195.86H74.7708V193.486H70.5179V192.661H75.7737ZM89.4852 195.06V196.545H94.1443V197.358H83.8611V196.545H88.5076V195.06H89.4852ZM89.4979 192.127C89.4979 193.587 91.5037 194.667 93.5604 194.895L93.2049 195.657C91.4275 195.416 89.7073 194.647 89.0027 193.41C88.2791 194.647 86.5525 195.416 84.7879 195.657L84.4324 194.895C86.4891 194.667 88.4949 193.587 88.4949 192.127V191.696H89.4979V192.127ZM92.824 198.297V200.862H86.1209V201.979H93.1668V202.766H85.1307V200.113H91.8465V199.072H85.1053V198.297H92.824ZM103.901 192.064V194.997H97.0962V196.457H104.142V197.282H96.0933V194.209H102.885V192.876H96.0679V192.064H103.901ZM105.158 198.475V199.275H100.461V202.918H99.4703V199.275H94.8238V198.475H105.158ZM109.671 193.702C109.671 195.352 110.801 196.914 112.439 197.561L111.88 198.335C110.636 197.821 109.671 196.793 109.201 195.504C108.713 196.895 107.697 197.999 106.383 198.539L105.837 197.739C107.513 197.091 108.681 195.466 108.694 193.702V192.254H109.671V193.702ZM115.168 191.62V200.049H114.165V196.431H111.842V195.619H114.165V194.121H111.842V193.295H114.165V191.62H115.168ZM115.422 201.814V202.652H107.868V199.173H108.871V201.814H115.422Z" fill="#9E9FA3"/>
<rect x="167" y="147" width="152" height="78" rx="19" stroke="#F0F0F0" stroke-width="2"/>
<path d="M225.423 182.654H222.672C222.16 182.654 221.748 182.242 221.748 181.737C221.748 181.231 222.16 180.82 222.672 180.82H225.423C225.755 180.82 226.044 180.538 226.044 180.206C226.044 179.954 225.827 179.744 225.575 179.744H223.979C222.622 179.744 221.51 178.64 221.51 177.29C221.51 176.676 221.755 176.098 222.196 175.665C222.629 175.232 223.207 175.001 223.82 175.001H226.275C226.787 175.001 227.199 175.412 227.199 175.918C227.199 176.423 226.787 176.835 226.275 176.835H223.827C223.661 176.835 223.553 176.921 223.503 176.965C223.452 177.015 223.365 177.124 223.365 177.29C223.365 177.622 223.647 177.903 223.986 177.903H225.582C226.86 177.903 227.899 178.936 227.899 180.206C227.899 181.556 226.795 182.654 225.43 182.654H225.423Z" fill="#F44336"/>
<path d="M235.818 174.996H235.377C234.706 174.996 234.092 175.249 233.63 175.66C233.161 175.249 232.555 174.996 231.883 174.996H231.443C229.985 174.996 228.801 176.18 228.801 177.638V181.573C228.801 182.071 229.205 182.468 229.696 182.468C230.187 182.468 230.591 182.064 230.591 181.573V177.638C230.591 177.169 230.974 176.786 231.443 176.786H231.883C232.352 176.786 232.735 177.169 232.735 177.638V181.573C232.735 182.071 233.139 182.468 233.63 182.468C234.121 182.468 234.526 182.064 234.526 181.573V177.638C234.526 177.169 234.908 176.786 235.377 176.786H235.818C236.287 176.786 236.67 177.169 236.67 177.638V181.573C236.67 182.071 237.074 182.468 237.565 182.468C238.056 182.468 238.46 182.064 238.46 181.573V177.638C238.46 176.18 237.276 174.996 235.818 174.996Z" fill="#F44336"/>
<path d="M248.495 182.473C247.99 182.473 247.578 182.069 247.578 181.57V177.881C247.578 176.394 248.813 175.181 250.329 175.181H251.036C251.542 175.181 251.953 175.585 251.953 176.084C251.953 176.582 251.542 176.986 251.036 176.986H250.329C249.823 176.986 249.412 177.39 249.412 177.888V181.578C249.412 182.076 249 182.48 248.495 182.48V182.473Z" fill="#F44336"/>
<path d="M256.165 180.637H255.551C255.06 180.637 254.656 180.225 254.656 179.72V176.861H256.165C256.656 176.861 257.06 176.45 257.06 175.944C257.06 175.439 256.663 175.027 256.165 175.027H254.656V173.923C254.656 173.417 254.259 173.006 253.761 173.006C253.262 173.006 252.865 173.417 252.865 173.923V179.72C252.865 181.243 254.071 182.478 255.551 182.478H256.165C256.656 182.478 257.06 182.066 257.06 181.561C257.06 181.055 256.663 180.644 256.165 180.644V180.637Z" fill="#F44336"/>
<path d="M246.66 182.473H243.015C241.008 182.473 239.369 180.834 239.369 178.827C239.369 176.82 241.008 175.181 243.015 175.181C245.022 175.181 246.66 176.82 246.66 178.827V182.473ZM243.015 177C242.011 177 241.188 177.816 241.188 178.827C241.188 179.838 242.004 180.653 243.015 180.653H244.841V178.827C244.841 177.823 244.025 177 243.015 177Z" fill="#F44336"/>
<path d="M261.378 180.822L259.63 172.447C259.616 172.354 259.587 172.216 259.587 172.079C259.587 171.487 259.991 171.018 260.713 171.018C261.298 171.018 261.71 171.372 261.811 172.036L263.233 180.201C263.247 180.302 263.283 180.324 263.348 180.324C263.392 180.324 263.428 180.309 263.45 180.201L264.944 172.772C265.168 171.552 265.832 171.018 266.821 171.018C267.81 171.018 268.438 171.545 268.691 172.787L270.236 180.187C270.257 180.288 270.294 180.317 270.351 180.317C270.409 180.317 270.438 180.295 270.467 180.194L271.853 172.014C271.947 171.386 272.373 171.011 272.994 171.011C273.687 171.011 274.098 171.487 274.098 172.086C274.098 172.216 274.084 172.332 274.048 172.455L272.207 180.815C271.947 181.991 271.456 182.547 270.322 182.547C269.268 182.547 268.712 181.999 268.474 180.887L266.9 173.639C266.886 173.559 266.843 173.538 266.807 173.538C266.77 173.538 266.742 173.552 266.72 173.639L265.11 180.894C264.865 182.006 264.265 182.547 263.233 182.547C262.121 182.547 261.63 181.999 261.385 180.815L261.378 180.822Z" fill="#333333"/>
<path d="M274.248 179.325C274.197 178.726 274.19 177.723 274.24 177.167C274.428 175.167 275.879 173.723 278.124 173.723C280.37 173.723 281.741 175.167 281.741 177.347V177.773C281.741 178.733 281.532 178.878 280.673 178.878H276.276V179.116C276.319 180.055 277.078 180.69 278.247 180.69C278.94 180.69 279.424 180.538 279.778 180.401C280.074 180.3 280.269 180.185 280.528 180.185C281.048 180.185 281.438 180.524 281.438 181.087C281.438 181.65 281.034 181.939 280.673 182.098C280.095 182.365 279.171 182.617 278.189 182.617C275.93 182.617 274.414 181.246 274.24 179.311L274.248 179.325ZM279.749 177.405C279.835 176.243 279.121 175.535 278.03 175.535C276.94 175.535 276.319 176.272 276.283 177.347V177.405H279.749Z" fill="#333333"/>
<path d="M282.755 181.394V172.037C282.755 171.308 283.188 170.875 283.845 170.875C284.502 170.875 284.935 171.308 284.935 172.037V181.394C284.935 182.123 284.502 182.556 283.845 182.556C283.188 182.556 282.755 182.123 282.755 181.394Z" fill="#333333"/>
<path d="M210.254 166.574L201.078 164.329V182.673H210.254C215.322 182.673 219.43 178.565 219.43 173.497V164.321L210.254 166.567V166.574Z" fill="#F44336"/>
<path d="M201.072 168.659V182.679H206.61C207.108 181.423 207.382 180.051 207.382 178.622C207.382 174.218 204.798 170.428 201.065 168.666L201.072 168.659Z" fill="#C62828"/>
<path d="M210.316 170.995C210.316 173.225 208.511 175.03 206.28 175.03C204.049 175.03 202.245 173.225 202.245 170.995C202.245 168.764 204.049 166.959 206.28 166.959C208.511 166.959 210.316 168.764 210.316 170.995Z" fill="white"/>
<path d="M207.384 170.994C207.384 171.601 206.893 172.099 206.279 172.099C205.665 172.099 205.182 171.608 205.182 170.994C205.182 170.381 205.673 169.897 206.279 169.897C206.885 169.897 207.384 170.388 207.384 170.994Z" fill="#C62828"/>
<path d="M218.249 170.995C218.249 173.225 216.444 175.03 214.213 175.03C211.982 175.03 210.177 173.225 210.177 170.995C210.177 168.764 211.982 166.959 214.213 166.959C216.444 166.959 218.249 168.764 218.249 170.995Z" fill="white"/>
<path d="M215.321 170.994C215.321 171.601 214.83 172.099 214.223 172.099C213.617 172.099 213.126 171.608 213.126 170.994C213.126 170.381 213.617 169.897 214.223 169.897C214.83 169.897 215.321 170.388 215.321 170.994Z" fill="#C62828"/>
<path d="M224.24 199.261V200.086H213.957V199.261H218.604V197.902H215.328V193.688H216.318V194.995H221.904V193.688H222.895V197.902H219.594V199.261H224.24ZM222.971 201.203V204.707H221.968V202.003H215.1V201.203H222.971ZM216.318 197.103H221.904V195.757H216.318V197.103ZM228.969 196.887C228.969 198.804 230.366 200.746 232.029 201.47L231.47 202.257C230.15 201.654 229.008 200.353 228.487 198.791C227.954 200.448 226.818 201.889 225.529 202.536L224.932 201.749C226.545 200.975 227.954 198.842 227.967 196.887V195.414H225.301V194.589H231.661V195.414H228.969V196.887ZM234.238 193.421V204.707H233.235V193.421H234.238ZM248.216 193.776V194.563H246.477V196.747H248.178V197.521H239.913V196.747H241.615V194.563H239.875V193.776H248.216ZM249.194 198.474V199.273H238.91V198.474H249.194ZM247.873 200.289V202.739H241.17V203.818H248.216V204.58H240.18V202.016H246.896V201.038H240.155V200.289H247.873ZM242.605 196.747H245.487V194.563H242.605V196.747ZM259.471 193.434V201.127H258.519V197.217H256.932V200.149H256.005V193.649H256.932V196.392H258.519V193.434H259.471ZM254.659 194.31V197.471H251.371V199.159C252.856 199.153 253.993 199.083 255.332 198.816L255.446 199.616C253.986 199.908 252.793 199.959 251.143 199.959H250.406V196.709H253.707V195.135H250.381V194.31H254.659ZM256.195 200.886C256.195 202.371 258.1 203.577 260.08 203.882L259.674 204.656C257.998 204.371 256.386 203.507 255.7 202.244C255.015 203.507 253.402 204.371 251.727 204.656L251.32 203.882C253.288 203.577 255.192 202.371 255.205 200.886V200.594H256.195V200.886ZM271.144 199.121V199.934H260.861V199.121H265.495V197.813H261.864V196.988H263.565V194.614H261.826V193.789H270.167V194.614H268.428V196.988H270.129V197.813H266.485V199.121H271.144ZM269.888 201.025V204.555H262.118V201.025H269.888ZM263.108 201.8V203.742H268.91V201.8H263.108ZM264.555 196.988H267.437V194.614H264.555V196.988Z" fill="#9E9FA3"/>
<rect x="1" y="239" width="152" height="78" rx="19" stroke="#F0F0F0" stroke-width="2"/>
<path d="M34.3194 281.02C34.1436 283.049 32.6343 284.476 30.3013 284.476C28.4714 284.476 27.1378 283.921 26.6037 283.553C26.2694 283.318 26.135 283.084 26.135 282.612V273.604C26.135 272.691 26.6898 272.136 27.5203 272.136C28.3508 272.136 28.9056 272.691 28.9056 273.604V275.365C29.3433 275.165 30.0463 275.03 30.6424 275.03C32.6377 275.03 34.1471 276.457 34.3228 278.487C34.3814 279.159 34.3814 280.33 34.3228 281.02H34.3194ZM30.16 281.826C31.0835 281.826 31.5281 281.257 31.5867 280.468C31.6211 280.031 31.628 279.579 31.5867 279.042C31.5281 278.252 31.0835 277.684 30.16 277.684C29.7086 277.684 29.1882 277.801 28.9022 278.001V281.506C29.1882 281.705 29.7086 281.823 30.16 281.823V281.826Z" fill="#262626"/>
<path d="M38.5447 273.016C38.5447 273.888 37.9003 274.543 37.0526 274.543C36.2048 274.543 35.5604 273.888 35.5604 273.016C35.5604 272.144 36.2048 271.524 37.0526 271.524C37.9003 271.524 38.5447 272.168 38.5447 273.016ZM35.6741 276.583C35.6741 275.67 36.229 275.115 37.0595 275.115C37.89 275.115 38.4448 275.67 38.4448 276.583V282.923C38.4448 283.837 37.89 284.391 37.0595 284.391C36.229 284.391 35.6741 283.837 35.6741 282.923V276.583Z" fill="#262626"/>
<path d="M47.2602 283.028C47.2602 283.8 46.7743 284.31 45.868 284.31H40.8092C39.9718 284.31 39.5273 283.841 39.5273 283.145C39.5273 282.601 39.7444 282.263 40.0821 281.863L43.504 277.752L41.14 277.759C40.2337 277.759 39.7478 277.239 39.7478 276.477C39.7478 275.716 40.2337 275.202 41.14 275.202H45.9025C46.6641 275.202 47.2189 275.53 47.2189 276.336C47.2189 276.949 46.9742 277.342 46.6158 277.769L43.3042 281.746H45.8715C46.7778 281.746 47.2637 282.256 47.2637 283.028H47.2602Z" fill="#262626"/>
<path d="M56.5851 281.02C56.4094 283.049 54.9 284.476 52.567 284.476C50.7372 284.476 49.4036 283.921 48.8694 283.553C48.5352 283.318 48.4008 283.084 48.4008 282.612V273.604C48.4008 272.691 48.9556 272.136 49.7861 272.136C50.6166 272.136 51.1714 272.691 51.1714 273.604V275.365C51.609 275.165 52.312 275.03 52.9082 275.03C54.9035 275.03 56.4128 276.457 56.5886 278.487C56.6472 279.159 56.6472 280.33 56.5886 281.02H56.5851ZM52.4257 281.826C53.3493 281.826 53.7938 281.257 53.8524 280.468C53.8869 280.031 53.8938 279.579 53.8524 279.042C53.7938 278.252 53.3493 277.684 52.4257 277.684C51.9743 277.684 51.454 277.801 51.1679 278.001V281.506C51.454 281.705 51.9743 281.823 52.4257 281.823V281.826Z" fill="#262626"/>
<path d="M57.7245 280.973C57.6728 280.342 57.6659 279.264 57.7176 278.698C57.9105 276.576 59.4544 275.025 61.9114 275.025C64.3684 275.025 65.7951 276.545 65.7951 278.915V279.301C65.7951 280.418 65.5435 280.576 64.5614 280.576H60.2745V280.704C60.2676 281.51 60.9775 282.055 62.0699 282.055C62.7591 282.055 63.2106 281.903 63.469 281.81C63.8136 281.693 64.0549 281.552 64.3753 281.552C65.0301 281.552 65.516 281.972 65.516 282.685C65.516 283.399 65.0197 283.743 64.6028 283.926C64.0583 284.171 63.0417 284.471 61.9872 284.471C59.5371 284.471 57.8864 283.003 57.7279 280.973H57.7245ZM63.3071 278.802C63.3829 277.871 62.7522 277.258 61.7874 277.258C60.8225 277.258 60.3435 277.878 60.278 278.802H63.3071Z" fill="#262626"/>
<path d="M66.7896 280.973C66.7379 280.342 66.7311 279.264 66.7827 278.698C66.9757 276.576 68.5196 275.025 70.9766 275.025C73.4336 275.025 74.8603 276.545 74.8603 278.915V279.301C74.8603 280.418 74.6087 280.576 73.6266 280.576H69.3397V280.704C69.3328 281.51 70.0427 282.055 71.1351 282.055C71.8243 282.055 72.2758 281.903 72.5342 281.81C72.8788 281.693 73.12 281.552 73.4405 281.552C74.0953 281.552 74.5812 281.972 74.5812 282.685C74.5812 283.399 74.0849 283.743 73.668 283.926C73.1235 284.171 72.1069 284.471 71.0524 284.471C68.6023 284.471 66.9516 283.003 66.7931 280.973H66.7896ZM72.3757 278.802C72.4515 277.871 71.8209 277.258 70.856 277.258C69.8911 277.258 69.4121 277.878 69.3466 278.802H72.3757Z" fill="#262626"/>
<path d="M88.2291 273.708C88.2291 274.515 87.6915 275.035 86.83 275.035H84.5556V282.878C84.5556 283.826 83.9939 284.395 83.1392 284.395C82.2846 284.395 81.7229 283.826 81.7229 282.878V275.035H79.4657C78.6008 275.035 78.0667 274.515 78.0667 273.708C78.0667 272.902 78.6042 272.416 79.4657 272.416H86.83C87.6949 272.416 88.2291 272.936 88.2291 273.708Z" fill="#262626"/>
<path d="M87.0059 281.486C87.0059 280.118 88.0811 278.785 90.4451 278.785C91.0757 278.785 91.6787 278.867 92.2301 279.002V278.43C92.2301 277.833 91.8855 277.458 90.6966 277.458C90.3038 277.458 89.9178 277.516 89.5904 277.627C89.2286 277.744 88.9288 277.861 88.6255 277.861C87.9949 277.861 87.5021 277.399 87.5021 276.727C87.5021 276.2 87.7709 275.728 88.467 275.469C89.1045 275.225 89.8833 275.025 90.8724 275.025C93.4707 275.025 94.8629 276.124 94.8629 278.571V282.613C94.8629 283.075 94.7354 283.326 94.3942 283.544C93.7981 283.923 92.4575 284.467 90.6794 284.467C88.2051 284.467 87.0059 283.051 87.0059 281.483V281.486ZM90.8482 282.344C91.3686 282.344 91.8717 282.227 92.2336 282.058V280.732C91.789 280.597 91.3203 280.532 90.8345 280.532C90.0556 280.532 89.6111 280.952 89.6111 281.479C89.6111 282.007 90.1659 282.344 90.8517 282.344H90.8482Z" fill="#262626"/>
<path d="M101.828 283.783L100.05 281.736L98.2893 283.783C97.9274 284.204 97.5863 284.386 97.1314 284.386C96.4008 284.386 95.8047 283.859 95.8047 283.07C95.8047 282.677 96.0321 282.322 96.3147 281.995L98.2858 279.706L96.3733 277.501C96.0872 277.174 95.8632 276.822 95.8632 276.426C95.8632 275.637 96.4594 275.109 97.19 275.109C97.6414 275.109 97.986 275.295 98.3478 275.712L100.074 277.701L101.784 275.712C102.145 275.292 102.487 275.109 102.941 275.109C103.672 275.109 104.275 275.637 104.275 276.426C104.275 276.819 104.041 277.174 103.755 277.501L101.835 279.731L103.796 281.995C104.082 282.322 104.306 282.673 104.306 283.07C104.306 283.859 103.71 284.386 102.966 284.386C102.528 284.386 102.187 284.2 101.825 283.783H101.828Z" fill="#262626"/>
<path d="M105.653 282.376V274.34C105.653 273.082 106.325 272.41 107.583 272.41H111.415C113.586 272.41 114.878 273.668 114.878 275.674C114.878 276.856 114.3 277.71 113.486 278.148V278.182C114.468 278.534 115.196 279.516 115.196 281.001C115.196 283.183 113.61 284.306 111.381 284.306H107.583C106.325 284.306 105.653 283.634 105.653 282.376ZM110.995 281.69C111.867 281.69 112.277 281.253 112.277 280.526C112.277 279.798 111.849 279.344 110.995 279.344H108.469V281.69H110.995ZM110.812 277.211C111.619 277.211 112.004 276.773 112.004 276.111C112.004 275.415 111.584 275.029 110.812 275.029H108.479V277.211H110.812Z" fill="#262626"/>
<path d="M119.233 273.016C119.233 273.888 118.589 274.543 117.741 274.543C116.893 274.543 116.249 273.888 116.249 273.016C116.249 272.144 116.893 271.524 117.741 271.524C118.589 271.524 119.233 272.168 119.233 273.016ZM116.363 276.583C116.363 275.67 116.917 275.115 117.748 275.115C118.578 275.115 119.133 275.67 119.133 276.583V282.923C119.133 283.837 118.578 284.391 117.748 284.391C116.917 284.391 116.363 283.837 116.363 282.923V276.583Z" fill="#262626"/>
<path d="M120.714 282.922V273.604C120.714 272.691 121.269 272.136 122.099 272.136C122.93 272.136 123.484 272.691 123.484 273.604V282.922C123.484 283.835 122.93 284.39 122.099 284.39C121.269 284.39 120.714 283.835 120.714 282.922Z" fill="#262626"/>
<path d="M125.095 282.922V273.604C125.095 272.691 125.649 272.136 126.48 272.136C127.31 272.136 127.865 272.691 127.865 273.604V282.922C127.865 283.835 127.31 284.39 126.48 284.39C125.649 284.39 125.095 283.835 125.095 282.922Z" fill="#262626"/>
<rect x="1" y="331" width="152" height="78" rx="19" stroke="#F0F0F0" stroke-width="2"/>
<path d="M44.7823 360.257C44.6219 362.11 43.2438 363.413 41.1138 363.413C39.4432 363.413 38.2287 362.906 37.7379 362.57C37.4327 362.356 37.31 362.142 37.31 361.711V353.486C37.31 352.653 37.8165 352.146 38.5748 352.146C39.333 352.146 39.8396 352.653 39.8396 353.486V355.094C40.2392 354.912 40.881 354.789 41.4253 354.789C43.247 354.789 44.625 356.091 44.7855 357.945C44.839 358.558 44.839 359.628 44.7855 360.257H44.7823ZM40.9817 360.99C41.8249 360.99 42.2307 360.471 42.2842 359.75C42.3157 359.351 42.322 358.939 42.2842 358.448C42.2307 357.727 41.8249 357.208 40.9817 357.208C40.5695 357.208 40.0944 357.315 39.8333 357.498V360.698C40.0944 360.88 40.5695 360.987 40.9817 360.987V360.99Z" fill="#262626"/>
<path d="M48.6379 352.95C48.6379 353.746 48.0496 354.344 47.2756 354.344C46.5016 354.344 45.9133 353.746 45.9133 352.95C45.9133 352.154 46.5016 351.587 47.2756 351.587C48.0496 351.587 48.6379 352.176 48.6379 352.95ZM46.0202 356.203C46.0202 355.369 46.5268 354.863 47.285 354.863C48.0433 354.863 48.5498 355.369 48.5498 356.203V361.992C48.5498 362.826 48.0433 363.332 47.285 363.332C46.5268 363.332 46.0202 362.826 46.0202 361.992V356.203Z" fill="#262626"/>
<path d="M56.5889 362.089C56.5889 362.794 56.1453 363.26 55.3178 363.26H50.7023C49.9377 363.26 49.5319 362.832 49.5319 362.196C49.5319 361.699 49.7301 361.391 50.0384 361.026L53.1626 357.273L51.0043 357.279C50.1768 357.279 49.7332 356.804 49.7332 356.108C49.7332 355.413 50.1768 354.944 51.0043 354.944H55.3524C56.0477 354.944 56.5543 355.243 56.5543 355.979C56.5543 356.539 56.3309 356.898 56.0037 357.288L52.9801 360.919H55.3241C56.1516 360.919 56.5952 361.385 56.5952 362.089H56.5889Z" fill="#262626"/>
<path d="M65.108 360.257C64.9475 362.11 63.5695 363.413 61.4395 363.413C59.7688 363.413 58.5544 362.906 58.0635 362.57C57.7584 362.356 57.6357 362.142 57.6357 361.711V353.486C57.6357 352.653 58.1422 352.146 58.9004 352.146C59.6587 352.146 60.1652 352.653 60.1652 353.486V355.094C60.5648 354.912 61.2066 354.789 61.7509 354.789C63.5726 354.789 64.9507 356.091 65.1111 357.945C65.1646 358.558 65.1646 359.628 65.1111 360.257H65.108ZM61.3105 360.99C62.1537 360.99 62.5595 360.471 62.613 359.75C62.6445 359.351 62.6508 358.939 62.613 358.448C62.5595 357.727 62.1537 357.208 61.3105 357.208C60.8983 357.208 60.4232 357.315 60.1621 357.498V360.698C60.4232 360.88 60.8983 360.987 61.3105 360.987V360.99Z" fill="#262626"/>
<path d="M66.1495 360.214C66.1023 359.638 66.0961 358.654 66.1432 358.138C66.3194 356.2 67.729 354.784 69.9722 354.784C72.2155 354.784 73.5181 356.171 73.5181 358.336V358.688C73.5181 359.708 73.2884 359.852 72.3917 359.852H68.4778V359.969C68.4715 360.705 69.1196 361.202 70.117 361.202C70.7462 361.202 71.1584 361.064 71.3943 360.979C71.709 360.872 71.9292 360.743 72.2218 360.743C72.8196 360.743 73.2632 361.127 73.2632 361.778C73.2632 362.429 72.8101 362.744 72.4295 362.91C71.9323 363.134 71.0042 363.408 70.0414 363.408C67.8045 363.408 66.2974 362.067 66.1527 360.214H66.1495ZM71.2496 358.229C71.3188 357.379 70.7431 356.819 69.8621 356.819C68.9812 356.819 68.5438 357.386 68.4841 358.229H71.2496Z" fill="#262626"/>
<path d="M74.42 360.214C74.3728 359.638 74.3665 358.654 74.4137 358.138C74.5899 356.2 75.9994 354.784 78.2427 354.784C80.486 354.784 81.7885 356.171 81.7885 358.336V358.688C81.7885 359.708 81.5589 359.852 80.6622 359.852H76.7482V359.969C76.7419 360.705 77.3901 361.202 78.3874 361.202C79.0167 361.202 79.4288 361.064 79.6648 360.979C79.9794 360.872 80.1997 360.743 80.4923 360.743C81.0901 360.743 81.5337 361.127 81.5337 361.778C81.5337 362.429 81.0806 362.744 80.6999 362.91C80.2028 363.134 79.2747 363.408 78.3119 363.408C76.0749 363.408 74.5679 362.067 74.4232 360.214H74.42ZM79.5201 358.229C79.5893 357.379 79.0135 356.819 78.1326 356.819C77.2516 356.819 76.8143 357.386 76.7545 358.229H79.5201Z" fill="#262626"/>
<path d="M93.6954 362.053C93.6954 362.774 93.2046 363.249 92.418 363.249H87.9158C86.7737 363.249 86.1633 362.635 86.1633 361.487V353.7C86.1633 352.835 86.6761 352.312 87.4564 352.312C88.2367 352.312 88.7495 352.835 88.7495 353.7V360.861H92.418C93.2078 360.861 93.6954 361.336 93.6954 362.056V362.053Z" fill="#262626"/>
<path d="M94.0713 362.114C94.0713 362.038 94.0776 361.884 94.087 361.809L95.0372 354.657C95.2732 352.858 96.1006 352.323 97.2805 352.323C98.3282 352.323 99.1651 352.707 99.5017 354.629L100.521 360.478C100.537 360.547 100.553 360.579 100.612 360.579C100.672 360.579 100.688 360.547 100.704 360.472L101.714 354.629C102.044 352.707 102.878 352.323 103.925 352.323C105.105 352.323 105.907 352.858 106.147 354.657L107.103 361.809C107.119 361.938 107.125 362.007 107.125 362.13C107.125 362.841 106.659 363.331 105.955 363.331C105.149 363.331 104.677 362.904 104.592 362.076L103.903 355.117C103.897 355.063 103.888 355.041 103.828 355.041C103.781 355.041 103.759 355.057 103.752 355.101L102.541 361.519C102.311 362.721 101.644 363.335 100.597 363.335C99.4703 363.335 98.8882 362.715 98.6585 361.519L97.4346 355.117C97.4283 355.085 97.4032 355.041 97.3654 355.041C97.3119 355.041 97.2899 355.079 97.2805 355.132L96.5977 362.076C96.5222 362.85 96.1069 363.331 95.2889 363.331C94.5684 363.331 94.0713 362.872 94.0713 362.114Z" fill="#262626"/>
<path d="M108.639 362.397C108.201 362.114 107.956 361.702 107.956 361.217C107.956 360.49 108.484 360.022 109.152 360.022C109.551 360.022 109.825 360.16 110.139 360.336C110.668 360.626 111.304 361.019 112.452 361.019C113.487 361.019 114.082 360.73 114.082 360.122C114.082 359.455 113.132 359.204 111.914 358.952C109.35 358.417 108.208 357.511 108.208 355.56C108.208 353.61 109.96 352.244 112.244 352.244C113.83 352.244 114.903 352.634 115.56 353.002C116.013 353.264 116.243 353.632 116.243 354.119C116.243 354.771 115.737 355.315 115.11 355.315C114.752 355.315 114.443 355.17 114.085 355.016C113.641 354.834 113.103 354.632 112.247 354.632C111.244 354.632 110.816 355 110.816 355.482C110.816 356.032 111.366 356.331 112.685 356.577C115.435 357.083 116.69 358.093 116.69 360C116.69 361.906 115.066 363.407 112.455 363.407C110.501 363.407 109.309 362.825 108.642 362.397H108.639Z" fill="#262626"/>
<path d="M57.0215 375.297V376.554C57.0215 378.001 57.0215 379.461 56.6152 381.556L55.6377 381.442C56.0439 379.449 56.0439 377.963 56.0439 376.554V376.123H49.0361V375.297H57.0215ZM58.2402 383.016V383.841H47.957V383.016H50.5088V379.296H51.499V383.016H53.3271V379.296H54.3047V383.016H58.2402ZM69.2156 379.601V380.414H66.4734V381.848H67.9461V385.441H66.9431V382.648H60.075V381.848H61.6619V380.414H58.9324V379.601H69.2156ZM64.074 374.434C66.5242 374.421 68.0603 375.234 68.0603 376.58C68.0603 377.938 66.5242 378.75 64.074 378.738C61.6238 378.75 60.075 377.938 60.075 376.58C60.075 375.234 61.6238 374.421 64.074 374.434ZM64.074 375.234C62.2459 375.221 61.0906 375.742 61.1033 376.58C61.0906 377.443 62.2459 377.963 64.074 377.963C65.8767 377.963 67.0447 377.443 67.0447 376.58C67.0447 375.742 65.8767 375.221 64.074 375.234ZM62.6648 381.848H65.4959V380.414H62.6648V381.848ZM82.2161 374.51V375.297H80.4768V377.481H82.178V378.255H73.9134V377.481H75.6145V375.297H73.8753V374.51H82.2161ZM83.1936 379.208V380.007H72.9104V379.208H83.1936ZM81.8733 381.023V383.473H75.1702V384.552H82.2161V385.314H74.18V382.75H80.8958V381.772H74.1546V381.023H81.8733ZM76.6048 377.481H79.4866V375.297H76.6048V377.481ZM93.4707 374.167V381.861H92.5186V377.951H90.9317V380.883H90.0049V374.383H90.9317V377.125H92.5186V374.167H93.4707ZM88.6592 375.043V378.205H85.3711V379.893C86.8565 379.887 87.9927 379.817 89.3321 379.55L89.4463 380.35C87.9864 380.642 86.793 380.693 85.1426 380.693H84.4063V377.443H87.7071V375.869H84.3809V375.043H88.6592ZM90.1954 381.62C90.1954 383.105 92.0996 384.311 94.0801 384.616L93.6739 385.39C91.9981 385.104 90.3858 384.241 89.7002 382.978C89.0147 384.241 87.4024 385.104 85.7266 385.39L85.3204 384.616C87.2881 384.311 89.1924 383.105 89.2051 381.62V381.328H90.1954V381.62ZM105.144 379.855V380.667H94.8611V379.855H99.4949V378.547H95.8641V377.722H97.5652V375.348H95.826V374.523H104.167V375.348H102.428V377.722H104.129V378.547H100.485V379.855H105.144ZM103.888 381.759V385.289H96.118V381.759H103.888ZM97.1082 382.534V384.476H102.91V382.534H97.1082ZM98.5555 377.722H101.437V375.348H98.5555V377.722Z" fill="#9E9FA3"/>
</svg>
