<svg width="48" height="48" viewBox="0 0 48 48" fill="none" xmlns="http://www.w3.org/2000/svg">
<g filter="url(#filter0_b_1002_68334)">
<rect width="48" height="48" rx="24" fill="black" fill-opacity="0.45"/>
<path d="M20.7853 20.6017H22.09C22.7821 20.6017 23.4458 20.8767 23.9352 21.366C24.4245 21.8554 24.6995 22.5191 24.6995 23.2112M24.6995 23.2112V24.5159M24.6995 23.2112C24.6995 22.8651 24.8369 22.5333 25.0816 22.2886C25.3263 22.0439 25.6581 21.9065 26.0042 21.9065C26.6962 21.9065 27.36 22.1814 27.8493 22.6707C28.3387 23.1601 28.6136 23.8238 28.6136 24.5159M28.6136 24.5159V25.8206M28.6136 24.5159C28.6136 23.8322 29.2268 23.3129 29.9014 23.4251L30.3476 23.5008C30.9566 23.6024 31.51 23.9167 31.9091 24.3878C32.3083 24.8589 32.5275 25.4562 32.5278 26.0737V27.9956C32.5278 30.8307 32.5278 32.249 32.0959 33.3775C31.8454 34.0325 31.1839 34.8675 30.6555 35.4703C30.1904 35.9867 29.9285 36.6542 29.9183 37.3491V38.8678M20.7853 23.2112V14.7305C20.7853 14.2115 20.5791 13.7137 20.2121 13.3467C19.8451 12.9796 19.3473 12.7734 18.8282 12.7734C18.3092 12.7734 17.8114 12.9796 17.4444 13.3467C17.0774 13.7137 16.8712 14.2115 16.8712 14.7305V27.7281L14.7575 25.6079C14.539 25.3884 14.2764 25.2176 13.9872 25.1068C13.6979 24.9959 13.3884 24.9475 13.0792 24.9648C12.7699 24.982 12.4677 25.0645 12.1926 25.2069C11.9174 25.3492 11.6755 25.5481 11.4827 25.7906C11.1777 26.1731 11.0081 26.6458 11.0003 27.1349C10.9925 27.6241 11.147 28.102 11.4396 28.494L16.1366 34.4931C17.0356 35.6412 17.5235 37.4104 17.5235 38.8678" stroke="white" stroke-width="1.5" stroke-linecap="round" stroke-linejoin="round"/>
<path d="M35.6055 14.5508L27.0793 14.5508" stroke="white" stroke-linecap="round"/>
<path d="M38.5636 14.122C38.7938 14.3214 38.7938 14.6786 38.5636 14.878L35.3273 17.6806C35.0035 17.9611 34.5 17.731 34.5 17.3027L34.5 11.6973C34.5 11.269 35.0035 11.0389 35.3273 11.3194L38.5636 14.122Z" fill="white"/>
<path d="M24.4364 14.878C24.2062 14.6786 24.2062 14.3214 24.4364 14.122L27.6727 11.3194C27.9965 11.0389 28.5 11.269 28.5 11.6973L28.5 17.3027C28.5 17.731 27.9965 17.9611 27.6727 17.6806L24.4364 14.878Z" fill="white"/>
</g>
<defs>
<filter id="filter0_b_1002_68334" x="-4" y="-4" width="56" height="56" filterUnits="userSpaceOnUse" color-interpolation-filters="sRGB">
<feFlood flood-opacity="0" result="BackgroundImageFix"/>
<feGaussianBlur in="BackgroundImageFix" stdDeviation="2"/>
<feComposite in2="SourceAlpha" operator="in" result="effect1_backgroundBlur_1002_68334"/>
<feBlend mode="normal" in="SourceGraphic" in2="effect1_backgroundBlur_1002_68334" result="shape"/>
</filter>
</defs>
</svg>
